<svg width="139" height="21" viewBox="0 0 139 21" fill="none" xmlns="http://www.w3.org/2000/svg">
<path d="M11.224 13.822V16H0.51V0.379999H11.026V2.558H2.974V7.002H9.948V9.048H2.974V13.822H11.224ZM30.5319 16H28.1119V9.554C28.1119 8.48333 27.9359 7.69867 27.5839 7.2C27.2319 6.70133 26.7186 6.452 26.0439 6.452C25.3693 6.452 24.7386 6.70867 24.1519 7.222C23.5799 7.72067 23.1766 8.37333 22.9419 9.18V16H20.5219V9.554C20.5219 8.48333 20.3459 7.69867 19.9939 7.2C19.6419 6.70133 19.1359 6.452 18.4759 6.452C17.8013 6.452 17.1706 6.70133 16.5839 7.2C16.0119 7.69867 15.6013 8.35133 15.3519 9.158V16H12.9319V4.494H15.1319V6.804C15.5866 5.99733 16.1806 5.38133 16.9139 4.956C17.6619 4.516 18.5126 4.296 19.4659 4.296C20.4193 4.296 21.1673 4.54533 21.7099 5.044C22.2673 5.54267 22.6119 6.166 22.7439 6.914C23.2426 6.06333 23.8513 5.418 24.5699 4.978C25.3033 4.52333 26.1393 4.296 27.0779 4.296C27.7526 4.296 28.3173 4.42067 28.7719 4.67C29.2266 4.91933 29.5786 5.264 29.8279 5.704C30.0773 6.12933 30.2533 6.628 30.3559 7.2C30.4733 7.75733 30.5319 8.35133 30.5319 8.982V16ZM38.0946 16.22C37.1999 16.22 36.3859 16.066 35.6526 15.758C34.9339 15.4353 34.3106 15.0027 33.7826 14.46C33.2546 13.9027 32.8439 13.272 32.5506 12.568C32.2719 11.8493 32.1326 11.0867 32.1326 10.28C32.1326 9.19467 32.3819 8.20467 32.8806 7.31C33.3793 6.40067 34.0759 5.67467 34.9706 5.132C35.8653 4.57467 36.9139 4.296 38.1166 4.296C39.3193 4.296 40.3533 4.57467 41.2186 5.132C42.0986 5.67467 42.7806 6.39333 43.2646 7.288C43.7486 8.18267 43.9906 9.14333 43.9906 10.17C43.9906 10.346 43.9833 10.5147 43.9686 10.676C43.9539 10.8227 43.9393 10.9473 43.9246 11.05H34.7066C34.7506 11.7247 34.9339 12.3187 35.2566 12.832C35.5939 13.3307 36.0193 13.7267 36.5326 14.02C37.0459 14.2987 37.5959 14.438 38.1826 14.438C38.8279 14.438 39.4366 14.2767 40.0086 13.954C40.5953 13.6313 40.9913 13.206 41.1966 12.678L43.2646 13.272C43.0153 13.8293 42.6339 14.3353 42.1206 14.79C41.6219 15.23 41.0279 15.582 40.3386 15.846C39.6493 16.0953 38.9013 16.22 38.0946 16.22ZM34.6406 9.444H41.5926C41.5486 8.784 41.3579 8.20467 41.0206 7.706C40.6979 7.19267 40.2799 6.79667 39.7666 6.518C39.2679 6.22467 38.7106 6.078 38.0946 6.078C37.4933 6.078 36.9359 6.22467 36.4226 6.518C35.9239 6.79667 35.5133 7.19267 35.1906 7.706C34.8679 8.20467 34.6846 8.784 34.6406 9.444ZM51.9926 6.584C51.0539 6.59867 50.2179 6.81133 49.4846 7.222C48.7659 7.63267 48.2526 8.212 47.9446 8.96V16H45.5246V4.494H47.7686V7.068C48.1646 6.276 48.6852 5.64533 49.3306 5.176C49.9759 4.692 50.6579 4.428 51.3766 4.384C51.5232 4.384 51.6406 4.384 51.7286 4.384C51.8312 4.384 51.9192 4.39133 51.9926 4.406V6.584ZM57.6952 16.11C56.9179 16.11 56.2066 15.956 55.5612 15.648C54.9159 15.3253 54.3586 14.8927 53.8892 14.35C53.4346 13.8073 53.0752 13.184 52.8112 12.48C52.5619 11.776 52.4372 11.0353 52.4372 10.258C52.4372 9.43667 52.5692 8.66667 52.8332 7.948C53.0972 7.22933 53.4639 6.59867 53.9332 6.056C54.4172 5.49867 54.9819 5.066 55.6272 4.758C56.2726 4.45 56.9912 4.296 57.7832 4.296C58.7072 4.296 59.5139 4.516 60.2032 4.956C60.9072 5.396 61.4866 5.968 61.9412 6.672V4.494H64.0752V15.67C64.0752 16.7847 63.8039 17.7307 63.2612 18.508C62.7332 19.2853 62.0072 19.8793 61.0832 20.29C60.1592 20.7007 59.1179 20.906 57.9592 20.906C56.6832 20.906 55.6272 20.686 54.7912 20.246C53.9552 19.806 53.2439 19.2047 52.6572 18.442L54.0212 17.166C54.4612 17.782 55.0259 18.2513 55.7152 18.574C56.4192 18.8967 57.1672 19.058 57.9592 19.058C58.6192 19.058 59.2279 18.9333 59.7852 18.684C60.3572 18.4493 60.8119 18.0753 61.1492 17.562C61.4866 17.0633 61.6552 16.4327 61.6552 15.67V13.91C61.2446 14.5993 60.6799 15.142 59.9612 15.538C59.2426 15.9193 58.4872 16.11 57.6952 16.11ZM58.4872 14.152C58.8539 14.152 59.2059 14.0933 59.5432 13.976C59.8806 13.844 60.1886 13.6753 60.4672 13.47C60.7606 13.25 61.0099 13.008 61.2152 12.744C61.4206 12.4653 61.5672 12.172 61.6552 11.864V8.85C61.4646 8.35133 61.1932 7.91867 60.8412 7.552C60.4892 7.17067 60.0932 6.87733 59.6532 6.672C59.2132 6.46667 58.7659 6.364 58.3112 6.364C57.7832 6.364 57.3066 6.48133 56.8812 6.716C56.4706 6.936 56.1186 7.23667 55.8252 7.618C55.5319 7.98467 55.3046 8.40267 55.1432 8.872C54.9819 9.34133 54.9012 9.82533 54.9012 10.324C54.9012 10.852 54.9892 11.3433 55.1652 11.798C55.3559 12.2527 55.6126 12.6633 55.9352 13.03C56.2579 13.382 56.6392 13.6607 57.0792 13.866C57.5192 14.0567 57.9886 14.152 58.4872 14.152ZM71.7512 16.22C70.8565 16.22 70.0425 16.066 69.3092 15.758C68.5905 15.4353 67.9672 15.0027 67.4392 14.46C66.9112 13.9027 66.5005 13.272 66.2072 12.568C65.9285 11.8493 65.7892 11.0867 65.7892 10.28C65.7892 9.19467 66.0385 8.20467 66.5372 7.31C67.0358 6.40067 67.7325 5.67467 68.6272 5.132C69.5218 4.57467 70.5705 4.296 71.7732 4.296C72.9758 4.296 74.0098 4.57467 74.8752 5.132C75.7552 5.67467 76.4372 6.39333 76.9212 7.288C77.4052 8.18267 77.6472 9.14333 77.6472 10.17C77.6472 10.346 77.6398 10.5147 77.6252 10.676C77.6105 10.8227 77.5958 10.9473 77.5812 11.05H68.3632C68.4072 11.7247 68.5905 12.3187 68.9132 12.832C69.2505 13.3307 69.6758 13.7267 70.1892 14.02C70.7025 14.2987 71.2525 14.438 71.8392 14.438C72.4845 14.438 73.0932 14.2767 73.6652 13.954C74.2518 13.6313 74.6478 13.206 74.8532 12.678L76.9212 13.272C76.6718 13.8293 76.2905 14.3353 75.7772 14.79C75.2785 15.23 74.6845 15.582 73.9952 15.846C73.3058 16.0953 72.5578 16.22 71.7512 16.22ZM68.2972 9.444H75.2492C75.2052 8.784 75.0145 8.20467 74.6772 7.706C74.3545 7.19267 73.9365 6.79667 73.4232 6.518C72.9245 6.22467 72.3672 6.078 71.7512 6.078C71.1498 6.078 70.5925 6.22467 70.0792 6.518C69.5805 6.79667 69.1698 7.19267 68.8472 7.706C68.5245 8.20467 68.3412 8.784 68.2972 9.444ZM89.4991 16H87.0791V9.554C87.0791 8.48333 86.9031 7.69867 86.5511 7.2C86.2138 6.70133 85.7078 6.452 85.0331 6.452C84.5638 6.452 84.0945 6.56933 83.6251 6.804C83.1705 7.03867 82.7598 7.36133 82.3931 7.772C82.0265 8.168 81.7625 8.63 81.6011 9.158V16H79.1811V4.494H81.3811V6.804C81.6745 6.29067 82.0558 5.85067 82.5251 5.484C83.0091 5.10267 83.5518 4.80933 84.1531 4.604C84.7545 4.39867 85.3925 4.296 86.0671 4.296C86.7565 4.296 87.3211 4.42067 87.7611 4.67C88.2158 4.91933 88.5678 5.264 88.8171 5.704C89.0811 6.12933 89.2571 6.628 89.3451 7.2C89.4478 7.75733 89.4991 8.35133 89.4991 8.982V16ZM98.1842 15.406C97.9788 15.5087 97.7222 15.6187 97.4142 15.736C97.1062 15.8533 96.7542 15.956 96.3582 16.044C95.9768 16.132 95.5808 16.176 95.1702 16.176C94.6715 16.176 94.2095 16.088 93.7842 15.912C93.3588 15.736 93.0142 15.4573 92.7502 15.076C92.5008 14.68 92.3762 14.174 92.3762 13.558V6.364H90.8582V4.494H92.3762V0.709999H94.7962V4.494H97.3042V6.364H94.7962V12.788C94.8255 13.184 94.9502 13.4773 95.1702 13.668C95.4048 13.8587 95.6908 13.954 96.0282 13.954C96.3655 13.954 96.6882 13.8953 96.9962 13.778C97.3042 13.6607 97.5315 13.5653 97.6782 13.492L98.1842 15.406ZM104.238 0.379999H106.57L112.642 16H110.046L108.396 11.754H102.368L100.74 16H98.1223L104.238 0.379999ZM107.912 9.928L105.404 3.086L102.808 9.928H107.912ZM120.36 16.22C119.436 16.22 118.622 16 117.918 15.56C117.214 15.12 116.657 14.548 116.246 13.844V20.686H113.826V4.494H115.96V6.562C116.4 5.87267 116.972 5.32267 117.676 4.912C118.38 4.50133 119.165 4.296 120.03 4.296C120.822 4.296 121.548 4.45733 122.208 4.78C122.868 5.088 123.44 5.52067 123.924 6.078C124.408 6.63533 124.782 7.27333 125.046 7.992C125.325 8.696 125.464 9.444 125.464 10.236C125.464 11.336 125.244 12.3407 124.804 13.25C124.379 14.1593 123.777 14.8853 123 15.428C122.237 15.956 121.357 16.22 120.36 16.22ZM119.568 14.152C120.081 14.152 120.543 14.042 120.954 13.822C121.379 13.602 121.739 13.3087 122.032 12.942C122.34 12.5753 122.575 12.1573 122.736 11.688C122.897 11.2187 122.978 10.7347 122.978 10.236C122.978 9.708 122.89 9.20933 122.714 8.74C122.538 8.27067 122.281 7.86 121.944 7.508C121.621 7.156 121.24 6.87733 120.8 6.672C120.375 6.46667 119.905 6.364 119.392 6.364C119.084 6.364 118.761 6.42267 118.424 6.54C118.087 6.65733 117.771 6.81867 117.478 7.024C117.185 7.22933 116.928 7.47133 116.708 7.75C116.488 8.02867 116.334 8.322 116.246 8.63V11.644C116.451 12.1133 116.723 12.5387 117.06 12.92C117.397 13.2867 117.786 13.5873 118.226 13.822C118.666 14.042 119.113 14.152 119.568 14.152ZM133.734 16.22C132.81 16.22 131.996 16 131.292 15.56C130.588 15.12 130.031 14.548 129.62 13.844V20.686H127.2V4.494H129.334V6.562C129.774 5.87267 130.346 5.32267 131.05 4.912C131.754 4.50133 132.539 4.296 133.404 4.296C134.196 4.296 134.922 4.45733 135.582 4.78C136.242 5.088 136.814 5.52067 137.298 6.078C137.782 6.63533 138.156 7.27333 138.42 7.992C138.699 8.696 138.838 9.444 138.838 10.236C138.838 11.336 138.618 12.3407 138.178 13.25C137.753 14.1593 137.152 14.8853 136.374 15.428C135.612 15.956 134.732 16.22 133.734 16.22ZM132.942 14.152C133.456 14.152 133.918 14.042 134.328 13.822C134.754 13.602 135.113 13.3087 135.406 12.942C135.714 12.5753 135.949 12.1573 136.11 11.688C136.272 11.2187 136.352 10.7347 136.352 10.236C136.352 9.708 136.264 9.20933 136.088 8.74C135.912 8.27067 135.656 7.86 135.318 7.508C134.996 7.156 134.614 6.87733 134.174 6.672C133.749 6.46667 133.28 6.364 132.766 6.364C132.458 6.364 132.136 6.42267 131.798 6.54C131.461 6.65733 131.146 6.81867 130.852 7.024C130.559 7.22933 130.302 7.47133 130.082 7.75C129.862 8.02867 129.708 8.322 129.62 8.63V11.644C129.826 12.1133 130.097 12.5387 130.434 12.92C130.772 13.2867 131.16 13.5873 131.6 13.822C132.04 14.042 132.488 14.152 132.942 14.152Z" fill="black"/>
</svg>
