<svg width="275" height="318" viewBox="0 0 275 318" fill="none" xmlns="http://www.w3.org/2000/svg">
<path d="M130.532 71.3839C130.79 70.7952 131.636 67.6404 131.891 66.3882C132.453 63.6368 132.352 59.7802 133.961 59.1402C135.086 58.6933 137.376 59.1084 140.947 60.0801C144.086 60.934 148.737 60.8509 149.951 62.9742C150.595 64.102 147.878 76.1371 146.765 76.5804C143.54 77.8624 136.549 75.3506 133.397 74.4929" stroke="white" strokeWidth="4.19994" strokeLinecap="round" stroke-linejoin="round"/>
<path d="M138.744 56.9346C142.011 48.5583 148.386 51.8751 146.44 59.0288" stroke="white" strokeWidth="4.19994" strokeLinecap="round" stroke-linejoin="round"/>
<path d="M140.298 69.7114C140.392 69.3629 140.487 69.0143 140.582 68.6658" stroke="white" strokeWidth="4.19994" strokeLinecap="round" stroke-linejoin="round"/>
<path d="M126.321 90.5213C121.459 84.2793 113.384 56.0771 121.376 44.4318C121.858 43.7291 139.947 41.533 150.204 33.0998C155.241 47.2694 168.74 56.8089 168.815 57.3401C170.613 69.999 144.611 93.9259 133.374 96.1857" stroke="white" strokeWidth="4.19994" strokeLinecap="round" stroke-linejoin="round"/>
<path d="M163.212 145.808C153.664 118.343 184.528 109.674 192.235 138.436" stroke="white" strokeWidth="4.16582" strokeLinecap="round" stroke-linejoin="round"/>
<path d="M162.487 150.708C162.142 152.28 157.34 160.35 159.244 161.848C160.861 163.12 222.276 155.278 193.764 140.717" stroke="white" strokeWidth="4.16582" strokeLinecap="round" stroke-linejoin="round"/>
<path d="M201.69 149.172C186.883 150.83 170.886 156.166 158.916 161.416" stroke="white" strokeWidth="4.16582" strokeLinecap="round" stroke-linejoin="round"/>
<path d="M178.849 155.252C194.371 143.368 188.816 175.479 177.241 164.331C174.586 161.775 175.578 157.752 176.712 154.82" stroke="white" strokeWidth="4.16582" strokeLinecap="round" stroke-linejoin="round"/>
<path d="M166.655 120.098C166.374 115.219 174.269 115.146 173.527 120.427" stroke="white" strokeWidth="4.16582" strokeLinecap="round" stroke-linejoin="round"/>
<path opacity="0.503906" d="M148.547 140.575C148.026 145.337 148.979 150.001 150.181 154.488" stroke="white" strokeWidth="4.16582" strokeLinecap="round" stroke-linejoin="round"/>
<path opacity="0.503906" d="M200.049 125.28C202.995 128.938 203.466 132.812 202.653 137.139" stroke="white" strokeWidth="4.16582" strokeLinecap="round" stroke-linejoin="round"/>
<path opacity="0.503906" d="M207.634 121.155C211.299 126.892 212.138 133.319 211.457 139.863" stroke="white" strokeWidth="4.16582" strokeLinecap="round" stroke-linejoin="round"/>
<path opacity="0.503906" d="M142.549 157.131C139.691 152.938 138.194 147.576 139.543 142.689" stroke="white" strokeWidth="4.16582" strokeLinecap="round" stroke-linejoin="round"/>
<path d="M87.4234 156.393C74.716 144.348 59.4526 105.905 85.6673 99.4078C100.329 95.7748 108.513 112.707 105.135 124.987C102.278 135.368 94.6168 144.308 89.8389 153.782" stroke="white" strokeWidth="4.04" strokeLinecap="round" stroke-linejoin="round"/>
<path d="M83.2246 116.356C97.8172 107.574 96.1513 128.541 86.1634 125.928C83.2246 125.159 82.6094 123.608 82.6094 120.886" stroke="white" strokeWidth="4.04" strokeLinecap="round" stroke-linejoin="round"/>
<path d="M74.5937 152.406C37.0641 166.007 94.0833 173.265 106.491 163.588C115.782 156.341 105.624 152.406 98.3942 152.406" stroke="white" strokeWidth="4.04" strokeLinecap="round" stroke-linejoin="round"/>
<path d="M51.1178 210.5C50.985 210.094 50.8099 209.729 50.5926 209.407C50.3793 209.081 50.1237 208.804 49.8259 208.574C49.5321 208.345 49.1981 208.17 48.8238 208.049C48.4495 207.928 48.039 207.868 47.5922 207.868C46.8598 207.868 46.1937 208.057 45.594 208.435C44.9943 208.814 44.5174 209.371 44.1633 210.108C43.8091 210.844 43.632 211.748 43.632 212.818C43.632 213.889 43.8111 214.792 44.1693 215.529C44.5275 216.265 45.0125 216.823 45.6242 217.201C46.2359 217.579 46.9242 217.768 47.6888 217.768C48.3972 217.768 49.021 217.618 49.5603 217.316C50.1036 217.01 50.5262 216.579 50.828 216.024C51.1339 215.464 51.2868 214.806 51.2868 214.05L51.7457 214.146H48.0269V212.818H52.7357V214.146C52.7357 215.165 52.5184 216.05 52.0837 216.803C51.6531 217.555 51.0574 218.139 50.2968 218.553C49.5402 218.964 48.6708 219.169 47.6888 219.169C46.5941 219.169 45.6323 218.911 44.8032 218.396C43.9781 217.881 43.3342 217.149 42.8714 216.199C42.4126 215.249 42.1831 214.122 42.1831 212.818C42.1831 211.84 42.314 210.961 42.5756 210.18C42.8412 209.395 43.2155 208.727 43.6984 208.176C44.1814 207.624 44.7529 207.202 45.4129 206.908C46.0729 206.614 46.7994 206.467 47.5922 206.467C48.2442 206.467 48.8519 206.566 49.4154 206.763C49.9829 206.956 50.488 207.232 50.9307 207.59C51.3774 207.944 51.7497 208.369 52.0475 208.864C52.3453 209.355 52.5506 209.9 52.6633 210.5H51.1178ZM55.1067 219V209.727H56.4831V211.128H56.5797C56.7488 210.669 57.0546 210.297 57.4973 210.011C57.94 209.725 58.4391 209.582 58.9945 209.582C59.0991 209.582 59.2299 209.584 59.3869 209.588C59.5439 209.592 59.6626 209.598 59.7431 209.607V211.055C59.6948 211.043 59.5841 211.025 59.411 211.001C59.242 210.973 59.0629 210.959 58.8738 210.959C58.423 210.959 58.0205 211.053 57.6664 211.243C57.3162 211.428 57.0385 211.685 56.8333 212.015C56.632 212.341 56.5314 212.714 56.5314 213.132V219H55.1067ZM64.1606 219.217C63.573 219.217 63.0397 219.107 62.5608 218.885C62.0819 218.66 61.7016 218.336 61.4198 217.913C61.1381 217.487 60.9972 216.972 60.9972 216.368C60.9972 215.837 61.1019 215.406 61.3112 215.076C61.5204 214.742 61.8002 214.48 62.1503 214.291C62.5004 214.102 62.8868 213.961 63.3094 213.869C63.736 213.772 64.1646 213.696 64.5953 213.639C65.1587 213.567 65.6155 213.512 65.9656 213.476C66.3198 213.436 66.5774 213.37 66.7384 213.277C66.9034 213.184 66.9859 213.023 66.9859 212.794V212.746C66.9859 212.15 66.8229 211.687 66.4969 211.357C66.1749 211.027 65.6859 210.862 65.0299 210.862C64.3498 210.862 63.8165 211.011 63.4301 211.309C63.0438 211.607 62.7721 211.925 62.6151 212.263L61.2629 211.78C61.5044 211.216 61.8263 210.778 62.2288 210.464C62.6353 210.146 63.078 209.924 63.5569 209.8C64.0399 209.671 64.5148 209.607 64.9816 209.607C65.2794 209.607 65.6215 209.643 66.0079 209.715C66.3983 209.784 66.7746 209.926 67.1368 210.144C67.503 210.361 67.8069 210.689 68.0484 211.128C68.2899 211.567 68.4106 212.154 68.4106 212.891V219H66.9859V217.744H66.9134C66.8169 217.946 66.6559 218.161 66.4305 218.39C66.2051 218.62 65.9053 218.815 65.531 218.976C65.1567 219.137 64.6999 219.217 64.1606 219.217ZM64.3779 217.938C64.9414 217.938 65.4163 217.827 65.8026 217.605C66.193 217.384 66.4868 217.098 66.684 216.748C66.8853 216.398 66.9859 216.03 66.9859 215.643V214.339C66.9255 214.412 66.7927 214.478 66.5874 214.539C66.3862 214.595 66.1528 214.645 65.8872 214.69C65.6256 214.73 65.37 214.766 65.1205 214.798C64.875 214.826 64.6758 214.851 64.5228 214.871C64.1526 214.919 63.8064 214.998 63.4845 215.106C63.1665 215.211 62.9089 215.37 62.7117 215.583C62.5186 215.792 62.422 216.078 62.422 216.44C62.422 216.935 62.6051 217.31 62.9713 217.563C63.3416 217.813 63.8105 217.938 64.3779 217.938ZM74.7781 219.193C73.9087 219.193 73.1602 218.988 72.5323 218.577C71.9045 218.167 71.4215 217.601 71.0835 216.881C70.7454 216.161 70.5763 215.338 70.5763 214.412C70.5763 213.47 70.7494 212.639 71.0955 211.919C71.4457 211.194 71.9326 210.629 72.5565 210.222C73.1843 209.812 73.9168 209.607 74.7539 209.607C75.4059 209.607 75.9935 209.727 76.5167 209.969C77.0399 210.21 77.4685 210.548 77.8026 210.983C78.1366 211.418 78.3439 211.925 78.4244 212.504H76.9996C76.891 212.082 76.6495 211.707 76.2752 211.381C75.9049 211.051 75.4059 210.886 74.7781 210.886C74.2227 210.886 73.7357 211.031 73.3171 211.321C72.9026 211.607 72.5786 212.011 72.3452 212.534C72.1158 213.054 72.0011 213.663 72.0011 214.364C72.0011 215.08 72.1138 215.704 72.3391 216.235C72.5685 216.766 72.8905 217.179 73.305 217.473C73.7236 217.766 74.2146 217.913 74.7781 217.913C75.1483 217.913 75.4844 217.849 75.7862 217.72C76.0881 217.591 76.3436 217.406 76.5529 217.165C76.7622 216.923 76.9111 216.634 76.9996 216.295H78.4244C78.3439 216.843 78.1446 217.336 77.8267 217.775C77.5128 218.209 77.0962 218.555 76.5771 218.813C76.0619 219.066 75.4622 219.193 74.7781 219.193ZM80.5071 219V209.727H81.9318V219H80.5071ZM81.2315 208.182C80.9538 208.182 80.7144 208.087 80.5131 207.898C80.3159 207.709 80.2173 207.482 80.2173 207.216C80.2173 206.95 80.3159 206.723 80.5131 206.534C80.7144 206.345 80.9538 206.25 81.2315 206.25C81.5092 206.25 81.7467 206.345 81.9439 206.534C82.1451 206.723 82.2457 206.95 82.2457 207.216C82.2457 207.482 82.1451 207.709 81.9439 207.898C81.7467 208.087 81.5092 208.182 81.2315 208.182ZM87.27 219.217C86.6824 219.217 86.1491 219.107 85.6702 218.885C85.1913 218.66 84.8109 218.336 84.5292 217.913C84.2475 217.487 84.1066 216.972 84.1066 216.368C84.1066 215.837 84.2113 215.406 84.4205 215.076C84.6298 214.742 84.9095 214.48 85.2597 214.291C85.6098 214.102 85.9962 213.961 86.4188 213.869C86.8454 213.772 87.274 213.696 87.7046 213.639C88.2681 213.567 88.7249 213.512 89.075 213.476C89.4292 213.436 89.6868 213.37 89.8477 213.277C90.0128 213.184 90.0953 213.023 90.0953 212.794V212.746C90.0953 212.15 89.9323 211.687 89.6063 211.357C89.2843 211.027 88.7953 210.862 88.1393 210.862C87.4591 210.862 86.9259 211.011 86.5395 211.309C86.1531 211.607 85.8815 211.925 85.7245 212.263L84.3722 211.78C84.6137 211.216 84.9357 210.778 85.3382 210.464C85.7446 210.146 86.1874 209.924 86.6663 209.8C87.1492 209.671 87.6241 209.607 88.091 209.607C88.3888 209.607 88.7309 209.643 89.1173 209.715C89.5077 209.784 89.884 209.926 90.2462 210.144C90.6124 210.361 90.9163 210.689 91.1578 211.128C91.3992 211.567 91.52 212.154 91.52 212.891V219H90.0953V217.744H90.0228C89.9262 217.946 89.7652 218.161 89.5399 218.39C89.3145 218.62 89.0146 218.815 88.6404 218.976C88.2661 219.137 87.8093 219.217 87.27 219.217ZM87.4873 217.938C88.0508 217.938 88.5257 217.827 88.912 217.605C89.3024 217.384 89.5962 217.098 89.7934 216.748C89.9946 216.398 90.0953 216.03 90.0953 215.643V214.339C90.0349 214.412 89.9021 214.478 89.6968 214.539C89.4956 214.595 89.2622 214.645 88.9965 214.69C88.7349 214.73 88.4794 214.766 88.2298 214.798C87.9843 214.826 87.7851 214.851 87.6322 214.871C87.2619 214.919 86.9158 214.998 86.5938 215.106C86.2759 215.211 86.0183 215.37 85.8211 215.583C85.6279 215.792 85.5313 216.078 85.5313 216.44C85.5313 216.935 85.7145 217.31 86.0807 217.563C86.451 217.813 86.9198 217.938 87.4873 217.938ZM100.689 211.804L99.4087 212.166C99.3282 211.953 99.2095 211.746 99.0526 211.544C98.8996 211.339 98.6903 211.17 98.4247 211.037C98.1591 210.904 97.819 210.838 97.4045 210.838C96.837 210.838 96.3641 210.969 95.9858 211.23C95.6115 211.488 95.4244 211.816 95.4244 212.214C95.4244 212.569 95.5531 212.848 95.8107 213.054C96.0683 213.259 96.4708 213.43 97.0181 213.567L98.3945 213.905C99.2236 214.106 99.8414 214.414 100.248 214.828C100.654 215.239 100.858 215.768 100.858 216.416C100.858 216.947 100.705 217.422 100.399 217.841C100.097 218.259 99.6744 218.589 99.131 218.831C98.5877 219.072 97.9558 219.193 97.2354 219.193C96.2897 219.193 95.5069 218.988 94.8871 218.577C94.2673 218.167 93.8749 217.567 93.7099 216.778L95.0621 216.44C95.1909 216.939 95.4344 217.314 95.7926 217.563C96.1548 217.813 96.6277 217.938 97.2113 217.938C97.8754 217.938 98.4026 217.797 98.793 217.515C99.1874 217.229 99.3846 216.887 99.3846 216.489C99.3846 216.167 99.2719 215.897 99.0465 215.68C98.8211 215.458 98.475 215.293 98.0082 215.185L96.4627 214.822C95.6135 214.621 94.9897 214.309 94.5913 213.887C94.1969 213.46 93.9996 212.927 93.9996 212.287C93.9996 211.764 94.1465 211.301 94.4403 210.898C94.7382 210.496 95.1426 210.18 95.6538 209.951C96.1689 209.721 96.7525 209.607 97.4045 209.607C98.3221 209.607 99.0425 209.808 99.5657 210.21C100.093 210.613 100.467 211.144 100.689 211.804ZM110.512 219.217C109.925 219.217 109.391 219.107 108.912 218.885C108.433 218.66 108.053 218.336 107.771 217.913C107.49 217.487 107.349 216.972 107.349 216.368C107.349 215.837 107.453 215.406 107.663 215.076C107.872 214.742 108.152 214.48 108.502 214.291C108.852 214.102 109.238 213.961 109.661 213.869C110.088 213.772 110.516 213.696 110.947 213.639C111.51 213.567 111.967 213.512 112.317 213.476C112.671 213.436 112.929 213.37 113.09 213.277C113.255 213.184 113.337 213.023 113.337 212.794V212.746C113.337 212.15 113.174 211.687 112.848 211.357C112.526 211.027 112.037 210.862 111.381 210.862C110.701 210.862 110.168 211.011 109.782 211.309C109.395 211.607 109.124 211.925 108.967 212.263L107.614 211.78C107.856 211.216 108.178 210.778 108.58 210.464C108.987 210.146 109.43 209.924 109.908 209.8C110.391 209.671 110.866 209.607 111.333 209.607C111.631 209.607 111.973 209.643 112.359 209.715C112.75 209.784 113.126 209.926 113.488 210.144C113.855 210.361 114.158 210.689 114.4 211.128C114.641 211.567 114.762 212.154 114.762 212.891V219H113.337V217.744H113.265C113.168 217.946 113.007 218.161 112.782 218.39C112.557 218.62 112.257 218.815 111.883 218.976C111.508 219.137 111.051 219.217 110.512 219.217ZM110.729 217.938C111.293 217.938 111.768 217.827 112.154 217.605C112.545 217.384 112.838 217.098 113.036 216.748C113.237 216.398 113.337 216.03 113.337 215.643V214.339C113.277 214.412 113.144 214.478 112.939 214.539C112.738 214.595 112.504 214.645 112.239 214.69C111.977 214.73 111.722 214.766 111.472 214.798C111.227 214.826 111.027 214.851 110.874 214.871C110.504 214.919 110.158 214.998 109.836 215.106C109.518 215.211 109.261 215.37 109.063 215.583C108.87 215.792 108.774 216.078 108.774 216.44C108.774 216.935 108.957 217.31 109.323 217.563C109.693 217.813 110.162 217.938 110.729 217.938ZM123.569 206.636V219H122.144V206.636H123.569ZM128.907 219.217C128.319 219.217 127.786 219.107 127.307 218.885C126.828 218.66 126.448 218.336 126.166 217.913C125.884 217.487 125.743 216.972 125.743 216.368C125.743 215.837 125.848 215.406 126.057 215.076C126.267 214.742 126.546 214.48 126.896 214.291C127.247 214.102 127.633 213.961 128.055 213.869C128.482 213.772 128.911 213.696 129.341 213.639C129.905 213.567 130.362 213.512 130.712 213.476C131.066 213.436 131.323 213.37 131.484 213.277C131.649 213.184 131.732 213.023 131.732 212.794V212.746C131.732 212.15 131.569 211.687 131.243 211.357C130.921 211.027 130.432 210.862 129.776 210.862C129.096 210.862 128.563 211.011 128.176 211.309C127.79 211.607 127.518 211.925 127.361 212.263L126.009 211.78C126.25 211.216 126.572 210.778 126.975 210.464C127.381 210.146 127.824 209.924 128.303 209.8C128.786 209.671 129.261 209.607 129.728 209.607C130.026 209.607 130.368 209.643 130.754 209.715C131.144 209.784 131.521 209.926 131.883 210.144C132.249 210.361 132.553 210.689 132.794 211.128C133.036 211.567 133.157 212.154 133.157 212.891V219H131.732V217.744H131.66C131.563 217.946 131.402 218.161 131.177 218.39C130.951 218.62 130.651 218.815 130.277 218.976C129.903 219.137 129.446 219.217 128.907 219.217ZM129.124 217.938C129.687 217.938 130.162 217.827 130.549 217.605C130.939 217.384 131.233 217.098 131.43 216.748C131.631 216.398 131.732 216.03 131.732 215.643V214.339C131.672 214.412 131.539 214.478 131.334 214.539C131.132 214.595 130.899 214.645 130.633 214.69C130.372 214.73 130.116 214.766 129.867 214.798C129.621 214.826 129.422 214.851 129.269 214.871C128.899 214.919 128.553 214.998 128.231 215.106C127.913 215.211 127.655 215.37 127.458 215.583C127.265 215.792 127.168 216.078 127.168 216.44C127.168 216.935 127.351 217.31 127.717 217.563C128.088 217.813 128.557 217.938 129.124 217.938ZM143.267 219.217C142.679 219.217 142.146 219.107 141.667 218.885C141.188 218.66 140.808 218.336 140.526 217.913C140.245 217.487 140.104 216.972 140.104 216.368C140.104 215.837 140.208 215.406 140.418 215.076C140.627 214.742 140.907 214.48 141.257 214.291C141.607 214.102 141.993 213.961 142.416 213.869C142.842 213.772 143.271 213.696 143.702 213.639C144.265 213.567 144.722 213.512 145.072 213.476C145.426 213.436 145.684 213.37 145.845 213.277C146.01 213.184 146.092 213.023 146.092 212.794V212.746C146.092 212.15 145.929 211.687 145.603 211.357C145.281 211.027 144.792 210.862 144.136 210.862C143.456 210.862 142.923 211.011 142.537 211.309C142.15 211.607 141.879 211.925 141.722 212.263L140.369 211.78C140.611 211.216 140.933 210.778 141.335 210.464C141.742 210.146 142.184 209.924 142.663 209.8C143.146 209.671 143.621 209.607 144.088 209.607C144.386 209.607 144.728 209.643 145.114 209.715C145.505 209.784 145.881 209.926 146.243 210.144C146.609 210.361 146.913 210.689 147.155 211.128C147.396 211.567 147.517 212.154 147.517 212.891V219H146.092V217.744H146.02C145.923 217.946 145.762 218.161 145.537 218.39C145.312 218.62 145.012 218.815 144.637 218.976C144.263 219.137 143.806 219.217 143.267 219.217ZM143.484 217.938C144.048 217.938 144.523 217.827 144.909 217.605C145.299 217.384 145.593 217.098 145.79 216.748C145.992 216.398 146.092 216.03 146.092 215.643V214.339C146.032 214.412 145.899 214.478 145.694 214.539C145.493 214.595 145.259 214.645 144.994 214.69C144.732 214.73 144.476 214.766 144.227 214.798C143.981 214.826 143.782 214.851 143.629 214.871C143.259 214.919 142.913 214.998 142.591 215.106C142.273 215.211 142.015 215.37 141.818 215.583C141.625 215.792 141.528 216.078 141.528 216.44C141.528 216.935 141.712 217.31 142.078 217.563C142.448 217.813 142.917 217.938 143.484 217.938ZM150.117 222.477V209.727H151.494V211.2H151.663C151.768 211.039 151.912 210.834 152.098 210.585C152.287 210.331 152.556 210.106 152.907 209.908C153.261 209.707 153.74 209.607 154.343 209.607C155.124 209.607 155.812 209.802 156.408 210.192C157.004 210.583 157.468 211.136 157.802 211.852C158.137 212.569 158.304 213.414 158.304 214.388C158.304 215.37 158.137 216.221 157.802 216.941C157.468 217.658 157.006 218.213 156.414 218.608C155.822 218.998 155.14 219.193 154.367 219.193C153.772 219.193 153.295 219.095 152.937 218.897C152.579 218.696 152.303 218.469 152.11 218.215C151.916 217.958 151.768 217.744 151.663 217.575H151.542V222.477H150.117ZM151.518 214.364C151.518 215.064 151.621 215.682 151.826 216.217C152.031 216.748 152.331 217.165 152.725 217.467C153.12 217.764 153.603 217.913 154.174 217.913C154.77 217.913 155.267 217.756 155.665 217.442C156.068 217.125 156.37 216.698 156.571 216.163C156.776 215.623 156.879 215.024 156.879 214.364C156.879 213.712 156.778 213.124 156.577 212.601C156.38 212.074 156.08 211.657 155.677 211.351C155.279 211.041 154.778 210.886 154.174 210.886C153.595 210.886 153.108 211.033 152.713 211.327C152.319 211.617 152.021 212.023 151.82 212.547C151.619 213.066 151.518 213.671 151.518 214.364ZM160.477 222.477V209.727H161.853V211.2H162.022C162.127 211.039 162.272 210.834 162.457 210.585C162.646 210.331 162.916 210.106 163.266 209.908C163.62 209.707 164.099 209.607 164.703 209.607C165.483 209.607 166.172 209.802 166.767 210.192C167.363 210.583 167.828 211.136 168.162 211.852C168.496 212.569 168.663 213.414 168.663 214.388C168.663 215.37 168.496 216.221 168.162 216.941C167.828 217.658 167.365 218.213 166.773 218.608C166.182 218.998 165.5 219.193 164.727 219.193C164.131 219.193 163.654 219.095 163.296 218.897C162.938 218.696 162.662 218.469 162.469 218.215C162.276 217.958 162.127 217.744 162.022 217.575H161.902V222.477H160.477ZM161.877 214.364C161.877 215.064 161.98 215.682 162.185 216.217C162.391 216.748 162.69 217.165 163.085 217.467C163.479 217.764 163.962 217.913 164.534 217.913C165.129 217.913 165.626 217.756 166.025 217.442C166.427 217.125 166.729 216.698 166.93 216.163C167.136 215.623 167.238 215.024 167.238 214.364C167.238 213.712 167.138 213.124 166.936 212.601C166.739 212.074 166.439 211.657 166.037 211.351C165.638 211.041 165.137 210.886 164.534 210.886C163.954 210.886 163.467 211.033 163.073 211.327C162.678 211.617 162.38 212.023 162.179 212.547C161.978 213.066 161.877 213.671 161.877 214.364ZM175.617 222.477V209.727H176.994V211.2H177.163C177.268 211.039 177.412 210.834 177.598 210.585C177.787 210.331 178.056 210.106 178.407 209.908C178.761 209.707 179.24 209.607 179.843 209.607C180.624 209.607 181.312 209.802 181.908 210.192C182.504 210.583 182.968 211.136 183.302 211.852C183.637 212.569 183.804 213.414 183.804 214.388C183.804 215.37 183.637 216.221 183.302 216.941C182.968 217.658 182.506 218.213 181.914 218.608C181.322 218.998 180.64 219.193 179.867 219.193C179.272 219.193 178.795 219.095 178.437 218.897C178.079 218.696 177.803 218.469 177.61 218.215C177.416 217.958 177.268 217.744 177.163 217.575H177.042V222.477H175.617ZM177.018 214.364C177.018 215.064 177.121 215.682 177.326 216.217C177.531 216.748 177.831 217.165 178.225 217.467C178.62 217.764 179.103 217.913 179.674 217.913C180.27 217.913 180.767 217.756 181.165 217.442C181.568 217.125 181.87 216.698 182.071 216.163C182.276 215.623 182.379 215.024 182.379 214.364C182.379 213.712 182.278 213.124 182.077 212.601C181.88 212.074 181.58 211.657 181.177 211.351C180.779 211.041 180.278 210.886 179.674 210.886C179.095 210.886 178.608 211.033 178.213 211.327C177.819 211.617 177.521 212.023 177.32 212.547C177.119 213.066 177.018 213.671 177.018 214.364ZM191.821 215.209V209.727H193.245V219H191.821V217.43H191.724C191.507 217.901 191.169 218.302 190.71 218.632C190.251 218.958 189.671 219.121 188.971 219.121C188.392 219.121 187.876 218.994 187.426 218.74C186.975 218.483 186.621 218.096 186.363 217.581C186.106 217.062 185.977 216.408 185.977 215.619V209.727H187.402V215.523C187.402 216.199 187.591 216.738 187.969 217.141C188.351 217.543 188.838 217.744 189.43 217.744C189.784 217.744 190.144 217.654 190.511 217.473C190.881 217.292 191.191 217.014 191.44 216.64C191.694 216.265 191.821 215.788 191.821 215.209ZM199.743 219.193C198.849 219.193 198.078 218.996 197.43 218.602C196.786 218.203 196.289 217.648 195.939 216.935C195.593 216.219 195.42 215.386 195.42 214.436C195.42 213.486 195.593 212.649 195.939 211.925C196.289 211.196 196.776 210.629 197.4 210.222C198.028 209.812 198.761 209.607 199.598 209.607C200.081 209.607 200.558 209.687 201.028 209.848C201.499 210.009 201.928 210.271 202.314 210.633C202.701 210.991 203.009 211.466 203.238 212.058C203.467 212.649 203.582 213.378 203.582 214.243V214.847H196.434V213.615H202.133C202.133 213.092 202.029 212.625 201.819 212.214C201.614 211.804 201.32 211.48 200.938 211.243C200.56 211.005 200.113 210.886 199.598 210.886C199.03 210.886 198.539 211.027 198.125 211.309C197.714 211.587 197.398 211.949 197.177 212.396C196.955 212.842 196.845 213.321 196.845 213.832V214.653C196.845 215.354 196.966 215.947 197.207 216.434C197.453 216.917 197.793 217.286 198.227 217.539C198.662 217.789 199.167 217.913 199.743 217.913C200.117 217.913 200.455 217.861 200.757 217.756C201.063 217.648 201.326 217.487 201.548 217.273C201.769 217.056 201.94 216.786 202.061 216.464L203.437 216.851C203.292 217.318 203.049 217.728 202.707 218.082C202.365 218.433 201.942 218.706 201.439 218.903C200.936 219.097 200.37 219.193 199.743 219.193ZM209.251 219.193C208.478 219.193 207.796 218.998 207.204 218.608C206.613 218.213 206.15 217.658 205.816 216.941C205.482 216.221 205.315 215.37 205.315 214.388C205.315 213.414 205.482 212.569 205.816 211.852C206.15 211.136 206.615 210.583 207.21 210.192C207.806 209.802 208.494 209.607 209.275 209.607C209.879 209.607 210.355 209.707 210.706 209.908C211.06 210.106 211.329 210.331 211.515 210.585C211.704 210.834 211.851 211.039 211.955 211.2H212.076V206.636H213.501V219H212.124V217.575H211.955C211.851 217.744 211.702 217.958 211.509 218.215C211.315 218.469 211.04 218.696 210.681 218.897C210.323 219.095 209.846 219.193 209.251 219.193ZM209.444 217.913C210.015 217.913 210.498 217.764 210.893 217.467C211.287 217.165 211.587 216.748 211.792 216.217C211.998 215.682 212.1 215.064 212.1 214.364C212.1 213.671 212 213.066 211.798 212.547C211.597 212.023 211.299 211.617 210.905 211.327C210.51 211.033 210.023 210.886 209.444 210.886C208.84 210.886 208.337 211.041 207.935 211.351C207.536 211.657 207.236 212.074 207.035 212.601C206.838 213.124 206.739 213.712 206.739 214.364C206.739 215.024 206.84 215.623 207.041 216.163C207.246 216.698 207.548 217.125 207.947 217.442C208.349 217.756 208.848 217.913 209.444 217.913ZM220.196 219.193C219.302 219.193 218.531 218.996 217.884 218.602C217.24 218.203 216.743 217.648 216.392 216.935C216.046 216.219 215.873 215.386 215.873 214.436C215.873 213.486 216.046 212.649 216.392 211.925C216.743 211.196 217.23 210.629 217.853 210.222C218.481 209.812 219.214 209.607 220.051 209.607C220.534 209.607 221.011 209.687 221.482 209.848C221.952 210.009 222.381 210.271 222.767 210.633C223.154 210.991 223.462 211.466 223.691 212.058C223.92 212.649 224.035 213.378 224.035 214.243V214.847H216.887V213.615H222.586C222.586 213.092 222.482 212.625 222.272 212.214C222.067 211.804 221.773 211.48 221.391 211.243C221.013 211.005 220.566 210.886 220.051 210.886C219.483 210.886 218.992 211.027 218.578 211.309C218.167 211.587 217.851 211.949 217.63 212.396C217.409 212.842 217.298 213.321 217.298 213.832V214.653C217.298 215.354 217.419 215.947 217.66 216.434C217.906 216.917 218.246 217.286 218.68 217.539C219.115 217.789 219.62 217.913 220.196 217.913C220.57 217.913 220.908 217.861 221.21 217.756C221.516 217.648 221.779 217.487 222.001 217.273C222.222 217.056 222.393 216.786 222.514 216.464L223.89 216.851C223.745 217.318 223.502 217.728 223.16 218.082C222.818 218.433 222.395 218.706 221.892 218.903C221.389 219.097 220.824 219.193 220.196 219.193ZM232.771 211.804L231.491 212.166C231.41 211.953 231.292 211.746 231.135 211.544C230.982 211.339 230.772 211.17 230.507 211.037C230.241 210.904 229.901 210.838 229.487 210.838C228.919 210.838 228.446 210.969 228.068 211.23C227.694 211.488 227.506 211.816 227.506 212.214C227.506 212.569 227.635 212.848 227.893 213.054C228.15 213.259 228.553 213.43 229.1 213.567L230.477 213.905C231.306 214.106 231.923 214.414 232.33 214.828C232.736 215.239 232.94 215.768 232.94 216.416C232.94 216.947 232.787 217.422 232.481 217.841C232.179 218.259 231.756 218.589 231.213 218.831C230.67 219.072 230.038 219.193 229.317 219.193C228.372 219.193 227.589 218.988 226.969 218.577C226.349 218.167 225.957 217.567 225.792 216.778L227.144 216.44C227.273 216.939 227.516 217.314 227.875 217.563C228.237 217.813 228.71 217.938 229.293 217.938C229.957 217.938 230.485 217.797 230.875 217.515C231.269 217.229 231.467 216.887 231.467 216.489C231.467 216.167 231.354 215.897 231.129 215.68C230.903 215.458 230.557 215.293 230.09 215.185L228.545 214.822C227.696 214.621 227.072 214.309 226.673 213.887C226.279 213.46 226.082 212.927 226.082 212.287C226.082 211.764 226.229 211.301 226.522 210.898C226.82 210.496 227.225 210.18 227.736 209.951C228.251 209.721 228.835 209.607 229.487 209.607C230.404 209.607 231.125 209.808 231.648 210.21C232.175 210.613 232.549 211.144 232.771 211.804ZM63.0898 240.217C62.5022 240.217 61.9689 240.107 61.49 239.885C61.0111 239.66 60.6308 239.336 60.349 238.913C60.0673 238.487 59.9264 237.972 59.9264 237.368C59.9264 236.837 60.0311 236.406 60.2404 236.076C60.4496 235.742 60.7294 235.48 61.0795 235.291C61.4296 235.102 61.816 234.961 62.2386 234.869C62.6652 234.772 63.0938 234.696 63.5245 234.639C64.0879 234.567 64.5447 234.512 64.8948 234.476C65.249 234.436 65.5066 234.37 65.6676 234.277C65.8326 234.184 65.9151 234.023 65.9151 233.794V233.746C65.9151 233.15 65.7521 232.687 65.4261 232.357C65.1041 232.027 64.6151 231.862 63.9591 231.862C63.279 231.862 62.7457 232.011 62.3593 232.309C61.973 232.607 61.7013 232.925 61.5443 233.263L60.1921 232.78C60.4335 232.216 60.7555 231.778 61.158 231.464C61.5645 231.146 62.0072 230.924 62.4861 230.8C62.9691 230.671 63.444 230.607 63.9108 230.607C64.2086 230.607 64.5507 230.643 64.9371 230.715C65.3275 230.784 65.7038 230.926 66.066 231.144C66.4322 231.361 66.7361 231.689 66.9776 232.128C67.2191 232.567 67.3398 233.154 67.3398 233.891V240H65.9151V238.744H65.8426C65.746 238.946 65.5851 239.161 65.3597 239.39C65.1343 239.62 64.8345 239.815 64.4602 239.976C64.0859 240.137 63.6291 240.217 63.0898 240.217ZM63.3071 238.938C63.8706 238.938 64.3455 238.827 64.7318 238.605C65.1222 238.384 65.416 238.098 65.6132 237.748C65.8145 237.398 65.9151 237.03 65.9151 236.643V235.339C65.8547 235.412 65.7219 235.478 65.5166 235.539C65.3154 235.595 65.082 235.645 64.8164 235.69C64.5548 235.73 64.2992 235.766 64.0497 235.798C63.8042 235.826 63.605 235.851 63.452 235.871C63.0818 235.919 62.7356 235.998 62.4137 236.106C62.0957 236.211 61.8381 236.37 61.6409 236.583C61.4478 236.792 61.3512 237.078 61.3512 237.44C61.3512 237.935 61.5343 238.31 61.9005 238.563C62.2708 238.813 62.7397 238.938 63.3071 238.938ZM73.7073 240.193C72.8379 240.193 72.0894 239.988 71.4615 239.577C70.8337 239.167 70.3507 238.601 70.0127 237.881C69.6746 237.161 69.5055 236.338 69.5055 235.412C69.5055 234.47 69.6786 233.639 70.0247 232.919C70.3749 232.194 70.8618 231.629 71.4857 231.222C72.1135 230.812 72.846 230.607 73.6831 230.607C74.3351 230.607 74.9227 230.727 75.4459 230.969C75.9691 231.21 76.3977 231.548 76.7318 231.983C77.0658 232.418 77.2731 232.925 77.3536 233.504H75.9288C75.8202 233.082 75.5787 232.707 75.2044 232.381C74.8341 232.051 74.3351 231.886 73.7073 231.886C73.1519 231.886 72.6649 232.031 72.2463 232.321C71.8318 232.607 71.5078 233.011 71.2744 233.534C71.045 234.054 70.9303 234.663 70.9303 235.364C70.9303 236.08 71.043 236.704 71.2683 237.235C71.4977 237.766 71.8197 238.179 72.2342 238.473C72.6528 238.766 73.1438 238.913 73.7073 238.913C74.0775 238.913 74.4136 238.849 74.7154 238.72C75.0173 238.591 75.2728 238.406 75.4821 238.165C75.6914 237.923 75.8403 237.634 75.9288 237.295H77.3536C77.2731 237.843 77.0738 238.336 76.7559 238.775C76.442 239.209 76.0254 239.555 75.5063 239.813C74.9911 240.066 74.3914 240.193 73.7073 240.193ZM83.469 230.727V231.935H78.6636V230.727H83.469ZM80.0641 228.506H81.4889V237.344C81.4889 237.746 81.5472 238.048 81.6639 238.249C81.7847 238.446 81.9376 238.579 82.1227 238.648C82.3119 238.712 82.5111 238.744 82.7204 238.744C82.8774 238.744 83.0061 238.736 83.1068 238.72C83.2074 238.7 83.2879 238.684 83.3482 238.672L83.638 239.952C83.5414 239.988 83.4066 240.024 83.2335 240.06C83.0605 240.101 82.8411 240.121 82.5755 240.121C82.173 240.121 81.7786 240.034 81.3923 239.861C81.0099 239.688 80.692 239.424 80.4384 239.07C80.1889 238.716 80.0641 238.269 80.0641 237.73V228.506ZM91.4558 236.209V230.727H92.8805V240H91.4558V238.43H91.3592C91.1419 238.901 90.8038 239.302 90.345 239.632C89.8862 239.958 89.3067 240.121 88.6064 240.121C88.0269 240.121 87.5117 239.994 87.0609 239.74C86.6102 239.483 86.256 239.096 85.9984 238.581C85.7409 238.062 85.6121 237.408 85.6121 236.619V230.727H87.0368V236.523C87.0368 237.199 87.226 237.738 87.6043 238.141C87.9866 238.543 88.4736 238.744 89.0652 238.744C89.4194 238.744 89.7796 238.654 90.1458 238.473C90.5161 238.292 90.826 238.014 91.0755 237.64C91.3291 237.265 91.4558 236.788 91.4558 236.209ZM98.2187 240.217C97.6311 240.217 97.0978 240.107 96.6189 239.885C96.14 239.66 95.7597 239.336 95.4779 238.913C95.1962 238.487 95.0554 237.972 95.0554 237.368C95.0554 236.837 95.16 236.406 95.3693 236.076C95.5786 235.742 95.8583 235.48 96.2084 235.291C96.5585 235.102 96.9449 234.961 97.3675 234.869C97.7941 234.772 98.2227 234.696 98.6534 234.639C99.2168 234.567 99.6736 234.512 100.024 234.476C100.378 234.436 100.635 234.37 100.796 234.277C100.961 234.184 101.044 234.023 101.044 233.794V233.746C101.044 233.15 100.881 232.687 100.555 232.357C100.233 232.027 99.744 231.862 99.088 231.862C98.4079 231.862 97.8746 232.011 97.4882 232.309C97.1019 232.607 96.8302 232.925 96.6733 233.263L95.321 232.78C95.5625 232.216 95.8844 231.778 96.2869 231.464C96.6934 231.146 97.1361 230.924 97.615 230.8C98.098 230.671 98.5729 230.607 99.0397 230.607C99.3376 230.607 99.6796 230.643 100.066 230.715C100.456 230.784 100.833 230.926 101.195 231.144C101.561 231.361 101.865 231.689 102.106 232.128C102.348 232.567 102.469 233.154 102.469 233.891V240H101.044V238.744H100.972C100.875 238.946 100.714 239.161 100.489 239.39C100.263 239.62 99.9634 239.815 99.5891 239.976C99.2148 240.137 98.758 240.217 98.2187 240.217ZM98.436 238.938C98.9995 238.938 99.4744 238.827 99.8608 238.605C100.251 238.384 100.545 238.098 100.742 237.748C100.943 237.398 101.044 237.03 101.044 236.643V235.339C100.984 235.412 100.851 235.478 100.646 235.539C100.444 235.595 100.211 235.645 99.9453 235.69C99.6837 235.73 99.4281 235.766 99.1786 235.798C98.9331 235.826 98.7339 235.851 98.5809 235.871C98.2107 235.919 97.8645 235.998 97.5426 236.106C97.2246 236.211 96.967 236.37 96.7698 236.583C96.5767 236.792 96.4801 237.078 96.4801 237.44C96.4801 237.935 96.6632 238.31 97.0294 238.563C97.3997 238.813 97.8686 238.938 98.436 238.938ZM105.069 240V230.727H106.446V232.128H106.542C106.711 231.669 107.017 231.297 107.46 231.011C107.902 230.725 108.402 230.582 108.957 230.582C109.062 230.582 109.192 230.584 109.349 230.588C109.506 230.592 109.625 230.598 109.705 230.607V232.055C109.657 232.043 109.547 232.025 109.373 232.001C109.204 231.973 109.025 231.959 108.836 231.959C108.385 231.959 107.983 232.053 107.629 232.243C107.279 232.428 107.001 232.685 106.796 233.015C106.594 233.341 106.494 233.714 106.494 234.132V240H105.069ZM116.176 240V230.727H117.552V232.128H117.649C117.818 231.669 118.123 231.297 118.566 231.011C119.009 230.725 119.508 230.582 120.063 230.582C120.168 230.582 120.299 230.584 120.456 230.588C120.613 230.592 120.731 230.598 120.812 230.607V232.055C120.764 232.043 120.653 232.025 120.48 232.001C120.311 231.973 120.132 231.959 119.943 231.959C119.492 231.959 119.089 232.053 118.735 232.243C118.385 232.428 118.107 232.685 117.902 233.015C117.701 233.341 117.6 233.714 117.6 234.132V240H116.176ZM125.229 240.217C124.642 240.217 124.109 240.107 123.63 239.885C123.151 239.66 122.77 239.336 122.489 238.913C122.207 238.487 122.066 237.972 122.066 237.368C122.066 236.837 122.171 236.406 122.38 236.076C122.589 235.742 122.869 235.48 123.219 235.291C123.569 235.102 123.956 234.961 124.378 234.869C124.805 234.772 125.233 234.696 125.664 234.639C126.228 234.567 126.684 234.512 127.034 234.476C127.389 234.436 127.646 234.37 127.807 234.277C127.972 234.184 128.055 234.023 128.055 233.794V233.746C128.055 233.15 127.892 232.687 127.566 232.357C127.244 232.027 126.755 231.862 126.099 231.862C125.419 231.862 124.885 232.011 124.499 232.309C124.113 232.607 123.841 232.925 123.684 233.263L122.332 232.78C122.573 232.216 122.895 231.778 123.298 231.464C123.704 231.146 124.147 230.924 124.626 230.8C125.109 230.671 125.584 230.607 126.05 230.607C126.348 230.607 126.69 230.643 127.077 230.715C127.467 230.784 127.843 230.926 128.206 231.144C128.572 231.361 128.876 231.689 129.117 232.128C129.359 232.567 129.479 233.154 129.479 233.891V240H128.055V238.744H127.982C127.886 238.946 127.725 239.161 127.499 239.39C127.274 239.62 126.974 239.815 126.6 239.976C126.226 240.137 125.769 240.217 125.229 240.217ZM125.447 238.938C126.01 238.938 126.485 238.827 126.871 238.605C127.262 238.384 127.556 238.098 127.753 237.748C127.954 237.398 128.055 237.03 128.055 236.643V235.339C127.994 235.412 127.862 235.478 127.656 235.539C127.455 235.595 127.222 235.645 126.956 235.69C126.694 235.73 126.439 235.766 126.189 235.798C125.944 235.826 125.745 235.851 125.592 235.871C125.221 235.919 124.875 235.998 124.553 236.106C124.235 236.211 123.978 236.37 123.781 236.583C123.587 236.792 123.491 237.078 123.491 237.44C123.491 237.935 123.674 238.31 124.04 238.563C124.41 238.813 124.879 238.938 125.447 238.938ZM132.08 243.477V230.727H133.456V232.2H133.625C133.73 232.039 133.875 231.834 134.06 231.585C134.249 231.331 134.519 231.106 134.869 230.908C135.223 230.707 135.702 230.607 136.306 230.607C137.086 230.607 137.775 230.802 138.37 231.192C138.966 231.583 139.431 232.136 139.765 232.852C140.099 233.569 140.266 234.414 140.266 235.388C140.266 236.37 140.099 237.221 139.765 237.941C139.431 238.658 138.968 239.213 138.376 239.608C137.785 239.998 137.103 240.193 136.33 240.193C135.734 240.193 135.257 240.095 134.899 239.897C134.541 239.696 134.265 239.469 134.072 239.215C133.879 238.958 133.73 238.744 133.625 238.575H133.505V243.477H132.08ZM133.48 235.364C133.48 236.064 133.583 236.682 133.788 237.217C133.994 237.748 134.293 238.165 134.688 238.467C135.082 238.764 135.565 238.913 136.137 238.913C136.732 238.913 137.229 238.756 137.628 238.442C138.03 238.125 138.332 237.698 138.533 237.163C138.739 236.623 138.841 236.024 138.841 235.364C138.841 234.712 138.741 234.124 138.539 233.601C138.342 233.074 138.042 232.657 137.64 232.351C137.241 232.041 136.74 231.886 136.137 231.886C135.557 231.886 135.07 232.033 134.676 232.327C134.281 232.617 133.984 233.023 133.782 233.547C133.581 234.066 133.48 234.671 133.48 235.364ZM142.439 240V230.727H143.864V240H142.439ZM143.164 229.182C142.886 229.182 142.646 229.087 142.445 228.898C142.248 228.709 142.149 228.482 142.149 228.216C142.149 227.95 142.248 227.723 142.445 227.534C142.646 227.345 142.886 227.25 143.164 227.25C143.441 227.25 143.679 227.345 143.876 227.534C144.077 227.723 144.178 227.95 144.178 228.216C144.178 228.482 144.077 228.709 143.876 228.898C143.679 229.087 143.441 229.182 143.164 229.182ZM149.975 240.193C149.202 240.193 148.52 239.998 147.928 239.608C147.337 239.213 146.874 238.658 146.54 237.941C146.206 237.221 146.039 236.37 146.039 235.388C146.039 234.414 146.206 233.569 146.54 232.852C146.874 232.136 147.339 231.583 147.934 231.192C148.53 230.802 149.218 230.607 149.999 230.607C150.603 230.607 151.08 230.707 151.43 230.908C151.784 231.106 152.054 231.331 152.239 231.585C152.428 231.834 152.575 232.039 152.679 232.2H152.8V227.636H154.225V240H152.848V238.575H152.679C152.575 238.744 152.426 238.958 152.233 239.215C152.039 239.469 151.764 239.696 151.406 239.897C151.047 240.095 150.57 240.193 149.975 240.193ZM150.168 238.913C150.74 238.913 151.222 238.764 151.617 238.467C152.011 238.165 152.311 237.748 152.516 237.217C152.722 236.682 152.824 236.064 152.824 235.364C152.824 234.671 152.724 234.066 152.522 233.547C152.321 233.023 152.023 232.617 151.629 232.327C151.235 232.033 150.748 231.886 150.168 231.886C149.564 231.886 149.061 232.041 148.659 232.351C148.26 232.657 147.961 233.074 147.759 233.601C147.562 234.124 147.463 234.712 147.463 235.364C147.463 236.024 147.564 236.623 147.765 237.163C147.971 237.698 148.272 238.125 148.671 238.442C149.073 238.756 149.572 238.913 150.168 238.913ZM159.761 240.217C159.173 240.217 158.64 240.107 158.161 239.885C157.682 239.66 157.302 239.336 157.02 238.913C156.738 238.487 156.597 237.972 156.597 237.368C156.597 236.837 156.702 236.406 156.911 236.076C157.121 235.742 157.4 235.48 157.75 235.291C158.101 235.102 158.487 234.961 158.909 234.869C159.336 234.772 159.765 234.696 160.195 234.639C160.759 234.567 161.216 234.512 161.566 234.476C161.92 234.436 162.177 234.37 162.338 234.277C162.503 234.184 162.586 234.023 162.586 233.794V233.746C162.586 233.15 162.423 232.687 162.097 232.357C161.775 232.027 161.286 231.862 160.63 231.862C159.95 231.862 159.417 232.011 159.03 232.309C158.644 232.607 158.372 232.925 158.215 233.263L156.863 232.78C157.104 232.216 157.426 231.778 157.829 231.464C158.235 231.146 158.678 230.924 159.157 230.8C159.64 230.671 160.115 230.607 160.582 230.607C160.88 230.607 161.222 230.643 161.608 230.715C161.998 230.784 162.375 230.926 162.737 231.144C163.103 231.361 163.407 231.689 163.648 232.128C163.89 232.567 164.011 233.154 164.011 233.891V240H162.586V238.744H162.514C162.417 238.946 162.256 239.161 162.031 239.39C161.805 239.62 161.505 239.815 161.131 239.976C160.757 240.137 160.3 240.217 159.761 240.217ZM159.978 238.938C160.541 238.938 161.016 238.827 161.403 238.605C161.793 238.384 162.087 238.098 162.284 237.748C162.485 237.398 162.586 237.03 162.586 236.643V235.339C162.526 235.412 162.393 235.478 162.188 235.539C161.986 235.595 161.753 235.645 161.487 235.69C161.226 235.73 160.97 235.766 160.721 235.798C160.475 235.826 160.276 235.851 160.123 235.871C159.753 235.919 159.407 235.998 159.085 236.106C158.767 236.211 158.509 236.37 158.312 236.583C158.119 236.792 158.022 237.078 158.022 237.44C158.022 237.935 158.205 238.31 158.571 238.563C158.942 238.813 159.411 238.938 159.978 238.938ZM166.611 240V230.727H167.988V232.176H168.108C168.301 231.681 168.613 231.297 169.044 231.023C169.475 230.745 169.992 230.607 170.595 230.607C171.207 230.607 171.716 230.745 172.123 231.023C172.533 231.297 172.853 231.681 173.083 232.176H173.179C173.417 231.697 173.773 231.317 174.248 231.035C174.723 230.749 175.292 230.607 175.956 230.607C176.785 230.607 177.463 230.866 177.991 231.385C178.518 231.9 178.782 232.703 178.782 233.794V240H177.357V233.794C177.357 233.11 177.17 232.621 176.795 232.327C176.421 232.033 175.98 231.886 175.473 231.886C174.821 231.886 174.316 232.084 173.958 232.478C173.6 232.868 173.421 233.363 173.421 233.963V240H171.972V233.649C171.972 233.122 171.801 232.697 171.459 232.375C171.117 232.049 170.676 231.886 170.137 231.886C169.766 231.886 169.42 231.985 169.098 232.182C168.78 232.379 168.523 232.653 168.326 233.003C168.132 233.349 168.036 233.75 168.036 234.205V240H166.611ZM185.274 240.193C184.381 240.193 183.61 239.996 182.962 239.602C182.318 239.203 181.821 238.648 181.471 237.935C181.125 237.219 180.952 236.386 180.952 235.436C180.952 234.486 181.125 233.649 181.471 232.925C181.821 232.196 182.308 231.629 182.932 231.222C183.56 230.812 184.292 230.607 185.129 230.607C185.612 230.607 186.089 230.687 186.56 230.848C187.031 231.009 187.46 231.271 187.846 231.633C188.232 231.991 188.54 232.466 188.77 233.058C188.999 233.649 189.114 234.378 189.114 235.243V235.847H181.966V234.615H187.665C187.665 234.092 187.56 233.625 187.351 233.214C187.146 232.804 186.852 232.48 186.47 232.243C186.091 232.005 185.645 231.886 185.129 231.886C184.562 231.886 184.071 232.027 183.656 232.309C183.246 232.587 182.93 232.949 182.709 233.396C182.487 233.842 182.377 234.321 182.377 234.832V235.653C182.377 236.354 182.497 236.947 182.739 237.434C182.984 237.917 183.324 238.286 183.759 238.539C184.194 238.789 184.699 238.913 185.274 238.913C185.649 238.913 185.987 238.861 186.288 238.756C186.594 238.648 186.858 238.487 187.079 238.273C187.301 238.056 187.472 237.786 187.592 237.464L188.969 237.851C188.824 238.318 188.581 238.728 188.238 239.082C187.896 239.433 187.474 239.706 186.971 239.903C186.468 240.097 185.902 240.193 185.274 240.193ZM192.706 234.422V240H191.281V230.727H192.657V232.176H192.778C192.996 231.705 193.326 231.327 193.768 231.041C194.211 230.751 194.782 230.607 195.483 230.607C196.111 230.607 196.66 230.735 197.131 230.993C197.602 231.246 197.968 231.633 198.23 232.152C198.491 232.667 198.622 233.319 198.622 234.108V240H197.197V234.205C197.197 233.476 197.008 232.909 196.63 232.502C196.251 232.092 195.732 231.886 195.072 231.886C194.617 231.886 194.211 231.985 193.853 232.182C193.499 232.379 193.219 232.667 193.014 233.045C192.808 233.424 192.706 233.883 192.706 234.422ZM205.258 230.727V231.935H200.453V230.727H205.258ZM201.853 228.506H203.278V237.344C203.278 237.746 203.336 238.048 203.453 238.249C203.574 238.446 203.727 238.579 203.912 238.648C204.101 238.712 204.3 238.744 204.509 238.744C204.666 238.744 204.795 238.736 204.896 238.72C204.996 238.7 205.077 238.684 205.137 238.672L205.427 239.952C205.33 239.988 205.196 240.024 205.023 240.06C204.85 240.101 204.63 240.121 204.365 240.121C203.962 240.121 203.568 240.034 203.181 239.861C202.799 239.688 202.481 239.424 202.227 239.07C201.978 238.716 201.853 238.269 201.853 237.73V228.506ZM211.189 240.193C210.296 240.193 209.525 239.996 208.877 239.602C208.233 239.203 207.736 238.648 207.386 237.935C207.04 237.219 206.867 236.386 206.867 235.436C206.867 234.486 207.04 233.649 207.386 232.925C207.736 232.196 208.223 231.629 208.847 231.222C209.475 230.812 210.207 230.607 211.044 230.607C211.527 230.607 212.004 230.687 212.475 230.848C212.946 231.009 213.375 231.271 213.761 231.633C214.147 231.991 214.455 232.466 214.685 233.058C214.914 233.649 215.029 234.378 215.029 235.243V235.847H207.881V234.615H213.58C213.58 234.092 213.475 233.625 213.266 233.214C213.061 232.804 212.767 232.48 212.385 232.243C212.006 232.005 211.56 231.886 211.044 231.886C210.477 231.886 209.986 232.027 209.571 232.309C209.161 232.587 208.845 232.949 208.624 233.396C208.402 233.842 208.292 234.321 208.292 234.832V235.653C208.292 236.354 208.412 236.947 208.654 237.434C208.899 237.917 209.239 238.286 209.674 238.539C210.109 238.789 210.614 238.913 211.189 238.913C211.564 238.913 211.902 238.861 212.204 238.756C212.509 238.648 212.773 238.487 212.994 238.273C213.216 238.056 213.387 237.786 213.508 237.464L214.884 237.851C214.739 238.318 214.496 238.728 214.153 239.082C213.811 239.433 213.389 239.706 212.886 239.903C212.383 240.097 211.817 240.193 211.189 240.193Z" fill="white"/>
</svg>
