<svg width="308" height="318" viewBox="0 0 308 318" fill="none" xmlns="http://www.w3.org/2000/svg">
<path d="M5.5498 156H1.73446V143.636H5.71884C6.91818 143.636 7.94445 143.884 8.79767 144.379C9.65089 144.87 10.3049 145.576 10.7597 146.498C11.2145 147.415 11.4419 148.514 11.4419 149.794C11.4419 151.082 11.2124 152.191 10.7536 153.12C10.2948 154.046 9.62675 154.758 8.74938 155.257C7.87201 155.752 6.80549 156 5.5498 156ZM3.23162 154.672H5.45321C6.47547 154.672 7.32265 154.475 7.99476 154.08C8.66687 153.686 9.16794 153.124 9.49796 152.396C9.82798 151.667 9.99299 150.8 9.99299 149.794C9.99299 148.796 9.82999 147.937 9.504 147.216C9.178 146.492 8.69102 145.936 8.04306 145.55C7.39509 145.16 6.58816 144.964 5.62225 144.964H3.23162V154.672ZM17.6478 156.193C16.7544 156.193 15.9836 155.996 15.3357 155.602C14.6917 155.203 14.1947 154.648 13.8445 153.935C13.4984 153.219 13.3254 152.386 13.3254 151.436C13.3254 150.486 13.4984 149.649 13.8445 148.925C14.1947 148.196 14.6817 147.629 15.3055 147.222C15.9333 146.812 16.6658 146.607 17.5029 146.607C17.9859 146.607 18.4628 146.687 18.9337 146.848C19.4046 147.009 19.8332 147.271 20.2195 147.633C20.6059 147.991 20.9138 148.466 21.1432 149.058C21.3726 149.649 21.4873 150.378 21.4873 151.243V151.847H14.3396V150.615H20.0384C20.0384 150.092 19.9338 149.625 19.7245 149.214C19.5193 148.804 19.2255 148.48 18.8431 148.243C18.4648 148.005 18.0181 147.886 17.5029 147.886C16.9355 147.886 16.4445 148.027 16.0299 148.309C15.6194 148.587 15.3035 148.949 15.0821 149.396C14.8608 149.842 14.7501 150.321 14.7501 150.832V151.653C14.7501 152.354 14.8708 152.947 15.1123 153.434C15.3578 153.917 15.6979 154.286 16.1325 154.539C16.5672 154.789 17.0723 154.913 17.6478 154.913C18.0221 154.913 18.3602 154.861 18.662 154.756C18.9679 154.648 19.2315 154.487 19.4529 154.273C19.6742 154.056 19.8453 153.786 19.966 153.464L21.3424 153.851C21.1975 154.318 20.954 154.728 20.6119 155.082C20.2699 155.433 19.8473 155.706 19.3442 155.903C18.8411 156.097 18.2757 156.193 17.6478 156.193ZM30.2227 148.804L28.9429 149.166C28.8624 148.953 28.7437 148.746 28.5867 148.544C28.4338 148.339 28.2245 148.17 27.9589 148.037C27.6933 147.904 27.3532 147.838 26.9387 147.838C26.3712 147.838 25.8983 147.969 25.52 148.23C25.1457 148.488 24.9585 148.816 24.9585 149.214C24.9585 149.569 25.0873 149.848 25.3449 150.054C25.6025 150.259 26.0049 150.43 26.5523 150.567L27.9287 150.905C28.7578 151.106 29.3756 151.414 29.782 151.828C30.1885 152.239 30.3918 152.768 30.3918 153.416C30.3918 153.947 30.2388 154.422 29.933 154.841C29.6311 155.259 29.2085 155.589 28.6652 155.831C28.1219 156.072 27.49 156.193 26.7696 156.193C25.8238 156.193 25.041 155.988 24.4213 155.577C23.8015 155.167 23.4091 154.567 23.2441 153.778L24.5963 153.44C24.7251 153.939 24.9686 154.314 25.3268 154.563C25.689 154.813 26.1619 154.938 26.7455 154.938C27.4095 154.938 27.9368 154.797 28.3271 154.515C28.7216 154.229 28.9188 153.887 28.9188 153.489C28.9188 153.167 28.8061 152.897 28.5807 152.68C28.3553 152.458 28.0092 152.293 27.5423 152.185L25.9969 151.822C25.1477 151.621 24.5239 151.309 24.1254 150.887C23.731 150.46 23.5338 149.927 23.5338 149.287C23.5338 148.764 23.6807 148.301 23.9745 147.898C24.2723 147.496 24.6768 147.18 25.1879 146.951C25.7031 146.721 26.2867 146.607 26.9387 146.607C27.8563 146.607 28.5767 146.808 29.0999 147.21C29.6271 147.613 30.0014 148.144 30.2227 148.804ZM36.3034 156.193C35.4341 156.193 34.6855 155.988 34.0577 155.577C33.4299 155.167 32.9469 154.601 32.6088 153.881C32.2708 153.161 32.1017 152.338 32.1017 151.412C32.1017 150.47 32.2748 149.639 32.6209 148.919C32.9711 148.194 33.458 147.629 34.0819 147.222C34.7097 146.812 35.4422 146.607 36.2793 146.607C36.9313 146.607 37.5189 146.727 38.0421 146.969C38.5653 147.21 38.9939 147.548 39.3279 147.983C39.662 148.418 39.8693 148.925 39.9498 149.504H38.525C38.4164 149.082 38.1749 148.707 37.8006 148.381C37.4303 148.051 36.9313 147.886 36.3034 147.886C35.748 147.886 35.2611 148.031 34.8425 148.321C34.428 148.607 34.104 149.011 33.8706 149.534C33.6412 150.054 33.5265 150.663 33.5265 151.364C33.5265 152.08 33.6391 152.704 33.8645 153.235C34.0939 153.766 34.4159 154.179 34.8304 154.473C35.249 154.766 35.74 154.913 36.3034 154.913C36.6737 154.913 37.0098 154.849 37.3116 154.72C37.6135 154.591 37.869 154.406 38.0783 154.165C38.2876 153.923 38.4365 153.634 38.525 153.295H39.9498C39.8693 153.843 39.67 154.336 39.3521 154.775C39.0382 155.209 38.6216 155.555 38.1025 155.813C37.5873 156.066 36.9876 156.193 36.3034 156.193ZM44.7612 156.217C44.1736 156.217 43.6403 156.107 43.1614 155.885C42.6825 155.66 42.3021 155.336 42.0204 154.913C41.7387 154.487 41.5978 153.972 41.5978 153.368C41.5978 152.837 41.7025 152.406 41.9118 152.076C42.121 151.742 42.4007 151.48 42.7509 151.291C43.101 151.102 43.4874 150.961 43.91 150.869C44.3366 150.772 44.7652 150.696 45.1958 150.639C45.7593 150.567 46.2161 150.512 46.5662 150.476C46.9204 150.436 47.178 150.37 47.339 150.277C47.504 150.184 47.5865 150.023 47.5865 149.794V149.746C47.5865 149.15 47.4235 148.687 47.0975 148.357C46.7755 148.027 46.2865 147.862 45.6305 147.862C44.9503 147.862 44.4171 148.011 44.0307 148.309C43.6444 148.607 43.3727 148.925 43.2157 149.263L41.8635 148.78C42.1049 148.216 42.4269 147.778 42.8294 147.464C43.2359 147.146 43.6786 146.924 44.1575 146.8C44.6404 146.671 45.1154 146.607 45.5822 146.607C45.88 146.607 46.2221 146.643 46.6085 146.715C46.9989 146.784 47.3752 146.926 47.7374 147.144C48.1036 147.361 48.4075 147.689 48.649 148.128C48.8904 148.567 49.0112 149.154 49.0112 149.891V156H47.5865V154.744H47.514C47.4174 154.946 47.2565 155.161 47.0311 155.39C46.8057 155.62 46.5059 155.815 46.1316 155.976C45.7573 156.137 45.3005 156.217 44.7612 156.217ZM44.9785 154.938C45.542 154.938 46.0169 154.827 46.4032 154.605C46.7936 154.384 47.0874 154.098 47.2846 153.748C47.4859 153.398 47.5865 153.03 47.5865 152.643V151.339C47.5261 151.412 47.3933 151.478 47.188 151.539C46.9868 151.595 46.7534 151.645 46.4877 151.69C46.2261 151.73 45.9706 151.766 45.7211 151.798C45.4756 151.826 45.2763 151.851 45.1234 151.871C44.7531 151.919 44.407 151.998 44.085 152.106C43.7671 152.211 43.5095 152.37 43.3123 152.583C43.1191 152.792 43.0225 153.078 43.0225 153.44C43.0225 153.935 43.2057 154.31 43.5719 154.563C43.9422 154.813 44.411 154.938 44.9785 154.938ZM51.6116 156V146.727H52.988V148.128H53.0846C53.2536 147.669 53.5595 147.297 54.0022 147.011C54.4449 146.725 54.944 146.582 55.4994 146.582C55.604 146.582 55.7348 146.584 55.8918 146.588C56.0487 146.592 56.1675 146.598 56.248 146.607V148.055C56.1997 148.043 56.089 148.025 55.9159 148.001C55.7469 147.973 55.5678 147.959 55.3786 147.959C54.9279 147.959 54.5254 148.053 54.1713 148.243C53.8211 148.428 53.5434 148.685 53.3382 149.015C53.1369 149.341 53.0363 149.714 53.0363 150.132V156H51.6116ZM61.3975 159.67C60.7093 159.67 60.1176 159.582 59.6226 159.405C59.1276 159.232 58.7151 159.002 58.385 158.717C58.059 158.435 57.7994 158.133 57.6063 157.811L58.7412 157.014C58.87 157.183 59.033 157.376 59.2302 157.594C59.4274 157.815 59.6971 158.006 60.0392 158.167C60.3853 158.332 60.838 158.415 61.3975 158.415C62.146 158.415 62.7638 158.234 63.2508 157.871C63.7378 157.509 63.9813 156.942 63.9813 156.169V154.286H63.8605C63.7559 154.455 63.607 154.664 63.4138 154.913C63.2246 155.159 62.951 155.378 62.5928 155.571C62.2386 155.761 61.7597 155.855 61.156 155.855C60.4074 155.855 59.7353 155.678 59.1396 155.324C58.548 154.97 58.0792 154.455 57.733 153.778C57.391 153.102 57.2199 152.281 57.2199 151.315C57.2199 150.366 57.3869 149.538 57.721 148.834C58.055 148.126 58.5199 147.578 59.1155 147.192C59.7111 146.802 60.3994 146.607 61.1801 146.607C61.7838 146.607 62.2628 146.707 62.6169 146.908C62.9751 147.106 63.2488 147.331 63.4379 147.585C63.6311 147.834 63.78 148.039 63.8847 148.2H64.0296V146.727H65.406V156.266C65.406 157.062 65.2249 157.71 64.8627 158.21C64.5045 158.713 64.0215 159.081 63.4138 159.314C62.8101 159.552 62.138 159.67 61.3975 159.67ZM61.3492 154.575C61.9207 154.575 62.4036 154.444 62.798 154.183C63.1924 153.921 63.4923 153.545 63.6975 153.054C63.9028 152.563 64.0054 151.975 64.0054 151.291C64.0054 150.623 63.9048 150.033 63.7036 149.522C63.5023 149.011 63.2045 148.611 62.8101 148.321C62.4157 148.031 61.9287 147.886 61.3492 147.886C60.7455 147.886 60.2424 148.039 59.8399 148.345C59.4415 148.651 59.1417 149.062 58.9404 149.577C58.7432 150.092 58.6446 150.663 58.6446 151.291C58.6446 151.935 58.7452 152.505 58.9465 153C59.1517 153.491 59.4536 153.877 59.852 154.159C60.2545 154.436 60.7535 154.575 61.3492 154.575ZM70.7426 156.217C70.155 156.217 69.6218 156.107 69.1428 155.885C68.6639 155.66 68.2836 155.336 68.0019 154.913C67.7201 154.487 67.5793 153.972 67.5793 153.368C67.5793 152.837 67.6839 152.406 67.8932 152.076C68.1025 151.742 68.3822 151.48 68.7323 151.291C69.0825 151.102 69.4688 150.961 69.8914 150.869C70.318 150.772 70.7467 150.696 71.1773 150.639C71.7407 150.567 72.1975 150.512 72.5477 150.476C72.9018 150.436 73.1594 150.37 73.3204 150.277C73.4854 150.184 73.5679 150.023 73.5679 149.794V149.746C73.5679 149.15 73.4049 148.687 73.0789 148.357C72.757 148.027 72.268 147.862 71.6119 147.862C70.9318 147.862 70.3985 148.011 70.0122 148.309C69.6258 148.607 69.3541 148.925 69.1972 149.263L67.8449 148.78C68.0864 148.216 68.4084 147.778 68.8108 147.464C69.2173 147.146 69.66 146.924 70.1389 146.8C70.6219 146.671 71.0968 146.607 71.5637 146.607C71.8615 146.607 72.2036 146.643 72.5899 146.715C72.9803 146.784 73.3566 146.926 73.7188 147.144C74.0851 147.361 74.3889 147.689 74.6304 148.128C74.8719 148.567 74.9926 149.154 74.9926 149.891V156H73.5679V154.744H73.4955C73.3989 154.946 73.2379 155.161 73.0125 155.39C72.7871 155.62 72.4873 155.815 72.113 155.976C71.7387 156.137 71.2819 156.217 70.7426 156.217ZM70.96 154.938C71.5234 154.938 71.9983 154.827 72.3847 154.605C72.7751 154.384 73.0689 154.098 73.2661 153.748C73.4673 153.398 73.5679 153.03 73.5679 152.643V151.339C73.5075 151.412 73.3747 151.478 73.1695 151.539C72.9682 151.595 72.7348 151.645 72.4692 151.69C72.2076 151.73 71.952 151.766 71.7025 151.798C71.457 151.826 71.2578 151.851 71.1048 151.871C70.7346 151.919 70.3885 151.998 70.0665 152.106C69.7485 152.211 69.491 152.37 69.2938 152.583C69.1006 152.792 69.004 153.078 69.004 153.44C69.004 153.935 69.1871 154.31 69.5534 154.563C69.9236 154.813 70.3925 154.938 70.96 154.938ZM83.799 143.636V156H82.3743V143.636H83.799ZM89.1372 156.217C88.5496 156.217 88.0163 156.107 87.5374 155.885C87.0584 155.66 86.6781 155.336 86.3964 154.913C86.1147 154.487 85.9738 153.972 85.9738 153.368C85.9738 152.837 86.0785 152.406 86.2877 152.076C86.497 151.742 86.7767 151.48 87.1269 151.291C87.477 151.102 87.8634 150.961 88.286 150.869C88.7126 150.772 89.1412 150.696 89.5718 150.639C90.1353 150.567 90.5921 150.512 90.9422 150.476C91.2964 150.436 91.5539 150.37 91.7149 150.277C91.8799 150.184 91.9624 150.023 91.9624 149.794V149.746C91.9624 149.15 91.7994 148.687 91.4735 148.357C91.1515 148.027 90.6625 147.862 90.0065 147.862C89.3263 147.862 88.7931 148.011 88.4067 148.309C88.0203 148.607 87.7487 148.925 87.5917 149.263L86.2394 148.78C86.4809 148.216 86.8029 147.778 87.2053 147.464C87.6118 147.146 88.0545 146.924 88.5335 146.8C89.0164 146.671 89.4913 146.607 89.9582 146.607C90.256 146.607 90.5981 146.643 90.9845 146.715C91.3749 146.784 91.7512 146.926 92.1134 147.144C92.4796 147.361 92.7835 147.689 93.0249 148.128C93.2664 148.567 93.3872 149.154 93.3872 149.891V156H91.9624V154.744H91.89C91.7934 154.946 91.6324 155.161 91.407 155.39C91.1817 155.62 90.8818 155.815 90.5075 155.976C90.1333 156.137 89.6765 156.217 89.1372 156.217ZM89.3545 154.938C89.9179 154.938 90.3928 154.827 90.7792 154.605C91.1696 154.384 91.4634 154.098 91.6606 153.748C91.8618 153.398 91.9624 153.03 91.9624 152.643V151.339C91.9021 151.412 91.7693 151.478 91.564 151.539C91.3628 151.595 91.1294 151.645 90.8637 151.69C90.6021 151.73 90.3466 151.766 90.097 151.798C89.8515 151.826 89.6523 151.851 89.4994 151.871C89.1291 151.919 88.783 151.998 88.461 152.106C88.1431 152.211 87.8855 152.37 87.6883 152.583C87.4951 152.792 87.3985 153.078 87.3985 153.44C87.3985 153.935 87.5816 154.31 87.9479 154.563C88.3182 154.813 88.787 154.938 89.3545 154.938ZM103.498 156.217C102.91 156.217 102.377 156.107 101.898 155.885C101.419 155.66 101.038 155.336 100.757 154.913C100.475 154.487 100.334 153.972 100.334 153.368C100.334 152.837 100.439 152.406 100.648 152.076C100.857 151.742 101.137 151.48 101.487 151.291C101.837 151.102 102.224 150.961 102.646 150.869C103.073 150.772 103.502 150.696 103.932 150.639C104.496 150.567 104.952 150.512 105.303 150.476C105.657 150.436 105.914 150.37 106.075 150.277C106.24 150.184 106.323 150.023 106.323 149.794V149.746C106.323 149.15 106.16 148.687 105.834 148.357C105.512 148.027 105.023 147.862 104.367 147.862C103.687 147.862 103.153 148.011 102.767 148.309C102.381 148.607 102.109 148.925 101.952 149.263L100.6 148.78C100.841 148.216 101.163 147.778 101.566 147.464C101.972 147.146 102.415 146.924 102.894 146.8C103.377 146.671 103.852 146.607 104.319 146.607C104.616 146.607 104.958 146.643 105.345 146.715C105.735 146.784 106.112 146.926 106.474 147.144C106.84 147.361 107.144 147.689 107.385 148.128C107.627 148.567 107.748 149.154 107.748 149.891V156H106.323V154.744H106.25C106.154 154.946 105.993 155.161 105.767 155.39C105.542 155.62 105.242 155.815 104.868 155.976C104.494 156.137 104.037 156.217 103.498 156.217ZM103.715 154.938C104.278 154.938 104.753 154.827 105.14 154.605C105.53 154.384 105.824 154.098 106.021 153.748C106.222 153.398 106.323 153.03 106.323 152.643V151.339C106.262 151.412 106.13 151.478 105.924 151.539C105.723 151.595 105.49 151.645 105.224 151.69C104.962 151.73 104.707 151.766 104.457 151.798C104.212 151.826 104.013 151.851 103.86 151.871C103.489 151.919 103.143 151.998 102.821 152.106C102.503 152.211 102.246 152.37 102.049 152.583C101.855 152.792 101.759 153.078 101.759 153.44C101.759 153.935 101.942 154.31 102.308 154.563C102.679 154.813 103.147 154.938 103.715 154.938ZM110.348 159.477V146.727H111.724V148.2H111.893C111.998 148.039 112.143 147.834 112.328 147.585C112.517 147.331 112.787 147.106 113.137 146.908C113.491 146.707 113.97 146.607 114.574 146.607C115.355 146.607 116.043 146.802 116.638 147.192C117.234 147.583 117.699 148.136 118.033 148.852C118.367 149.569 118.534 150.414 118.534 151.388C118.534 152.37 118.367 153.221 118.033 153.941C117.699 154.658 117.236 155.213 116.644 155.608C116.053 155.998 115.371 156.193 114.598 156.193C114.002 156.193 113.525 156.095 113.167 155.897C112.809 155.696 112.533 155.469 112.34 155.215C112.147 154.958 111.998 154.744 111.893 154.575H111.773V159.477H110.348ZM111.748 151.364C111.748 152.064 111.851 152.682 112.056 153.217C112.262 153.748 112.561 154.165 112.956 154.467C113.35 154.764 113.833 154.913 114.405 154.913C115 154.913 115.497 154.756 115.896 154.442C116.298 154.125 116.6 153.698 116.801 153.163C117.007 152.623 117.109 152.024 117.109 151.364C117.109 150.712 117.009 150.124 116.807 149.601C116.61 149.074 116.31 148.657 115.908 148.351C115.509 148.041 115.008 147.886 114.405 147.886C113.825 147.886 113.338 148.033 112.944 148.327C112.549 148.617 112.252 149.023 112.05 149.547C111.849 150.066 111.748 150.671 111.748 151.364ZM120.707 159.477V146.727H122.084V148.2H122.253C122.357 148.039 122.502 147.834 122.687 147.585C122.877 147.331 123.146 147.106 123.496 146.908C123.851 146.707 124.329 146.607 124.933 146.607C125.714 146.607 126.402 146.802 126.998 147.192C127.593 147.583 128.058 148.136 128.392 148.852C128.726 149.569 128.893 150.414 128.893 151.388C128.893 152.37 128.726 153.221 128.392 153.941C128.058 154.658 127.595 155.213 127.004 155.608C126.412 155.998 125.73 156.193 124.957 156.193C124.362 156.193 123.885 156.095 123.527 155.897C123.168 155.696 122.893 155.469 122.699 155.215C122.506 154.958 122.357 154.744 122.253 154.575H122.132V159.477H120.707ZM122.108 151.364C122.108 152.064 122.21 152.682 122.416 153.217C122.621 153.748 122.921 154.165 123.315 154.467C123.71 154.764 124.193 154.913 124.764 154.913C125.36 154.913 125.857 154.756 126.255 154.442C126.658 154.125 126.96 153.698 127.161 153.163C127.366 152.623 127.469 152.024 127.469 151.364C127.469 150.712 127.368 150.124 127.167 149.601C126.97 149.074 126.67 148.657 126.267 148.351C125.869 148.041 125.368 147.886 124.764 147.886C124.185 147.886 123.698 148.033 123.303 148.327C122.909 148.617 122.611 149.023 122.41 149.547C122.208 150.066 122.108 150.671 122.108 151.364ZM11.7701 177V164.636H19.2318V165.964H13.2673V170.142H18.8454V171.47H13.2673V175.672H19.3283V177H11.7701ZM21.7371 177V167.727H23.1135V169.176H23.2342C23.4274 168.681 23.7393 168.297 24.17 168.023C24.6006 167.745 25.1178 167.607 25.7215 167.607C26.3332 167.607 26.8423 167.745 27.2488 168.023C27.6593 168.297 27.9793 168.681 28.2087 169.176H28.3053C28.5427 168.697 28.8989 168.317 29.3738 168.035C29.8487 167.749 30.4182 167.607 31.0823 167.607C31.9113 167.607 32.5895 167.866 33.1167 168.385C33.6439 168.9 33.9075 169.703 33.9075 170.794V177H32.4828V170.794C32.4828 170.11 32.2957 169.621 31.9214 169.327C31.5471 169.033 31.1064 168.886 30.5993 168.886C29.9473 168.886 29.4422 169.084 29.084 169.478C28.7258 169.868 28.5467 170.363 28.5467 170.963V177H27.0979V170.649C27.0979 170.122 26.9268 169.697 26.5847 169.375C26.2426 169.049 25.802 168.886 25.2627 168.886C24.8924 168.886 24.5463 168.985 24.2243 169.182C23.9064 169.379 23.6488 169.653 23.4516 170.003C23.2584 170.349 23.1618 170.75 23.1618 171.205V177H21.7371ZM40.4003 177.193C39.5068 177.193 38.7361 176.996 38.0881 176.602C37.4442 176.203 36.9471 175.648 36.597 174.935C36.2509 174.219 36.0778 173.386 36.0778 172.436C36.0778 171.486 36.2509 170.649 36.597 169.925C36.9471 169.196 37.4341 168.629 38.0579 168.222C38.6858 167.812 39.4183 167.607 40.2554 167.607C40.7383 167.607 41.2152 167.687 41.6861 167.848C42.157 168.009 42.5856 168.271 42.972 168.633C43.3584 168.991 43.6662 169.466 43.8956 170.058C44.125 170.649 44.2397 171.378 44.2397 172.243V172.847H37.092V171.615H42.7909C42.7909 171.092 42.6862 170.625 42.477 170.214C42.2717 169.804 41.9779 169.48 41.5956 169.243C41.2173 169.005 40.7705 168.886 40.2554 168.886C39.6879 168.886 39.1969 169.027 38.7824 169.309C38.3718 169.587 38.0559 169.949 37.8346 170.396C37.6132 170.842 37.5025 171.321 37.5025 171.832V172.653C37.5025 173.354 37.6233 173.947 37.8647 174.434C38.1102 174.917 38.4503 175.286 38.885 175.539C39.3196 175.789 39.8247 175.913 40.4003 175.913C40.7745 175.913 41.1126 175.861 41.4145 175.756C41.7203 175.648 41.9839 175.487 42.2053 175.273C42.4267 175.056 42.5977 174.786 42.7184 174.464L44.0949 174.851C43.95 175.318 43.7065 175.728 43.3644 176.082C43.0223 176.433 42.5997 176.706 42.0966 176.903C41.5936 177.097 41.0281 177.193 40.4003 177.193ZM46.407 177V167.727H47.7834V169.128H47.88C48.0491 168.669 48.3549 168.297 48.7976 168.011C49.2403 167.725 49.7394 167.582 50.2948 167.582C50.3994 167.582 50.5302 167.584 50.6872 167.588C50.8441 167.592 50.9629 167.598 51.0434 167.607V169.055C50.9951 169.043 50.8844 169.025 50.7113 169.001C50.5423 168.973 50.3632 168.959 50.1741 168.959C49.7233 168.959 49.3208 169.053 48.9667 169.243C48.6165 169.428 48.3388 169.685 48.1336 170.015C47.9323 170.341 47.8317 170.714 47.8317 171.132V177H46.407ZM56.1929 180.67C55.5047 180.67 54.913 180.582 54.418 180.405C53.923 180.232 53.5105 180.002 53.1804 179.717C52.8544 179.435 52.5949 179.133 52.4017 178.811L53.5366 178.014C53.6654 178.183 53.8284 178.376 54.0256 178.594C54.2228 178.815 54.4925 179.006 54.8346 179.167C55.1807 179.332 55.6334 179.415 56.1929 179.415C56.9415 179.415 57.5592 179.234 58.0462 178.871C58.5332 178.509 58.7767 177.942 58.7767 177.169V175.286H58.6559C58.5513 175.455 58.4024 175.664 58.2092 175.913C58.02 176.159 57.7464 176.378 57.3882 176.571C57.034 176.761 56.5551 176.855 55.9514 176.855C55.2028 176.855 54.5307 176.678 53.9351 176.324C53.3434 175.97 52.8746 175.455 52.5285 174.778C52.1864 174.102 52.0153 173.281 52.0153 172.315C52.0153 171.366 52.1823 170.538 52.5164 169.834C52.8504 169.126 53.3153 168.578 53.9109 168.192C54.5066 167.802 55.1948 167.607 55.9755 167.607C56.5792 167.607 57.0582 167.707 57.4123 167.908C57.7705 168.106 58.0442 168.331 58.2334 168.585C58.4265 168.834 58.5754 169.039 58.6801 169.2H58.825V167.727H60.2014V177.266C60.2014 178.062 60.0203 178.71 59.6581 179.21C59.2999 179.713 58.8169 180.081 58.2092 180.314C57.6055 180.552 56.9334 180.67 56.1929 180.67ZM56.1446 175.575C56.7161 175.575 57.199 175.444 57.5934 175.183C57.9879 174.921 58.2877 174.545 58.4929 174.054C58.6982 173.563 58.8008 172.975 58.8008 172.291C58.8008 171.623 58.7002 171.033 58.499 170.522C58.2977 170.011 57.9999 169.611 57.6055 169.321C57.2111 169.031 56.7241 168.886 56.1446 168.886C55.5409 168.886 55.0378 169.039 54.6353 169.345C54.2369 169.651 53.9371 170.062 53.7358 170.577C53.5386 171.092 53.44 171.663 53.44 172.291C53.44 172.935 53.5406 173.505 53.7419 174C53.9471 174.491 54.249 174.877 54.6474 175.159C55.0499 175.436 55.5489 175.575 56.1446 175.575ZM66.6971 177.193C65.8037 177.193 65.033 176.996 64.385 176.602C63.741 176.203 63.244 175.648 62.8939 174.935C62.5477 174.219 62.3747 173.386 62.3747 172.436C62.3747 171.486 62.5477 170.649 62.8939 169.925C63.244 169.196 63.731 168.629 64.3548 168.222C64.9826 167.812 65.7151 167.607 66.5522 167.607C67.0352 167.607 67.5121 167.687 67.983 167.848C68.4539 168.009 68.8825 168.271 69.2689 168.633C69.6552 168.991 69.9631 169.466 70.1925 170.058C70.4219 170.649 70.5366 171.378 70.5366 172.243V172.847H63.3889V171.615H69.0878C69.0878 171.092 68.9831 170.625 68.7738 170.214C68.5686 169.804 68.2748 169.48 67.8924 169.243C67.5141 169.005 67.0674 168.886 66.5522 168.886C65.9848 168.886 65.4938 169.027 65.0792 169.309C64.6687 169.587 64.3528 169.949 64.1314 170.396C63.9101 170.842 63.7994 171.321 63.7994 171.832V172.653C63.7994 173.354 63.9201 173.947 64.1616 174.434C64.4071 174.917 64.7472 175.286 65.1819 175.539C65.6165 175.789 66.1216 175.913 66.6971 175.913C67.0714 175.913 67.4095 175.861 67.7113 175.756C68.0172 175.648 68.2808 175.487 68.5022 175.273C68.7235 175.056 68.8946 174.786 69.0153 174.464L70.3917 174.851C70.2468 175.318 70.0034 175.728 69.6613 176.082C69.3192 176.433 68.8966 176.706 68.3935 176.903C67.8904 177.097 67.325 177.193 66.6971 177.193ZM74.1286 171.422V177H72.7039V167.727H74.0803V169.176H74.201C74.4184 168.705 74.7484 168.327 75.1911 168.041C75.6338 167.751 76.2053 167.607 76.9056 167.607C77.5334 167.607 78.0828 167.735 78.5537 167.993C79.0245 168.246 79.3908 168.633 79.6524 169.152C79.914 169.667 80.0448 170.319 80.0448 171.108V177H78.6201V171.205C78.6201 170.476 78.4309 169.909 78.0526 169.502C77.6743 169.092 77.1551 168.886 76.4951 168.886C76.0403 168.886 75.6338 168.985 75.2756 169.182C74.9214 169.379 74.6417 169.667 74.4365 170.045C74.2312 170.424 74.1286 170.883 74.1286 171.422ZM86.6809 167.727V168.935H81.8755V167.727H86.6809ZM83.2761 165.506H84.7008V174.344C84.7008 174.746 84.7591 175.048 84.8758 175.249C84.9966 175.446 85.1495 175.579 85.3347 175.648C85.5238 175.712 85.723 175.744 85.9323 175.744C86.0893 175.744 86.2181 175.736 86.3187 175.72C86.4193 175.7 86.4998 175.684 86.5601 175.672L86.8499 176.952C86.7533 176.988 86.6185 177.024 86.4454 177.06C86.2724 177.101 86.053 177.121 85.7874 177.121C85.385 177.121 84.9905 177.034 84.6042 176.861C84.2218 176.688 83.9039 176.424 83.6503 176.07C83.4008 175.716 83.2761 175.269 83.2761 174.73V165.506ZM89.5243 177H87.9547L92.4945 164.636H94.0399L98.5797 177H97.0101L93.3155 166.592H93.2189L89.5243 177ZM90.1038 172.17H96.4305V173.499H90.1038V172.17ZM100.312 180.477V167.727H101.689V169.2H101.858C101.962 169.039 102.107 168.834 102.292 168.585C102.482 168.331 102.751 168.106 103.101 167.908C103.456 167.707 103.934 167.607 104.538 167.607C105.319 167.607 106.007 167.802 106.603 168.192C107.198 168.583 107.663 169.136 107.997 169.852C108.331 170.569 108.498 171.414 108.498 172.388C108.498 173.37 108.331 174.221 107.997 174.941C107.663 175.658 107.2 176.213 106.609 176.608C106.017 176.998 105.335 177.193 104.562 177.193C103.967 177.193 103.49 177.095 103.132 176.897C102.773 176.696 102.498 176.469 102.304 176.215C102.111 175.958 101.962 175.744 101.858 175.575H101.737V180.477H100.312ZM101.713 172.364C101.713 173.064 101.815 173.682 102.021 174.217C102.226 174.748 102.526 175.165 102.92 175.467C103.315 175.764 103.798 175.913 104.369 175.913C104.965 175.913 105.462 175.756 105.86 175.442C106.263 175.125 106.565 174.698 106.766 174.163C106.971 173.623 107.074 173.024 107.074 172.364C107.074 171.712 106.973 171.124 106.772 170.601C106.575 170.074 106.275 169.657 105.872 169.351C105.474 169.041 104.973 168.886 104.369 168.886C103.79 168.886 103.303 169.033 102.908 169.327C102.514 169.617 102.216 170.023 102.015 170.547C101.813 171.066 101.713 171.671 101.713 172.364ZM110.672 180.477V167.727H112.048V169.2H112.217C112.322 169.039 112.467 168.834 112.652 168.585C112.841 168.331 113.111 168.106 113.461 167.908C113.815 167.707 114.294 167.607 114.898 167.607C115.678 167.607 116.366 167.802 116.962 168.192C117.558 168.583 118.023 169.136 118.357 169.852C118.691 170.569 118.858 171.414 118.858 172.388C118.858 173.37 118.691 174.221 118.357 174.941C118.023 175.658 117.56 176.213 116.968 176.608C116.377 176.998 115.694 177.193 114.922 177.193C114.326 177.193 113.849 177.095 113.491 176.897C113.133 176.696 112.857 176.469 112.664 176.215C112.471 175.958 112.322 175.744 112.217 175.575H112.096V180.477H110.672ZM112.072 172.364C112.072 173.064 112.175 173.682 112.38 174.217C112.585 174.748 112.885 175.165 113.28 175.467C113.674 175.764 114.157 175.913 114.728 175.913C115.324 175.913 115.821 175.756 116.22 175.442C116.622 175.125 116.924 174.698 117.125 174.163C117.33 173.623 117.433 173.024 117.433 172.364C117.433 171.712 117.332 171.124 117.131 170.601C116.934 170.074 116.634 169.657 116.232 169.351C115.833 169.041 115.332 168.886 114.728 168.886C114.149 168.886 113.662 169.033 113.268 169.327C112.873 169.617 112.575 170.023 112.374 170.547C112.173 171.066 112.072 171.671 112.072 172.364Z" fill="white"/>
<path d="M71.2109 70.3656C75.608 68.995 103.646 65.2371 105.1 67.4187C106.654 69.7491 102.502 76.2165 101.498 78.224" stroke="white" strokeWidth="4.76" strokeLinecap="round" stroke-linejoin="round"/>
<path d="M66.6279 75.9321C64.4331 80.3665 48.1748 109.915 48.9465 111.459C61.9263 109.979 86.6788 110.889 89.5481 108.02C91.2534 106.315 91.6155 102.709 92.9861 100.653" stroke="white" strokeWidth="4.76" strokeLinecap="round" stroke-linejoin="round"/>
<path d="M85.6163 75.2771C85.4863 74.7964 85.9536 74.4903 86.1075 74.1311" stroke="white" strokeWidth="4.76" strokeLinecap="round" stroke-linejoin="round"/>
<path d="M31.9112 28.5878C42.1957 -1.74784 86.9163 12.3495 78.054 43.8377C73.2494 60.9074 40.5754 68.9422 33.4756 41.8009" stroke="white" strokeWidth="4.76" strokeLinecap="round" stroke-linejoin="round"/>
<path d="M67.3834 38.7085C67.1742 37.0912 67.0963 36.1062 66.748 34.6562" stroke="white" strokeWidth="4.76" strokeLinecap="round" stroke-linejoin="round"/>
<path d="M58.0462 39.013C57.9685 37.6511 57.6277 36.6514 57.2656 35.3359" stroke="white" strokeWidth="4.76" strokeLinecap="round" stroke-linejoin="round"/>
<path d="M97.8959 83.1355C96.0358 83.5284 94.3099 84.2363 92.8207 85.4275C79.4455 96.1276 99.6922 99.8437 105.918 87.3921C107.134 84.9602 106.821 82.2995 105.263 80.3523" stroke="white" strokeWidth="4.76" strokeLinecap="round" stroke-linejoin="round"/>
<path d="M33.457 73.8773C37.0722 58.5735 59.6565 69.7641 56.7047 81.572C54.9516 88.5836 48.6283 80.0995 47.7003 77.3154" stroke="white" strokeWidth="4.76" strokeLinecap="round" stroke-linejoin="round"/>
<path d="M47.8635 80.0034C47.3429 87.1686 39.6302 83.9971 36.8945 80.1671" stroke="white" strokeWidth="4.76" strokeLinecap="round" stroke-linejoin="round"/>
<path d="M165.527 81.7057C218.449 62.6694 258.959 104.311 267.578 111.092" stroke="white" strokeWidth="5.16" strokeLinecap="round" stroke-linejoin="round"/>
<path d="M272.064 87.4696C269.212 102.907 267.688 110.845 267.49 111.285C267.194 111.946 255.26 112.141 247.55 117.118" stroke="white" strokeWidth="5.16" strokeLinecap="round" stroke-linejoin="round"/>
</svg>
