<svg width="320" height="322" viewBox="0 0 320 322" fill="none" xmlns="http://www.w3.org/2000/svg">
<path d="M11.4855 224.636V237H9.98837V224.636H11.4855ZM15.7189 231.422V237H14.2942V227.727H15.6706V229.176H15.7914C16.0087 228.705 16.3387 228.327 16.7814 228.041C17.2241 227.751 17.7956 227.607 18.4959 227.607C19.1238 227.607 19.6731 227.735 20.144 227.993C20.6149 228.246 20.9811 228.633 21.2427 229.152C21.5043 229.667 21.6351 230.319 21.6351 231.108V237H20.2104V231.205C20.2104 230.476 20.0212 229.909 19.6429 229.502C19.2646 229.092 18.7454 228.886 18.0854 228.886C17.6306 228.886 17.2241 228.985 16.8659 229.182C16.5118 229.379 16.2321 229.667 16.0268 230.045C15.8216 230.424 15.7189 230.883 15.7189 231.422ZM31.4889 227.727L28.0599 237H26.6111L23.1821 227.727H24.7275L27.2872 235.116H27.3838L29.9434 227.727H31.4889ZM33.3694 237V227.727H34.7941V237H33.3694ZM34.0938 226.182C33.8161 226.182 33.5767 226.087 33.3754 225.898C33.1782 225.709 33.0796 225.482 33.0796 225.216C33.0796 224.95 33.1782 224.723 33.3754 224.534C33.5767 224.345 33.8161 224.25 34.0938 224.25C34.3715 224.25 34.609 224.345 34.8062 224.534C35.0074 224.723 35.108 224.95 35.108 225.216C35.108 225.482 35.0074 225.709 34.8062 225.898C34.609 226.087 34.3715 226.182 34.0938 226.182ZM41.4363 227.727V228.935H36.6309V227.727H41.4363ZM38.0314 225.506H39.4561V234.344C39.4561 234.746 39.5145 235.048 39.6312 235.249C39.752 235.446 39.9049 235.579 40.09 235.648C40.2792 235.712 40.4784 235.744 40.6877 235.744C40.8446 235.744 40.9734 235.736 41.074 235.72C41.1747 235.7 41.2551 235.684 41.3155 235.672L41.6053 236.952C41.5087 236.988 41.3739 237.024 41.2008 237.06C41.0278 237.101 40.8084 237.121 40.5428 237.121C40.1403 237.121 39.7459 237.034 39.3596 236.861C38.9772 236.688 38.6593 236.424 38.4057 236.07C38.1562 235.716 38.0314 235.269 38.0314 234.73V225.506ZM46.3081 237.217C45.7205 237.217 45.1872 237.107 44.7083 236.885C44.2293 236.66 43.849 236.336 43.5673 235.913C43.2856 235.487 43.1447 234.972 43.1447 234.368C43.1447 233.837 43.2493 233.406 43.4586 233.076C43.6679 232.742 43.9476 232.48 44.2978 232.291C44.6479 232.102 45.0343 231.961 45.4569 231.869C45.8835 231.772 46.3121 231.696 46.7427 231.639C47.3062 231.567 47.763 231.512 48.1131 231.476C48.4673 231.436 48.7248 231.37 48.8858 231.277C49.0508 231.184 49.1333 231.023 49.1333 230.794V230.746C49.1333 230.15 48.9703 229.687 48.6444 229.357C48.3224 229.027 47.8334 228.862 47.1774 228.862C46.4972 228.862 45.964 229.011 45.5776 229.309C45.1912 229.607 44.9196 229.925 44.7626 230.263L43.4103 229.78C43.6518 229.216 43.9738 228.778 44.3762 228.464C44.7827 228.146 45.2254 227.924 45.7044 227.8C46.1873 227.671 46.6622 227.607 47.1291 227.607C47.4269 227.607 47.769 227.643 48.1554 227.715C48.5458 227.784 48.9221 227.926 49.2843 228.144C49.6505 228.361 49.9544 228.689 50.1958 229.128C50.4373 229.567 50.5581 230.154 50.5581 230.891V237H49.1333V235.744H49.0609C48.9643 235.946 48.8033 236.161 48.5779 236.39C48.3526 236.62 48.0527 236.815 47.6784 236.976C47.3042 237.137 46.8474 237.217 46.3081 237.217ZM46.5254 235.938C47.0888 235.938 47.5637 235.827 47.9501 235.605C48.3405 235.384 48.6343 235.098 48.8315 234.748C49.0327 234.398 49.1333 234.03 49.1333 233.643V232.339C49.073 232.412 48.9402 232.478 48.7349 232.539C48.5337 232.595 48.3002 232.645 48.0346 232.69C47.773 232.73 47.5175 232.766 47.2679 232.798C47.0224 232.826 46.8232 232.851 46.6703 232.871C46.3 232.919 45.9539 232.998 45.6319 233.106C45.314 233.211 45.0564 233.37 44.8592 233.583C44.666 233.792 44.5694 234.078 44.5694 234.44C44.5694 234.935 44.7525 235.31 45.1188 235.563C45.4891 235.813 45.9579 235.938 46.5254 235.938ZM60.6684 237.217C60.0808 237.217 59.5476 237.107 59.0686 236.885C58.5897 236.66 58.2094 236.336 57.9276 235.913C57.6459 235.487 57.5051 234.972 57.5051 234.368C57.5051 233.837 57.6097 233.406 57.819 233.076C58.0283 232.742 58.308 232.48 58.6581 232.291C59.0083 232.102 59.3946 231.961 59.8172 231.869C60.2438 231.772 60.6724 231.696 61.1031 231.639C61.6665 231.567 62.1233 231.512 62.4735 231.476C62.8276 231.436 63.0852 231.37 63.2462 231.277C63.4112 231.184 63.4937 231.023 63.4937 230.794V230.746C63.4937 230.15 63.3307 229.687 63.0047 229.357C62.6827 229.027 62.1937 228.862 61.5377 228.862C60.8576 228.862 60.3243 229.011 59.9379 229.309C59.5516 229.607 59.2799 229.925 59.123 230.263L57.7707 229.78C58.0122 229.216 58.3341 228.778 58.7366 228.464C59.1431 228.146 59.5858 227.924 60.0647 227.8C60.5477 227.671 61.0226 227.607 61.4894 227.607C61.7873 227.607 62.1294 227.643 62.5157 227.715C62.9061 227.784 63.2824 227.926 63.6446 228.144C64.0109 228.361 64.3147 228.689 64.5562 229.128C64.7977 229.567 64.9184 230.154 64.9184 230.891V237H63.4937V235.744H63.4213C63.3247 235.946 63.1637 236.161 62.9383 236.39C62.7129 236.62 62.4131 236.815 62.0388 236.976C61.6645 237.137 61.2077 237.217 60.6684 237.217ZM60.8857 235.938C61.4492 235.938 61.9241 235.827 62.3105 235.605C62.7008 235.384 62.9946 235.098 63.1919 234.748C63.3931 234.398 63.4937 234.03 63.4937 233.643V232.339C63.4333 232.412 63.3005 232.478 63.0953 232.539C62.894 232.595 62.6606 232.645 62.395 232.69C62.1334 232.73 61.8778 232.766 61.6283 232.798C61.3828 232.826 61.1836 232.851 61.0306 232.871C60.6604 232.919 60.3142 232.998 59.9923 233.106C59.6743 233.211 59.4168 233.37 59.2195 233.583C59.0264 233.792 58.9298 234.078 58.9298 234.44C58.9298 234.935 59.1129 235.31 59.4791 235.563C59.8494 235.813 60.3183 235.938 60.8857 235.938ZM76.3327 227.727V228.935H71.5273V227.727H76.3327ZM72.9279 225.506H74.3526V234.344C74.3526 234.746 74.411 235.048 74.5277 235.249C74.6484 235.446 74.8014 235.579 74.9865 235.648C75.1757 235.712 75.3749 235.744 75.5842 235.744C75.7411 235.744 75.8699 235.736 75.9705 235.72C76.0711 235.7 76.1516 235.684 76.212 235.672L76.5018 236.952C76.4052 236.988 76.2704 237.024 76.0973 237.06C75.9242 237.101 75.7049 237.121 75.4393 237.121C75.0368 237.121 74.6424 237.034 74.256 236.861C73.8737 236.688 73.5558 236.424 73.3022 236.07C73.0527 235.716 72.9279 235.269 72.9279 234.73V225.506ZM84.3196 233.209V227.727H85.7443V237H84.3196V235.43H84.223C84.0057 235.901 83.6676 236.302 83.2088 236.632C82.75 236.958 82.1705 237.121 81.4702 237.121C80.8906 237.121 80.3755 236.994 79.9247 236.74C79.474 236.483 79.1198 236.096 78.8622 235.581C78.6046 235.062 78.4759 234.408 78.4759 233.619V227.727H79.9006V233.523C79.9006 234.199 80.0897 234.738 80.468 235.141C80.8504 235.543 81.3374 235.744 81.929 235.744C82.2831 235.744 82.6433 235.654 83.0096 235.473C83.3799 235.292 83.6897 235.014 83.9393 234.64C84.1928 234.265 84.3196 233.788 84.3196 233.209ZM97.2643 227.727V228.935H92.2657V227.727H97.2643ZM93.7629 237V226.447C93.7629 225.916 93.8876 225.473 94.1372 225.119C94.3867 224.765 94.7107 224.5 95.1091 224.322C95.5075 224.145 95.9281 224.057 96.3708 224.057C96.721 224.057 97.0067 224.085 97.2281 224.141C97.4494 224.198 97.6144 224.25 97.7231 224.298L97.3126 225.53C97.2401 225.506 97.1395 225.475 97.0107 225.439C96.886 225.403 96.721 225.385 96.5157 225.385C96.0448 225.385 95.7048 225.504 95.4955 225.741C95.2902 225.979 95.1876 226.327 95.1876 226.786V237H93.7629ZM101.724 237.217C101.136 237.217 100.603 237.107 100.124 236.885C99.6454 236.66 99.265 236.336 98.9833 235.913C98.7016 235.487 98.5607 234.972 98.5607 234.368C98.5607 233.837 98.6654 233.406 98.8746 233.076C99.0839 232.742 99.3636 232.48 99.7138 232.291C100.064 232.102 100.45 231.961 100.873 231.869C101.299 231.772 101.728 231.696 102.159 231.639C102.722 231.567 103.179 231.512 103.529 231.476C103.883 231.436 104.141 231.37 104.302 231.277C104.467 231.184 104.549 231.023 104.549 230.794V230.746C104.549 230.15 104.386 229.687 104.06 229.357C103.738 229.027 103.249 228.862 102.593 228.862C101.913 228.862 101.38 229.011 100.994 229.309C100.607 229.607 100.336 229.925 100.179 230.263L98.8263 229.78C99.0678 229.216 99.3898 228.778 99.7923 228.464C100.199 228.146 100.641 227.924 101.12 227.8C101.603 227.671 102.078 227.607 102.545 227.607C102.843 227.607 103.185 227.643 103.571 227.715C103.962 227.784 104.338 227.926 104.7 228.144C105.067 228.361 105.37 228.689 105.612 229.128C105.853 229.567 105.974 230.154 105.974 230.891V237H104.549V235.744H104.477C104.38 235.946 104.219 236.161 103.994 236.39C103.769 236.62 103.469 236.815 103.094 236.976C102.72 237.137 102.263 237.217 101.724 237.217ZM101.941 235.938C102.505 235.938 102.98 235.827 103.366 235.605C103.757 235.384 104.05 235.098 104.248 234.748C104.449 234.398 104.549 234.03 104.549 233.643V232.339C104.489 232.412 104.356 232.478 104.151 232.539C103.95 232.595 103.716 232.645 103.451 232.69C103.189 232.73 102.933 232.766 102.684 232.798C102.438 232.826 102.239 232.851 102.086 232.871C101.716 232.919 101.37 232.998 101.048 233.106C100.73 233.211 100.472 233.37 100.275 233.583C100.082 233.792 99.9854 234.078 99.9854 234.44C99.9854 234.935 100.169 235.31 100.535 235.563C100.905 235.813 101.374 235.938 101.941 235.938ZM108.574 237V227.727H109.951V229.176H110.072C110.265 228.681 110.577 228.297 111.007 228.023C111.438 227.745 111.955 227.607 112.559 227.607C113.171 227.607 113.68 227.745 114.086 228.023C114.497 228.297 114.817 228.681 115.046 229.176H115.143C115.38 228.697 115.736 228.317 116.211 228.035C116.686 227.749 117.256 227.607 117.92 227.607C118.749 227.607 119.427 227.866 119.954 228.385C120.481 228.9 120.745 229.703 120.745 230.794V237H119.32V230.794C119.32 230.11 119.133 229.621 118.759 229.327C118.384 229.033 117.944 228.886 117.437 228.886C116.785 228.886 116.28 229.084 115.921 229.478C115.563 229.868 115.384 230.363 115.384 230.963V237H113.935V230.649C113.935 230.122 113.764 229.697 113.422 229.375C113.08 229.049 112.639 228.886 112.1 228.886C111.73 228.886 111.384 228.985 111.062 229.182C110.744 229.379 110.486 229.653 110.289 230.003C110.096 230.349 109.999 230.75 109.999 231.205V237H108.574ZM123.35 237V227.727H124.775V237H123.35ZM124.074 226.182C123.797 226.182 123.557 226.087 123.356 225.898C123.159 225.709 123.06 225.482 123.06 225.216C123.06 224.95 123.159 224.723 123.356 224.534C123.557 224.345 123.797 224.25 124.074 224.25C124.352 224.25 124.589 224.345 124.787 224.534C124.988 224.723 125.089 224.95 125.089 225.216C125.089 225.482 124.988 225.709 124.787 225.898C124.589 226.087 124.352 226.182 124.074 226.182ZM128.809 224.636V237H127.384V224.636H128.809ZM131.418 237V227.727H132.843V237H131.418ZM132.143 226.182C131.865 226.182 131.626 226.087 131.424 225.898C131.227 225.709 131.128 225.482 131.128 225.216C131.128 224.95 131.227 224.723 131.424 224.534C131.626 224.345 131.865 224.25 132.143 224.25C132.42 224.25 132.658 224.345 132.855 224.534C133.056 224.723 133.157 224.95 133.157 225.216C133.157 225.482 133.056 225.709 132.855 225.898C132.658 226.087 132.42 226.182 132.143 226.182ZM138.181 237.217C137.594 237.217 137.06 237.107 136.581 236.885C136.102 236.66 135.722 236.336 135.44 235.913C135.159 235.487 135.018 234.972 135.018 234.368C135.018 233.837 135.122 233.406 135.332 233.076C135.541 232.742 135.821 232.48 136.171 232.291C136.521 232.102 136.907 231.961 137.33 231.869C137.757 231.772 138.185 231.696 138.616 231.639C139.179 231.567 139.636 231.512 139.986 231.476C140.34 231.436 140.598 231.37 140.759 231.277C140.924 231.184 141.006 231.023 141.006 230.794V230.746C141.006 230.15 140.843 229.687 140.517 229.357C140.195 229.027 139.706 228.862 139.05 228.862C138.37 228.862 137.837 229.011 137.451 229.309C137.064 229.607 136.793 229.925 136.636 230.263L135.283 229.78C135.525 229.216 135.847 228.778 136.249 228.464C136.656 228.146 137.098 227.924 137.577 227.8C138.06 227.671 138.535 227.607 139.002 227.607C139.3 227.607 139.642 227.643 140.028 227.715C140.419 227.784 140.795 227.926 141.157 228.144C141.524 228.361 141.827 228.689 142.069 229.128C142.31 229.567 142.431 230.154 142.431 230.891V237H141.006V235.744H140.934C140.837 235.946 140.676 236.161 140.451 236.39C140.226 236.62 139.926 236.815 139.551 236.976C139.177 237.137 138.72 237.217 138.181 237.217ZM138.398 235.938C138.962 235.938 139.437 235.827 139.823 235.605C140.214 235.384 140.507 235.098 140.705 234.748C140.906 234.398 141.006 234.03 141.006 233.643V232.339C140.946 232.412 140.813 232.478 140.608 232.539C140.407 232.595 140.173 232.645 139.908 232.69C139.646 232.73 139.391 232.766 139.141 232.798C138.895 232.826 138.696 232.851 138.543 232.871C138.173 232.919 137.827 232.998 137.505 233.106C137.187 233.211 136.929 233.37 136.732 233.583C136.539 233.792 136.442 234.078 136.442 234.44C136.442 234.935 136.626 235.31 136.992 235.563C137.362 235.813 137.831 235.938 138.398 235.938ZM25.1079 258.217C24.5203 258.217 23.987 258.107 23.5081 257.885C23.0291 257.66 22.6488 257.336 22.3671 256.913C22.0854 256.487 21.9445 255.972 21.9445 255.368C21.9445 254.837 22.0492 254.406 22.2584 254.076C22.4677 253.742 22.7474 253.48 23.0976 253.291C23.4477 253.102 23.8341 252.961 24.2567 252.869C24.6833 252.772 25.1119 252.696 25.5425 252.639C26.106 252.567 26.5628 252.512 26.9129 252.476C27.2671 252.436 27.5247 252.37 27.6856 252.277C27.8506 252.184 27.9331 252.023 27.9331 251.794V251.746C27.9331 251.15 27.7702 250.687 27.4442 250.357C27.1222 250.027 26.6332 249.862 25.9772 249.862C25.297 249.862 24.7638 250.011 24.3774 250.309C23.991 250.607 23.7194 250.925 23.5624 251.263L22.2101 250.78C22.4516 250.216 22.7736 249.778 23.176 249.464C23.5825 249.146 24.0252 248.924 24.5042 248.8C24.9871 248.671 25.462 248.607 25.9289 248.607C26.2267 248.607 26.5688 248.643 26.9552 248.715C27.3456 248.784 27.7219 248.926 28.0841 249.144C28.4503 249.361 28.7542 249.689 28.9956 250.128C29.2371 250.567 29.3579 251.154 29.3579 251.891V258H27.9331V256.744H27.8607C27.7641 256.946 27.6031 257.161 27.3778 257.39C27.1524 257.62 26.8525 257.815 26.4782 257.976C26.104 258.137 25.6472 258.217 25.1079 258.217ZM25.3252 256.938C25.8886 256.938 26.3635 256.827 26.7499 256.605C27.1403 256.384 27.4341 256.098 27.6313 255.748C27.8325 255.398 27.9331 255.03 27.9331 254.643V253.339C27.8728 253.412 27.74 253.478 27.5347 253.539C27.3335 253.595 27.1001 253.645 26.8344 253.69C26.5728 253.73 26.3173 253.766 26.0677 253.798C25.8222 253.826 25.623 253.851 25.4701 253.871C25.0998 253.919 24.7537 253.998 24.4317 254.106C24.1138 254.211 23.8562 254.37 23.659 254.583C23.4658 254.792 23.3692 255.078 23.3692 255.44C23.3692 255.935 23.5523 256.31 23.9186 256.563C24.2889 256.813 24.7577 256.938 25.3252 256.938ZM40.8688 248.727V249.935H35.8702V248.727H40.8688ZM37.3674 258V247.447C37.3674 246.916 37.4921 246.473 37.7417 246.119C37.9912 245.765 38.3152 245.5 38.7136 245.322C39.112 245.145 39.5326 245.057 39.9753 245.057C40.3255 245.057 40.6112 245.085 40.8326 245.141C41.0539 245.198 41.2189 245.25 41.3276 245.298L40.9171 246.53C40.8446 246.506 40.744 246.475 40.6152 246.439C40.4905 246.403 40.3255 246.385 40.1202 246.385C39.6493 246.385 39.3092 246.504 39.1 246.741C38.8947 246.979 38.7921 247.327 38.7921 247.786V258H37.3674ZM46.2507 258.193C45.4136 258.193 44.6791 257.994 44.0472 257.596C43.4194 257.197 42.9284 256.64 42.5742 255.923C42.2241 255.207 42.049 254.37 42.049 253.412C42.049 252.446 42.2241 251.603 42.5742 250.882C42.9284 250.162 43.4194 249.603 44.0472 249.204C44.6791 248.806 45.4136 248.607 46.2507 248.607C47.0878 248.607 47.8203 248.806 48.4482 249.204C49.08 249.603 49.571 250.162 49.9212 250.882C50.2753 251.603 50.4524 252.446 50.4524 253.412C50.4524 254.37 50.2753 255.207 49.9212 255.923C49.571 256.64 49.08 257.197 48.4482 257.596C47.8203 257.994 47.0878 258.193 46.2507 258.193ZM46.2507 256.913C46.8866 256.913 47.4098 256.75 47.8203 256.424C48.2308 256.098 48.5347 255.67 48.7319 255.138C48.9291 254.607 49.0277 254.032 49.0277 253.412C49.0277 252.792 48.9291 252.215 48.7319 251.679C48.5347 251.144 48.2308 250.711 47.8203 250.381C47.4098 250.051 46.8866 249.886 46.2507 249.886C45.6148 249.886 45.0916 250.051 44.6811 250.381C44.2706 250.711 43.9667 251.144 43.7695 251.679C43.5723 252.215 43.4737 252.792 43.4737 253.412C43.4737 254.032 43.5723 254.607 43.7695 255.138C43.9667 255.67 44.2706 256.098 44.6811 256.424C45.0916 256.75 45.6148 256.913 46.2507 256.913ZM52.6272 258V248.727H54.0036V250.128H54.1002C54.2693 249.669 54.5751 249.297 55.0178 249.011C55.4606 248.725 55.9596 248.582 56.515 248.582C56.6196 248.582 56.7504 248.584 56.9074 248.588C57.0644 248.592 57.1831 248.598 57.2636 248.607V250.055C57.2153 250.043 57.1046 250.025 56.9316 250.001C56.7625 249.973 56.5834 249.959 56.3943 249.959C55.9435 249.959 55.541 250.053 55.1869 250.243C54.8367 250.428 54.559 250.685 54.3538 251.015C54.1526 251.341 54.0519 251.714 54.0519 252.132V258H52.6272ZM58.9524 258V248.727H60.3288V250.176H60.4496C60.6428 249.681 60.9547 249.297 61.3853 249.023C61.8159 248.745 62.3331 248.607 62.9368 248.607C63.5485 248.607 64.0576 248.745 64.4641 249.023C64.8746 249.297 65.1946 249.681 65.424 250.176H65.5206C65.758 249.697 66.1142 249.317 66.5891 249.035C67.064 248.749 67.6335 248.607 68.2976 248.607C69.1267 248.607 69.8048 248.866 70.332 249.385C70.8593 249.9 71.1229 250.703 71.1229 251.794V258H69.6982V251.794C69.6982 251.11 69.511 250.621 69.1367 250.327C68.7624 250.033 68.3217 249.886 67.8146 249.886C67.1626 249.886 66.6576 250.084 66.2994 250.478C65.9412 250.868 65.7621 251.363 65.7621 251.963V258H64.3132V251.649C64.3132 251.122 64.1422 250.697 63.8001 250.375C63.458 250.049 63.0173 249.886 62.478 249.886C62.1077 249.886 61.7616 249.985 61.4396 250.182C61.1217 250.379 60.8641 250.653 60.6669 251.003C60.4737 251.349 60.3771 251.75 60.3771 252.205V258H58.9524ZM76.4565 258.217C75.8689 258.217 75.3356 258.107 74.8567 257.885C74.3778 257.66 73.9975 257.336 73.7157 256.913C73.434 256.487 73.2931 255.972 73.2931 255.368C73.2931 254.837 73.3978 254.406 73.6071 254.076C73.8163 253.742 74.0961 253.48 74.4462 253.291C74.7963 253.102 75.1827 252.961 75.6053 252.869C76.0319 252.772 76.4605 252.696 76.8912 252.639C77.4546 252.567 77.9114 252.512 78.2615 252.476C78.6157 252.436 78.8733 252.37 79.0343 252.277C79.1993 252.184 79.2818 252.023 79.2818 251.794V251.746C79.2818 251.15 79.1188 250.687 78.7928 250.357C78.4708 250.027 77.9818 249.862 77.3258 249.862C76.6457 249.862 76.1124 250.011 75.726 250.309C75.3397 250.607 75.068 250.925 74.911 251.263L73.5588 250.78C73.8002 250.216 74.1222 249.778 74.5247 249.464C74.9312 249.146 75.3739 248.924 75.8528 248.8C76.3358 248.671 76.8107 248.607 77.2775 248.607C77.5753 248.607 77.9174 248.643 78.3038 248.715C78.6942 248.784 79.0705 248.926 79.4327 249.144C79.7989 249.361 80.1028 249.689 80.3443 250.128C80.5858 250.567 80.7065 251.154 80.7065 251.891V258H79.2818V256.744H79.2093C79.1127 256.946 78.9518 257.161 78.7264 257.39C78.501 257.62 78.2012 257.815 77.8269 257.976C77.4526 258.137 76.9958 258.217 76.4565 258.217ZM76.6738 256.938C77.2373 256.938 77.7122 256.827 78.0985 256.605C78.4889 256.384 78.7827 256.098 78.9799 255.748C79.1812 255.398 79.2818 255.03 79.2818 254.643V253.339C79.2214 253.412 79.0886 253.478 78.8833 253.539C78.6821 253.595 78.4487 253.645 78.1831 253.69C77.9215 253.73 77.6659 253.766 77.4164 253.798C77.1709 253.826 76.9717 253.851 76.8187 253.871C76.4484 253.919 76.1023 253.998 75.7804 254.106C75.4624 254.211 75.2048 254.37 75.0076 254.583C74.8145 254.792 74.7179 255.078 74.7179 255.44C74.7179 255.935 74.901 256.31 75.2672 256.563C75.6375 256.813 76.1064 256.938 76.6738 256.938ZM83.3069 258V248.727H84.6833V250.128H84.7799C84.949 249.669 85.2548 249.297 85.6975 249.011C86.1402 248.725 86.6393 248.582 87.1947 248.582C87.2993 248.582 87.4301 248.584 87.5871 248.588C87.7441 248.592 87.8628 248.598 87.9433 248.607V250.055C87.895 250.043 87.7843 250.025 87.6112 250.001C87.4422 249.973 87.2631 249.959 87.074 249.959C86.6232 249.959 86.2207 250.053 85.8666 250.243C85.5164 250.428 85.2387 250.685 85.0335 251.015C84.8322 251.341 84.7316 251.714 84.7316 252.132V258H83.3069ZM94.4134 261.477V248.727H95.7898V250.2H95.9588C96.0634 250.039 96.2083 249.834 96.3935 249.585C96.5826 249.331 96.8523 249.106 97.2024 248.908C97.5566 248.707 98.0355 248.607 98.6392 248.607C99.42 248.607 100.108 248.802 100.704 249.192C101.299 249.583 101.764 250.136 102.098 250.852C102.432 251.569 102.599 252.414 102.599 253.388C102.599 254.37 102.432 255.221 102.098 255.941C101.764 256.658 101.301 257.213 100.71 257.608C100.118 257.998 99.4361 258.193 98.6634 258.193C98.0677 258.193 97.5908 258.095 97.2326 257.897C96.8744 257.696 96.5987 257.469 96.4055 257.215C96.2124 256.958 96.0634 256.744 95.9588 256.575H95.8381V261.477H94.4134ZM95.8139 253.364C95.8139 254.064 95.9165 254.682 96.1218 255.217C96.3271 255.748 96.6269 256.165 97.0213 256.467C97.4157 256.764 97.8987 256.913 98.4702 256.913C99.0658 256.913 99.5629 256.756 99.9613 256.442C100.364 256.125 100.666 255.698 100.867 255.163C101.072 254.623 101.175 254.024 101.175 253.364C101.175 252.712 101.074 252.124 100.873 251.601C100.676 251.074 100.376 250.657 99.9734 250.351C99.5749 250.041 99.0739 249.886 98.4702 249.886C97.8906 249.886 97.4036 250.033 97.0092 250.327C96.6148 250.617 96.317 251.023 96.1158 251.547C95.9145 252.066 95.8139 252.671 95.8139 253.364ZM107.501 258.217C106.914 258.217 106.381 258.107 105.902 257.885C105.423 257.66 105.042 257.336 104.761 256.913C104.479 256.487 104.338 255.972 104.338 255.368C104.338 254.837 104.443 254.406 104.652 254.076C104.861 253.742 105.141 253.48 105.491 253.291C105.841 253.102 106.228 252.961 106.65 252.869C107.077 252.772 107.505 252.696 107.936 252.639C108.5 252.567 108.956 252.512 109.306 252.476C109.661 252.436 109.918 252.37 110.079 252.277C110.244 252.184 110.327 252.023 110.327 251.794V251.746C110.327 251.15 110.164 250.687 109.838 250.357C109.516 250.027 109.027 249.862 108.371 249.862C107.691 249.862 107.157 250.011 106.771 250.309C106.385 250.607 106.113 250.925 105.956 251.263L104.604 250.78C104.845 250.216 105.167 249.778 105.57 249.464C105.976 249.146 106.419 248.924 106.898 248.8C107.381 248.671 107.856 248.607 108.322 248.607C108.62 248.607 108.962 248.643 109.349 248.715C109.739 248.784 110.115 248.926 110.478 249.144C110.844 249.361 111.148 249.689 111.389 250.128C111.631 250.567 111.751 251.154 111.751 251.891V258H110.327V256.744H110.254C110.158 256.946 109.997 257.161 109.771 257.39C109.546 257.62 109.246 257.815 108.872 257.976C108.498 258.137 108.041 258.217 107.501 258.217ZM107.719 256.938C108.282 256.938 108.757 256.827 109.143 256.605C109.534 256.384 109.828 256.098 110.025 255.748C110.226 255.398 110.327 255.03 110.327 254.643V253.339C110.266 253.412 110.134 253.478 109.928 253.539C109.727 253.595 109.494 253.645 109.228 253.69C108.966 253.73 108.711 253.766 108.461 253.798C108.216 253.826 108.017 253.851 107.864 253.871C107.493 253.919 107.147 253.998 106.825 254.106C106.507 254.211 106.25 254.37 106.053 254.583C105.859 254.792 105.763 255.078 105.763 255.44C105.763 255.935 105.946 256.31 106.312 256.563C106.682 256.813 107.151 256.938 107.719 256.938ZM114.352 258V248.727H115.728V250.128H115.825C115.994 249.669 116.3 249.297 116.742 249.011C117.185 248.725 117.684 248.582 118.24 248.582C118.344 248.582 118.475 248.584 118.632 248.588C118.789 248.592 118.908 248.598 118.988 248.607V250.055C118.94 250.043 118.829 250.025 118.656 250.001C118.487 249.973 118.308 249.959 118.119 249.959C117.668 249.959 117.266 250.053 116.911 250.243C116.561 250.428 116.284 250.685 116.078 251.015C115.877 251.341 115.777 251.714 115.777 252.132V258H114.352ZM125.291 248.727V249.935H120.485V248.727H125.291ZM121.886 246.506H123.311V255.344C123.311 255.746 123.369 256.048 123.486 256.249C123.606 256.446 123.759 256.579 123.945 256.648C124.134 256.712 124.333 256.744 124.542 256.744C124.699 256.744 124.828 256.736 124.929 256.72C125.029 256.7 125.11 256.684 125.17 256.672L125.46 257.952C125.363 257.988 125.228 258.024 125.055 258.06C124.882 258.101 124.663 258.121 124.397 258.121C123.995 258.121 123.6 258.034 123.214 257.861C122.832 257.688 122.514 257.424 122.26 257.07C122.011 256.716 121.886 256.269 121.886 255.73V246.506ZM131.222 258.193C130.329 258.193 129.558 257.996 128.91 257.602C128.266 257.203 127.769 256.648 127.419 255.935C127.073 255.219 126.9 254.386 126.9 253.436C126.9 252.486 127.073 251.649 127.419 250.925C127.769 250.196 128.256 249.629 128.88 249.222C129.508 248.812 130.24 248.607 131.077 248.607C131.56 248.607 132.037 248.687 132.508 248.848C132.979 249.009 133.407 249.271 133.794 249.633C134.18 249.991 134.488 250.466 134.717 251.058C134.947 251.649 135.062 252.378 135.062 253.243V253.847H127.914V252.615H133.613C133.613 252.092 133.508 251.625 133.299 251.214C133.093 250.804 132.8 250.48 132.417 250.243C132.039 250.005 131.592 249.886 131.077 249.886C130.51 249.886 130.019 250.027 129.604 250.309C129.194 250.587 128.878 250.949 128.656 251.396C128.435 251.842 128.324 252.321 128.324 252.832V253.653C128.324 254.354 128.445 254.947 128.687 255.434C128.932 255.917 129.272 256.286 129.707 256.539C130.141 256.789 130.647 256.913 131.222 256.913C131.596 256.913 131.934 256.861 132.236 256.756C132.542 256.648 132.806 256.487 133.027 256.273C133.248 256.056 133.419 255.786 133.54 255.464L134.917 255.851C134.772 256.318 134.528 256.728 134.186 257.082C133.844 257.433 133.421 257.706 132.918 257.903C132.415 258.097 131.85 258.193 131.222 258.193Z" fill="white"/>
<path d="M40.6626 91.3624C42.9697 88.9459 44.722 87.7418 47.9688 86.761C61.6776 82.6196 63.9504 105.862 53.5914 112.12C40.2476 120.181 30.3613 102.127 39.7563 93.8476" stroke="white" strokeWidth="5.92" strokeLinecap="round" stroke-linejoin="round"/>
<path d="M98.9293 97.3051C102.436 94.4255 108.491 92.9958 113.098 94.8394C127.97 100.791 119.837 120.818 104.933 118.829C94.8864 117.49 95.4397 99.0865 103.252 95.96" stroke="white" strokeWidth="5.92" strokeLinecap="round" stroke-linejoin="round"/>
<path d="M70.0771 129.232C73.3287 126.65 78.9436 125.369 83.2151 127.022C97.0058 132.357 89.4642 150.313 75.6437 148.53C66.3281 147.329 66.8412 130.829 74.0854 128.026" stroke="white" strokeWidth="5.92" strokeLinecap="round" stroke-linejoin="round"/>
<path d="M32.1895 160.85C32.717 159.822 32.1895 138.07 39.4045 124.75C40.8228 131.657 41.6985 154.424 40.5145 158.42M60.9283 147.319C58.6692 144.739 55.5426 128.484 55.3145 126.23C54.2661 131.41 52.7985 150.169 53.0945 157.125" stroke="white" strokeWidth="5.92" strokeLinecap="round" stroke-linejoin="round"/>
<path d="M120.347 164.18C115.843 164.893 112.868 165.331 111.422 165.494C103.912 166.342 101.338 166.293 100.55 166.293C99.027 166.293 108.84 124.991 111.422 124.991C113.143 124.991 120.347 150.465 131.164 165.494" stroke="white" strokeWidth="5.92" strokeLinecap="round" stroke-linejoin="round"/>
<path d="M40.3402 158.119C39.6088 163.005 39.2431 168.83 39.2431 175.592C39.2431 182.354 39.6088 188.734 40.3402 194.731L36.0508 195.549" stroke="white" strokeWidth="5.92" strokeLinecap="round" stroke-linejoin="round"/>
<path d="M52.9102 158.05C54.0202 161.739 54.5752 166.691 54.5752 172.908C54.5752 179.124 54.0202 185.765 52.9102 192.83H56.2402" stroke="white" strokeWidth="5.92" strokeLinecap="round" stroke-linejoin="round"/>
<path d="M59.2129 146.933C61.1544 150.496 62.5566 152.436 63.4195 152.752C64.2824 153.067 66.5917 153.709 70.3475 154.677M85.6093 153.794C89.1526 153.257 91.4635 152.515 92.5421 151.567C93.6207 150.619 94.8072 149.654 96.1016 148.671" stroke="white" strokeWidth="5.92" strokeLinecap="round" stroke-linejoin="round"/>
<path d="M70.4341 155.537L72.938 171.1L70.4341 188.665L64.004 178.558L60.9277 177.52" stroke="white" strokeWidth="5.92" strokeLinecap="round" stroke-linejoin="round"/>
<path d="M85.1614 153.386L81.0879 171.261L85.1614 186.514L92.1062 176.691L95.6718 175.601" stroke="white" strokeWidth="5.92" strokeLinecap="round" stroke-linejoin="round"/>
<path d="M107.683 166.293V196.704L104.252 197.27" stroke="white" strokeWidth="5.92" strokeLinecap="round" stroke-linejoin="round"/>
<path d="M117.119 165.003V197.27H120.551" stroke="white" strokeWidth="5.92" strokeLinecap="round" stroke-linejoin="round"/>
<path d="M111.115 124.991C102.457 140.088 97.167 148.406 95.2441 149.944" stroke="white" strokeWidth="5.92" strokeLinecap="round" stroke-linejoin="round"/>
<path d="M180.968 155.323C231.379 183.223 279.152 147.73 288.977 142.281" stroke="white" strokeWidth="5.28607" strokeLinecap="round" stroke-linejoin="round"/>
<path d="M289.654 166.903C289.293 150.826 289.049 142.548 288.921 142.071C288.729 141.355 276.691 139.207 269.708 132.914" stroke="white" strokeWidth="5.28607" strokeLinecap="round" stroke-linejoin="round"/>
</svg>
