<svg width="286" height="129" viewBox="0 0 286 129" fill="none" xmlns="http://www.w3.org/2000/svg">
<path d="M91.0572 10H88.1729V0.653403H91.1849C92.0916 0.653403 92.8674 0.840517 93.5125 1.21475C94.1575 1.58593 94.6519 2.11989 94.9957 2.81663C95.3395 3.51032 95.5114 4.34093 95.5114 5.30845C95.5114 6.28205 95.338 7.12026 94.9911 7.82308C94.6443 8.52286 94.1392 9.06138 93.476 9.43866C92.8127 9.81289 92.0064 10 91.0572 10ZM89.3047 8.99597H90.9841C91.7569 8.99597 92.3974 8.84689 92.9055 8.54872C93.4136 8.25056 93.7924 7.82613 94.0419 7.27543C94.2913 6.72474 94.4161 6.06907 94.4161 5.30845C94.4161 4.5539 94.2929 3.90433 94.0464 3.35972C93.8 2.81206 93.4318 2.3922 92.942 2.10012C92.4521 1.80499 91.8421 1.65743 91.1119 1.65743H89.3047V8.99597ZM100.203 10.146C99.5275 10.146 98.9449 9.99696 98.455 9.69879C97.9682 9.39758 97.5925 8.97772 97.3278 8.43919C97.0661 7.89762 96.9353 7.26782 96.9353 6.54979C96.9353 5.83176 97.0661 5.19892 97.3278 4.65126C97.5925 4.10057 97.9606 3.67157 98.4322 3.36428C98.9068 3.05394 99.4606 2.89878 100.093 2.89878C100.459 2.89878 100.819 2.95963 101.175 3.08133C101.531 3.20303 101.855 3.40079 102.147 3.67462C102.439 3.9454 102.672 4.30442 102.845 4.75167C103.019 5.19892 103.106 5.74961 103.106 6.40375V6.86013H97.702V5.92912H102.01C102.01 5.53359 101.931 5.18066 101.773 4.87032C101.618 4.55999 101.396 4.31507 101.107 4.13556C100.821 3.95605 100.483 3.8663 100.093 3.8663C99.6644 3.8663 99.2932 3.97278 98.9799 4.18576C98.6695 4.39569 98.4307 4.66952 98.2633 5.00724C98.096 5.34496 98.0123 5.70702 98.0123 6.09341V6.71409C98.0123 7.24348 98.1036 7.69225 98.2862 8.0604C98.4718 8.4255 98.7289 8.70389 99.0574 8.89557C99.386 9.0842 99.7679 9.17852 100.203 9.17852C100.486 9.17852 100.741 9.13897 100.97 9.05986C101.201 8.97772 101.4 8.85602 101.568 8.69476C101.735 8.53047 101.864 8.32662 101.955 8.08322L102.996 8.3753C102.886 8.72823 102.702 9.03857 102.444 9.30631C102.185 9.57101 101.866 9.7779 101.485 9.92698C101.105 10.073 100.678 10.146 100.203 10.146ZM109.709 4.55999L108.742 4.83381C108.681 4.67256 108.591 4.51587 108.472 4.36375C108.357 4.20858 108.199 4.08079 107.998 3.98039C107.797 3.87999 107.54 3.82979 107.227 3.82979C106.798 3.82979 106.44 3.92867 106.154 4.12643C105.871 4.32115 105.73 4.56912 105.73 4.87032C105.73 5.13807 105.827 5.34952 106.022 5.50469C106.216 5.65986 106.521 5.78916 106.935 5.89261L107.975 6.14818C108.602 6.30031 109.069 6.53306 109.376 6.84644C109.683 7.15677 109.837 7.55686 109.837 8.04671C109.837 8.44832 109.721 8.80734 109.49 9.12376C109.262 9.44018 108.943 9.68966 108.532 9.87221C108.121 10.0548 107.643 10.146 107.099 10.146C106.384 10.146 105.792 9.99087 105.323 9.68054C104.855 9.3702 104.558 8.91687 104.434 8.32053L105.456 8.06496C105.553 8.44223 105.737 8.72519 106.008 8.91382C106.282 9.10246 106.639 9.19678 107.081 9.19678C107.583 9.19678 107.981 9.09029 108.276 8.87731C108.574 8.66129 108.723 8.40268 108.723 8.10147C108.723 7.85807 108.638 7.65422 108.468 7.48993C108.298 7.32259 108.036 7.19785 107.683 7.1157L106.515 6.84187C105.873 6.68975 105.401 6.45395 105.1 6.13449C104.802 5.81198 104.653 5.40885 104.653 4.92509C104.653 4.52956 104.764 4.17967 104.986 3.87542C105.211 3.57117 105.517 3.33233 105.903 3.15891C106.293 2.98549 106.734 2.89878 107.227 2.89878C107.92 2.89878 108.465 3.0509 108.86 3.35515C109.259 3.6594 109.542 4.06102 109.709 4.55999ZM114.306 10.146C113.649 10.146 113.083 9.99087 112.608 9.68054C112.134 9.3702 111.769 8.94273 111.513 8.39812C111.258 7.85351 111.13 7.23131 111.13 6.53154C111.13 5.81959 111.261 5.19131 111.522 4.6467C111.787 4.09905 112.155 3.67157 112.627 3.36428C113.101 3.05394 113.655 2.89878 114.288 2.89878C114.781 2.89878 115.225 2.99005 115.62 3.1726C116.016 3.35515 116.34 3.61072 116.593 3.93932C116.845 4.26791 117.002 4.65126 117.063 5.08939H115.986C115.903 4.76992 115.721 4.48697 115.438 4.24052C115.158 3.99104 114.781 3.8663 114.306 3.8663C113.886 3.8663 113.518 3.97583 113.202 4.19489C112.888 4.41091 112.643 4.71668 112.467 5.1122C112.294 5.50469 112.207 5.96563 112.207 6.49503C112.207 7.03659 112.292 7.50818 112.462 7.90979C112.636 8.31141 112.879 8.62326 113.193 8.84537C113.509 9.06747 113.88 9.17852 114.306 9.17852C114.586 9.17852 114.84 9.12984 115.068 9.03248C115.296 8.93512 115.49 8.79517 115.648 8.61261C115.806 8.43006 115.919 8.211 115.986 7.95543H117.063C117.002 8.36921 116.851 8.74192 116.611 9.07356C116.374 9.40215 116.059 9.6638 115.666 9.85852C115.277 10.0502 114.823 10.146 114.306 10.146ZM120.7 10.1643C120.256 10.1643 119.853 10.0806 119.491 9.91329C119.129 9.74291 118.841 9.49799 118.628 9.17852C118.415 8.85602 118.309 8.46657 118.309 8.0102C118.309 7.60859 118.388 7.28304 118.546 7.03355C118.704 6.78102 118.916 6.58326 119.18 6.44026C119.445 6.29726 119.737 6.19077 120.056 6.1208C120.379 6.04778 120.703 5.98997 121.029 5.94737C121.455 5.89261 121.8 5.85153 122.065 5.82415C122.332 5.79373 122.527 5.74353 122.649 5.67355C122.773 5.60357 122.836 5.48187 122.836 5.30845V5.27194C122.836 4.82164 122.713 4.47176 122.466 4.22227C122.223 3.97278 121.853 3.84804 121.357 3.84804C120.843 3.84804 120.44 3.96061 120.148 4.18576C119.856 4.41091 119.65 4.65126 119.532 4.90683L118.509 4.54173C118.692 4.11578 118.935 3.78415 119.24 3.54683C119.547 3.30647 119.882 3.13913 120.244 3.04482C120.609 2.94746 120.968 2.89878 121.321 2.89878C121.546 2.89878 121.804 2.92616 122.096 2.98092C122.392 3.03265 122.676 3.14066 122.95 3.30495C123.227 3.46925 123.456 3.71721 123.639 4.04885C123.822 4.38048 123.913 4.82469 123.913 5.38147V10H122.836V9.05074H122.781C122.708 9.20286 122.586 9.36564 122.416 9.53906C122.246 9.71248 122.019 9.86004 121.736 9.98174C121.453 10.1034 121.108 10.1643 120.7 10.1643ZM120.864 9.19678C121.29 9.19678 121.649 9.11311 121.941 8.94577C122.236 8.77843 122.459 8.56241 122.608 8.29771C122.76 8.03302 122.836 7.75463 122.836 7.46254V6.47677C122.79 6.53154 122.69 6.58174 122.535 6.62738C122.382 6.66997 122.206 6.708 122.005 6.74147C121.807 6.77189 121.614 6.79928 121.426 6.82362C121.24 6.84491 121.089 6.86317 120.974 6.87838C120.694 6.91489 120.432 6.97422 120.189 7.05637C119.948 7.13547 119.754 7.25565 119.605 7.41691C119.459 7.57512 119.386 7.79114 119.386 8.06496C119.386 8.43919 119.524 8.72214 119.801 8.91382C120.081 9.10246 120.435 9.19678 120.864 9.19678ZM125.879 10V2.99005H126.919V4.04885H126.992C127.12 3.702 127.351 3.42057 127.686 3.20455C128.021 2.98853 128.398 2.88052 128.818 2.88052C128.897 2.88052 128.996 2.88204 129.114 2.88509C129.233 2.88813 129.323 2.89269 129.384 2.89878V3.99408C129.347 3.98495 129.263 3.97126 129.133 3.95301C129.005 3.93171 128.869 3.92106 128.726 3.92106C128.386 3.92106 128.081 3.99256 127.814 4.13556C127.549 4.27551 127.339 4.47023 127.184 4.71972C127.032 4.96616 126.956 5.2476 126.956 5.56402V10H125.879ZM133.277 12.7748C132.756 12.7748 132.309 12.7078 131.935 12.574C131.561 12.4431 131.249 12.2697 130.999 12.0537C130.753 11.8407 130.557 11.6125 130.411 11.3691L131.269 10.7667C131.366 10.8945 131.489 11.0405 131.638 11.2048C131.787 11.3722 131.991 11.5167 132.25 11.6384C132.511 11.7631 132.854 11.8255 133.277 11.8255C133.842 11.8255 134.31 11.6886 134.678 11.4148C135.046 11.1409 135.23 10.7119 135.23 10.1278V8.70389H135.139C135.059 8.83168 134.947 8.98989 134.801 9.17852C134.658 9.36411 134.451 9.52993 134.18 9.67597C133.912 9.81897 133.55 9.89047 133.094 9.89047C132.528 9.89047 132.02 9.7566 131.57 9.48886C131.122 9.22112 130.768 8.83168 130.506 8.32053C130.248 7.80939 130.118 7.18872 130.118 6.45852C130.118 5.74048 130.245 5.11525 130.497 4.58281C130.75 4.04732 131.101 3.63354 131.551 3.34146C132.002 3.04634 132.522 2.89878 133.112 2.89878C133.569 2.89878 133.931 2.97484 134.198 3.12697C134.469 3.27605 134.676 3.44643 134.819 3.63811C134.965 3.82674 135.078 3.98191 135.157 4.10361H135.266V2.99005H136.307V10.2008C136.307 10.8032 136.17 11.2931 135.896 11.6703C135.625 12.0507 135.26 12.329 134.801 12.5055C134.344 12.685 133.836 12.7748 133.277 12.7748ZM133.24 8.92295C133.672 8.92295 134.037 8.82407 134.335 8.62631C134.634 8.42854 134.86 8.14407 135.015 7.77288C135.171 7.40169 135.248 6.95749 135.248 6.44026C135.248 5.9352 135.172 5.48948 135.02 5.10308C134.868 4.71668 134.643 4.41395 134.344 4.19489C134.046 3.97583 133.678 3.8663 133.24 3.8663C132.784 3.8663 132.403 3.98191 132.099 4.21314C131.798 4.44437 131.571 4.75471 131.419 5.14415C131.27 5.53359 131.195 5.96563 131.195 6.44026C131.195 6.92706 131.272 7.35758 131.424 7.73181C131.579 8.10299 131.807 8.39507 132.108 8.60805C132.412 8.81798 132.79 8.92295 133.24 8.92295ZM140.341 10.1643C139.897 10.1643 139.494 10.0806 139.132 9.91329C138.77 9.74291 138.482 9.49799 138.269 9.17852C138.056 8.85602 137.95 8.46657 137.95 8.0102C137.95 7.60859 138.029 7.28304 138.187 7.03355C138.345 6.78102 138.557 6.58326 138.822 6.44026C139.086 6.29726 139.378 6.19077 139.698 6.1208C140.02 6.04778 140.344 5.98997 140.67 5.94737C141.096 5.89261 141.441 5.85153 141.706 5.82415C141.974 5.79373 142.168 5.74353 142.29 5.67355C142.415 5.60357 142.477 5.48187 142.477 5.30845V5.27194C142.477 4.82164 142.354 4.47176 142.107 4.22227C141.864 3.97278 141.494 3.84804 140.998 3.84804C140.484 3.84804 140.081 3.96061 139.789 4.18576C139.497 4.41091 139.292 4.65126 139.173 4.90683L138.151 4.54173C138.333 4.11578 138.577 3.78415 138.881 3.54683C139.188 3.30647 139.523 3.13913 139.885 3.04482C140.25 2.94746 140.609 2.89878 140.962 2.89878C141.187 2.89878 141.446 2.92616 141.738 2.98092C142.033 3.03265 142.317 3.14066 142.591 3.30495C142.868 3.46925 143.098 3.71721 143.28 4.04885C143.463 4.38048 143.554 4.82469 143.554 5.38147V10H142.477V9.05074H142.422C142.349 9.20286 142.228 9.36564 142.057 9.53906C141.887 9.71248 141.66 9.86004 141.377 9.98174C141.094 10.1034 140.749 10.1643 140.341 10.1643ZM140.506 9.19678C140.932 9.19678 141.291 9.11311 141.583 8.94577C141.878 8.77843 142.1 8.56241 142.249 8.29771C142.401 8.03302 142.477 7.75463 142.477 7.46254V6.47677C142.431 6.53154 142.331 6.58174 142.176 6.62738C142.024 6.66997 141.847 6.708 141.647 6.74147C141.449 6.77189 141.256 6.79928 141.067 6.82362C140.881 6.84491 140.731 6.86317 140.615 6.87838C140.335 6.91489 140.074 6.97422 139.83 7.05637C139.59 7.13547 139.395 7.25565 139.246 7.41691C139.1 7.57512 139.027 7.79114 139.027 8.06496C139.027 8.43919 139.165 8.72214 139.442 8.91382C139.722 9.10246 140.077 9.19678 140.506 9.19678ZM150.212 0.653403V10H149.135V0.653403H150.212ZM154.247 10.1643C153.803 10.1643 153.4 10.0806 153.038 9.91329C152.676 9.74291 152.388 9.49799 152.175 9.17852C151.962 8.85602 151.856 8.46657 151.856 8.0102C151.856 7.60859 151.935 7.28304 152.093 7.03355C152.251 6.78102 152.463 6.58326 152.727 6.44026C152.992 6.29726 153.284 6.19077 153.604 6.1208C153.926 6.04778 154.25 5.98997 154.576 5.94737C155.002 5.89261 155.347 5.85153 155.612 5.82415C155.879 5.79373 156.074 5.74353 156.196 5.67355C156.321 5.60357 156.383 5.48187 156.383 5.30845V5.27194C156.383 4.82164 156.26 4.47176 156.013 4.22227C155.77 3.97278 155.4 3.84804 154.904 3.84804C154.39 3.84804 153.987 3.96061 153.695 4.18576C153.403 4.41091 153.197 4.65126 153.079 4.90683L152.056 4.54173C152.239 4.11578 152.482 3.78415 152.787 3.54683C153.094 3.30647 153.429 3.13913 153.791 3.04482C154.156 2.94746 154.515 2.89878 154.868 2.89878C155.093 2.89878 155.352 2.92616 155.644 2.98092C155.939 3.03265 156.223 3.14066 156.497 3.30495C156.774 3.46925 157.004 3.71721 157.186 4.04885C157.369 4.38048 157.46 4.82469 157.46 5.38147V10H156.383V9.05074H156.328C156.255 9.20286 156.133 9.36564 155.963 9.53906C155.793 9.71248 155.566 9.86004 155.283 9.98174C155 10.1034 154.655 10.1643 154.247 10.1643ZM154.411 9.19678C154.837 9.19678 155.196 9.11311 155.488 8.94577C155.784 8.77843 156.006 8.56241 156.155 8.29771C156.307 8.03302 156.383 7.75463 156.383 7.46254V6.47677C156.337 6.53154 156.237 6.58174 156.082 6.62738C155.93 6.66997 155.753 6.708 155.552 6.74147C155.355 6.77189 155.161 6.79928 154.973 6.82362C154.787 6.84491 154.637 6.86317 154.521 6.87838C154.241 6.91489 153.979 6.97422 153.736 7.05637C153.496 7.13547 153.301 7.25565 153.152 7.41691C153.006 7.57512 152.933 7.79114 152.933 8.06496C152.933 8.43919 153.071 8.72214 153.348 8.91382C153.628 9.10246 153.982 9.19678 154.411 9.19678ZM165.103 10.1643C164.659 10.1643 164.256 10.0806 163.894 9.91329C163.532 9.74291 163.244 9.49799 163.031 9.17852C162.818 8.85602 162.712 8.46657 162.712 8.0102C162.712 7.60859 162.791 7.28304 162.949 7.03355C163.107 6.78102 163.319 6.58326 163.583 6.44026C163.848 6.29726 164.14 6.19077 164.46 6.1208C164.782 6.04778 165.106 5.98997 165.432 5.94737C165.858 5.89261 166.203 5.85153 166.468 5.82415C166.735 5.79373 166.93 5.74353 167.052 5.67355C167.177 5.60357 167.239 5.48187 167.239 5.30845V5.27194C167.239 4.82164 167.116 4.47176 166.869 4.22227C166.626 3.97278 166.256 3.84804 165.76 3.84804C165.246 3.84804 164.843 3.96061 164.551 4.18576C164.259 4.41091 164.053 4.65126 163.935 4.90683L162.913 4.54173C163.095 4.11578 163.338 3.78415 163.643 3.54683C163.95 3.30647 164.285 3.13913 164.647 3.04482C165.012 2.94746 165.371 2.89878 165.724 2.89878C165.949 2.89878 166.208 2.92616 166.5 2.98092C166.795 3.03265 167.079 3.14066 167.353 3.30495C167.63 3.46925 167.86 3.71721 168.042 4.04885C168.225 4.38048 168.316 4.82469 168.316 5.38147V10H167.239V9.05074H167.184C167.111 9.20286 166.99 9.36564 166.819 9.53906C166.649 9.71248 166.422 9.86004 166.139 9.98174C165.856 10.1034 165.511 10.1643 165.103 10.1643ZM165.267 9.19678C165.693 9.19678 166.052 9.11311 166.344 8.94577C166.64 8.77843 166.862 8.56241 167.011 8.29771C167.163 8.03302 167.239 7.75463 167.239 7.46254V6.47677C167.193 6.53154 167.093 6.58174 166.938 6.62738C166.786 6.66997 166.609 6.708 166.408 6.74147C166.211 6.77189 166.017 6.79928 165.829 6.82362C165.643 6.84491 165.493 6.86317 165.377 6.87838C165.097 6.91489 164.835 6.97422 164.592 7.05637C164.352 7.13547 164.157 7.25565 164.008 7.41691C163.862 7.57512 163.789 7.79114 163.789 8.06496C163.789 8.43919 163.927 8.72214 164.204 8.91382C164.484 9.10246 164.838 9.19678 165.267 9.19678ZM170.282 12.6287V2.99005H171.322V4.10361H171.45C171.529 3.98191 171.639 3.82674 171.779 3.63811C171.922 3.44643 172.126 3.27605 172.39 3.12697C172.658 2.97484 173.02 2.89878 173.477 2.89878C174.067 2.89878 174.587 3.04634 175.037 3.34146C175.488 3.63659 175.839 4.05493 176.092 4.5965C176.344 5.13807 176.47 5.77699 176.47 6.51328C176.47 7.25565 176.344 7.89915 176.092 8.44376C175.839 8.98532 175.489 9.40519 175.042 9.70336C174.595 9.99848 174.079 10.146 173.495 10.146C173.044 10.146 172.684 10.0715 172.413 9.92242C172.142 9.77029 171.934 9.59839 171.788 9.40671C171.642 9.21199 171.529 9.05074 171.45 8.92295H171.359V12.6287H170.282ZM171.341 6.49503C171.341 7.02442 171.418 7.49145 171.573 7.8961C171.729 8.29771 171.955 8.61261 172.253 8.8408C172.552 9.06595 172.917 9.17852 173.349 9.17852C173.799 9.17852 174.175 9.05986 174.476 8.82255C174.78 8.58219 175.008 8.25968 175.161 7.85503C175.316 7.44733 175.393 6.994 175.393 6.49503C175.393 6.00214 175.317 5.55793 175.165 5.16241C175.016 4.76384 174.789 4.44894 174.485 4.21771C174.184 3.98343 173.805 3.8663 173.349 3.8663C172.911 3.8663 172.542 3.97735 172.244 4.19945C171.946 4.41851 171.721 4.72581 171.569 5.12133C171.417 5.51382 171.341 5.97171 171.341 6.49503ZM178.113 12.6287V2.99005H179.154V4.10361H179.282C179.361 3.98191 179.47 3.82674 179.61 3.63811C179.753 3.44643 179.957 3.27605 180.222 3.12697C180.49 2.97484 180.852 2.89878 181.308 2.89878C181.898 2.89878 182.418 3.04634 182.869 3.34146C183.319 3.63659 183.67 4.05493 183.923 4.5965C184.176 5.13807 184.302 5.77699 184.302 6.51328C184.302 7.25565 184.176 7.89915 183.923 8.44376C183.67 8.98532 183.321 9.40519 182.873 9.70336C182.426 9.99848 181.91 10.146 181.326 10.146C180.876 10.146 180.515 10.0715 180.245 9.92242C179.974 9.77029 179.765 9.59839 179.619 9.40671C179.473 9.21199 179.361 9.05074 179.282 8.92295H179.19V12.6287H178.113ZM179.172 6.49503C179.172 7.02442 179.25 7.49145 179.405 7.8961C179.56 8.29771 179.787 8.61261 180.085 8.8408C180.383 9.06595 180.748 9.17852 181.18 9.17852C181.63 9.17852 182.006 9.05986 182.307 8.82255C182.612 8.58219 182.84 8.25968 182.992 7.85503C183.147 7.44733 183.225 6.994 183.225 6.49503C183.225 6.00214 183.149 5.55793 182.997 5.16241C182.847 4.76384 182.621 4.44894 182.317 4.21771C182.015 3.98343 181.637 3.8663 181.18 3.8663C180.742 3.8663 180.374 3.97735 180.076 4.19945C179.778 4.41851 179.552 4.72581 179.4 5.12133C179.248 5.51382 179.172 5.97171 179.172 6.49503ZM95.7595 26V16.6534H101.4V17.6574H96.8914V20.8156H101.108V21.8196H96.8914V24.996H101.473V26H95.7595ZM103.294 26V18.9901H104.335V20.0854H104.426C104.572 19.7111 104.808 19.4206 105.134 19.2137C105.459 19.0037 105.85 18.8988 106.306 18.8988C106.769 18.8988 107.154 19.0037 107.461 19.2137C107.771 19.4206 108.013 19.7111 108.187 20.0854H108.26C108.439 19.7233 108.708 19.4358 109.067 19.2228C109.427 19.0068 109.857 18.8988 110.359 18.8988C110.986 18.8988 111.498 19.095 111.897 19.4875C112.296 19.8769 112.495 20.4839 112.495 21.3084V26H111.418V21.3084C111.418 20.7912 111.276 20.4216 110.993 20.1995C110.71 19.9773 110.377 19.8663 109.994 19.8663C109.501 19.8663 109.119 20.0154 108.848 20.3135C108.578 20.6087 108.442 20.9829 108.442 21.4362V26H107.347V21.1989C107.347 20.8003 107.218 20.4794 106.959 20.236C106.7 19.9895 106.367 19.8663 105.96 19.8663C105.68 19.8663 105.418 19.9408 105.175 20.0899C104.934 20.239 104.74 20.4459 104.59 20.7106C104.444 20.9722 104.371 21.275 104.371 21.6188V26H103.294ZM117.403 26.146C116.728 26.146 116.145 25.997 115.655 25.6988C115.168 25.3976 114.793 24.9777 114.528 24.4392C114.266 23.8976 114.136 23.2678 114.136 22.5498C114.136 21.8318 114.266 21.1989 114.528 20.6513C114.793 20.1006 115.161 19.6716 115.632 19.3643C116.107 19.0539 116.661 18.8988 117.294 18.8988C117.659 18.8988 118.019 18.9596 118.375 19.0813C118.731 19.203 119.055 19.4008 119.347 19.6746C119.639 19.9454 119.872 20.3044 120.046 20.7517C120.219 21.1989 120.306 21.7496 120.306 22.4038V22.8601H114.902V21.9291H119.21C119.21 21.5336 119.131 21.1807 118.973 20.8703C118.818 20.56 118.596 20.3151 118.307 20.1356C118.021 19.956 117.683 19.8663 117.294 19.8663C116.865 19.8663 116.494 19.9728 116.18 20.1858C115.87 20.3957 115.631 20.6695 115.464 21.0072C115.296 21.345 115.213 21.707 115.213 22.0934V22.7141C115.213 23.2435 115.304 23.6923 115.486 24.0604C115.672 24.4255 115.929 24.7039 116.258 24.8956C116.586 25.0842 116.968 25.1785 117.403 25.1785C117.686 25.1785 117.942 25.139 118.17 25.0599C118.401 24.9777 118.6 24.856 118.768 24.6948C118.935 24.5305 119.064 24.3266 119.156 24.0832L120.196 24.3753C120.087 24.7282 119.903 25.0386 119.644 25.3063C119.385 25.571 119.066 25.7779 118.686 25.927C118.305 26.073 117.878 26.146 117.403 26.146ZM121.944 26V18.9901H122.985V20.0488H123.058C123.186 19.702 123.417 19.4206 123.751 19.2045C124.086 18.9885 124.463 18.8805 124.883 18.8805C124.962 18.8805 125.061 18.882 125.18 18.8851C125.299 18.8881 125.388 18.8927 125.449 18.8988V19.9941C125.413 19.985 125.329 19.9713 125.198 19.953C125.07 19.9317 124.935 19.9211 124.792 19.9211C124.451 19.9211 124.147 19.9926 123.879 20.1356C123.615 20.2755 123.405 20.4702 123.249 20.7197C123.097 20.9662 123.021 21.2476 123.021 21.564V26H121.944ZM129.342 28.7748C128.822 28.7748 128.375 28.7078 128 28.574C127.626 28.4431 127.314 28.2697 127.065 28.0537C126.818 27.8407 126.622 27.6125 126.476 27.3691L127.334 26.7667C127.431 26.8945 127.555 27.0405 127.704 27.2048C127.853 27.3722 128.057 27.5167 128.315 27.6384C128.577 27.7631 128.919 27.8255 129.342 27.8255C129.908 27.8255 130.375 27.6886 130.743 27.4148C131.111 27.1409 131.295 26.7119 131.295 26.1278V24.7039H131.204C131.125 24.8317 131.012 24.9899 130.866 25.1785C130.723 25.3641 130.516 25.5299 130.246 25.676C129.978 25.819 129.616 25.8905 129.159 25.8905C128.594 25.8905 128.085 25.7566 127.635 25.4889C127.188 25.2211 126.833 24.8317 126.572 24.3205C126.313 23.8094 126.184 23.1887 126.184 22.4585C126.184 21.7405 126.31 21.1152 126.563 20.5828C126.815 20.0473 127.167 19.6335 127.617 19.3415C128.067 19.0463 128.587 18.8988 129.178 18.8988C129.634 18.8988 129.996 18.9748 130.264 19.127C130.535 19.276 130.742 19.4464 130.885 19.6381C131.031 19.8267 131.143 19.9819 131.222 20.1036H131.332V18.9901H132.372V26.2008C132.372 26.8032 132.235 27.2931 131.962 27.6703C131.691 28.0507 131.326 28.329 130.866 28.5055C130.41 28.685 129.902 28.7748 129.342 28.7748ZM129.306 24.923C129.738 24.923 130.103 24.8241 130.401 24.6263C130.699 24.4285 130.926 24.1441 131.081 23.7729C131.236 23.4017 131.314 22.9575 131.314 22.4403C131.314 21.9352 131.238 21.4895 131.085 21.1031C130.933 20.7167 130.708 20.4139 130.41 20.1949C130.112 19.9758 129.744 19.8663 129.306 19.8663C128.849 19.8663 128.469 19.9819 128.165 20.2131C127.863 20.4444 127.637 20.7547 127.485 21.1442C127.335 21.5336 127.261 21.9656 127.261 22.4403C127.261 22.9271 127.337 23.3576 127.489 23.7318C127.644 24.103 127.872 24.3951 128.174 24.6081C128.478 24.818 128.855 24.923 129.306 24.923ZM137.283 26.146C136.608 26.146 136.025 25.997 135.535 25.6988C135.048 25.3976 134.673 24.9777 134.408 24.4392C134.146 23.8976 134.015 23.2678 134.015 22.5498C134.015 21.8318 134.146 21.1989 134.408 20.6513C134.673 20.1006 135.041 19.6716 135.512 19.3643C135.987 19.0539 136.541 18.8988 137.173 18.8988C137.539 18.8988 137.899 18.9596 138.255 19.0813C138.611 19.203 138.935 19.4008 139.227 19.6746C139.519 19.9454 139.752 20.3044 139.925 20.7517C140.099 21.1989 140.186 21.7496 140.186 22.4038V22.8601H134.782V21.9291H139.09C139.09 21.5336 139.011 21.1807 138.853 20.8703C138.698 20.56 138.476 20.3151 138.187 20.1356C137.901 19.956 137.563 19.8663 137.173 19.8663C136.744 19.8663 136.373 19.9728 136.06 20.1858C135.75 20.3957 135.511 20.6695 135.343 21.0072C135.176 21.345 135.092 21.707 135.092 22.0934V22.7141C135.092 23.2435 135.184 23.6923 135.366 24.0604C135.552 24.4255 135.809 24.7039 136.137 24.8956C136.466 25.0842 136.848 25.1785 137.283 25.1785C137.566 25.1785 137.822 25.139 138.05 25.0599C138.281 24.9777 138.48 24.856 138.648 24.6948C138.815 24.5305 138.944 24.3266 139.035 24.0832L140.076 24.3753C139.966 24.7282 139.782 25.0386 139.524 25.3063C139.265 25.571 138.946 25.7779 138.565 25.927C138.185 26.073 137.758 26.146 137.283 26.146ZM142.901 21.7831V26H141.824V18.9901H142.864V20.0854H142.956C143.12 19.7294 143.37 19.4434 143.704 19.2274C144.039 19.0083 144.471 18.8988 145 18.8988C145.475 18.8988 145.89 18.9961 146.246 19.1909C146.602 19.3825 146.879 19.6746 147.077 20.0671C147.275 20.4565 147.373 20.9494 147.373 21.5458V26H146.296V21.6188C146.296 21.0681 146.153 20.6391 145.867 20.3318C145.581 20.0215 145.189 19.8663 144.69 19.8663C144.346 19.8663 144.039 19.9408 143.768 20.0899C143.5 20.239 143.289 20.4565 143.134 20.7425C142.979 21.0285 142.901 21.3754 142.901 21.7831ZM152.39 18.9901V19.9028H148.757V18.9901H152.39ZM149.816 17.3106H150.893V23.9919C150.893 24.2962 150.937 24.5244 151.026 24.6765C151.117 24.8256 151.233 24.926 151.372 24.9777C151.515 25.0264 151.666 25.0507 151.824 25.0507C151.943 25.0507 152.04 25.0447 152.116 25.0325C152.192 25.0173 152.253 25.0051 152.299 24.996L152.518 25.9635C152.445 25.9909 152.343 26.0183 152.212 26.0456C152.081 26.0761 151.916 26.0913 151.715 26.0913C151.411 26.0913 151.112 26.0259 150.82 25.895C150.531 25.7642 150.291 25.5649 150.099 25.2972C149.911 25.0294 149.816 24.6917 149.816 24.284V17.3106ZM154.54 26H153.353L156.785 16.6534H157.953L161.385 26H160.199L157.406 18.1321H157.333L154.54 26ZM154.978 22.349H159.761V23.353H154.978V22.349ZM162.695 28.6287V18.9901H163.736V20.1036H163.864C163.943 19.9819 164.052 19.8267 164.192 19.6381C164.335 19.4464 164.539 19.276 164.804 19.127C165.071 18.9748 165.433 18.8988 165.89 18.8988C166.48 18.8988 167 19.0463 167.451 19.3415C167.901 19.6366 168.252 20.0549 168.505 20.5965C168.757 21.1381 168.884 21.777 168.884 22.5133C168.884 23.2557 168.757 23.8991 168.505 24.4438C168.252 24.9853 167.902 25.4052 167.455 25.7034C167.008 25.9985 166.492 26.146 165.908 26.146C165.458 26.146 165.097 26.0715 164.826 25.9224C164.556 25.7703 164.347 25.5984 164.201 25.4067C164.055 25.212 163.943 25.0507 163.864 24.923H163.772V28.6287H162.695ZM163.754 22.495C163.754 23.0244 163.832 23.4914 163.987 23.8961C164.142 24.2977 164.369 24.6126 164.667 24.8408C164.965 25.0659 165.33 25.1785 165.762 25.1785C166.212 25.1785 166.588 25.0599 166.889 24.8225C167.194 24.5822 167.422 24.2597 167.574 23.855C167.729 23.4473 167.807 22.994 167.807 22.495C167.807 22.0021 167.731 21.5579 167.578 21.1624C167.429 20.7638 167.203 20.4489 166.898 20.2177C166.597 19.9834 166.218 19.8663 165.762 19.8663C165.324 19.8663 164.956 19.9773 164.658 20.1995C164.359 20.4185 164.134 20.7258 163.982 21.1213C163.83 21.5138 163.754 21.9717 163.754 22.495ZM170.527 28.6287V18.9901H171.567V20.1036H171.695C171.774 19.9819 171.884 19.8267 172.024 19.6381C172.167 19.4464 172.37 19.276 172.635 19.127C172.903 18.9748 173.265 18.8988 173.721 18.8988C174.312 18.8988 174.832 19.0463 175.282 19.3415C175.732 19.6366 176.084 20.0549 176.336 20.5965C176.589 21.1381 176.715 21.777 176.715 22.5133C176.715 23.2557 176.589 23.8991 176.336 24.4438C176.084 24.9853 175.734 25.4052 175.287 25.7034C174.839 25.9985 174.324 26.146 173.74 26.146C173.289 26.146 172.929 26.0715 172.658 25.9224C172.387 25.7703 172.179 25.5984 172.033 25.4067C171.887 25.212 171.774 25.0507 171.695 24.923H171.604V28.6287H170.527ZM171.585 22.495C171.585 23.0244 171.663 23.4914 171.818 23.8961C171.973 24.2977 172.2 24.6126 172.498 24.8408C172.796 25.0659 173.161 25.1785 173.593 25.1785C174.044 25.1785 174.42 25.0599 174.721 24.8225C175.025 24.5822 175.253 24.2597 175.405 23.855C175.56 23.4473 175.638 22.994 175.638 22.495C175.638 22.0021 175.562 21.5579 175.41 21.1624C175.261 20.7638 175.034 20.4489 174.73 20.2177C174.429 19.9834 174.05 19.8663 173.593 19.8663C173.155 19.8663 172.787 19.9773 172.489 20.1995C172.191 20.4185 171.966 20.7258 171.814 21.1213C171.661 21.5138 171.585 21.9717 171.585 22.495Z" fill="white"/>
<path d="M150.543 92.1944C153.867 91.1582 175.063 88.3173 176.162 89.9666C177.337 91.7283 174.198 96.6175 173.44 98.1351" stroke="white" stroke-opacity="0.9" strokeWidth="3.59844" strokeLinecap="round" stroke-linejoin="round"/>
<path d="M147.078 96.4023C145.419 99.7546 133.128 122.093 133.712 123.259C143.524 122.141 162.236 122.829 164.405 120.66C165.694 119.371 165.968 116.645 167.004 115.091" stroke="white" stroke-opacity="0.9" strokeWidth="3.59844" strokeLinecap="round" stroke-linejoin="round"/>
<path d="M161.435 95.9074C161.337 95.544 161.69 95.3126 161.806 95.041" stroke="white" stroke-opacity="0.9" strokeWidth="3.59844" strokeLinecap="round" stroke-linejoin="round"/>
<path d="M120.833 60.6116C128.608 37.6786 162.416 48.3359 155.716 72.1401C152.084 85.0445 127.383 91.1185 122.016 70.6004" stroke="white" stroke-opacity="0.9" strokeWidth="3.59844" strokeLinecap="round" stroke-linejoin="round"/>
<path d="M147.652 68.2626C147.494 67.04 147.435 66.2954 147.172 65.1992" stroke="white" stroke-opacity="0.9" strokeWidth="3.59844" strokeLinecap="round" stroke-linejoin="round"/>
<path d="M140.59 68.4927C140.531 67.4631 140.274 66.7073 140 65.7129" stroke="white" stroke-opacity="0.9" strokeWidth="3.59844" strokeLinecap="round" stroke-linejoin="round"/>
<path d="M170.719 101.848C169.313 102.145 168.008 102.68 166.882 103.581C156.771 111.67 172.077 114.479 176.783 105.066C177.702 103.228 177.466 101.216 176.288 99.7441" stroke="white" stroke-opacity="0.9" strokeWidth="3.59844" strokeLinecap="round" stroke-linejoin="round"/>
<path d="M122.004 94.8491C124.737 83.2798 141.81 91.7397 139.579 100.666C138.253 105.967 133.473 99.5529 132.771 97.4482" stroke="white" stroke-opacity="0.9" strokeWidth="3.59844" strokeLinecap="round" stroke-linejoin="round"/>
<path d="M132.894 99.4805C132.5 104.897 126.67 102.5 124.602 99.6042" stroke="white" stroke-opacity="0.9" strokeWidth="3.59844" strokeLinecap="round" stroke-linejoin="round"/>
</svg>
