<svg width="313" height="176" viewBox="0 0 313 176" fill="none" xmlns="http://www.w3.org/2000/svg">
<path d="M232.34 19.8356C255.378 55.5708 231.61 92.5021 228.085 100.006" stroke="white" strokeWidth="3.90083" strokeLinecap="round" stroke-linejoin="round"/>
<path d="M246.248 99.2853C234.392 99.8156 228.285 100.045 227.928 99.9749C227.391 99.8691 225.214 91.1124 220.234 86.2819" stroke="white" strokeWidth="3.90083" strokeLinecap="round" stroke-linejoin="round"/>
<path d="M103.343 0.653403V10H102.211V0.653403H103.343ZM106.543 5.78308V10H105.466V2.99005H106.506V4.08536H106.598C106.762 3.72938 107.012 3.44339 107.346 3.22737C107.681 3.00831 108.113 2.89878 108.642 2.89878C109.117 2.89878 109.532 2.99614 109.888 3.19086C110.244 3.38254 110.521 3.67462 110.719 4.0671C110.917 4.45654 111.015 4.94943 111.015 5.54576V10H109.938V5.61878C109.938 5.06809 109.795 4.63909 109.509 4.3318C109.223 4.02146 108.831 3.8663 108.332 3.8663C107.988 3.8663 107.681 3.94084 107.41 4.08992C107.142 4.239 106.931 4.45654 106.776 4.74254C106.621 5.02853 106.543 5.37538 106.543 5.78308ZM118.465 2.99005L115.872 10H114.777L112.185 2.99005H113.353L115.288 8.5761H115.361L117.296 2.99005H118.465ZM119.886 10V2.99005H120.963V10H119.886ZM120.434 1.82173C120.224 1.82173 120.043 1.75023 119.891 1.60723C119.742 1.46423 119.667 1.29233 119.667 1.09152C119.667 0.890719 119.742 0.718817 119.891 0.575818C120.043 0.432821 120.224 0.361322 120.434 0.361322C120.644 0.361322 120.823 0.432821 120.972 0.575818C121.125 0.718817 121.201 0.890719 121.201 1.09152C121.201 1.29233 121.125 1.46423 120.972 1.60723C120.823 1.75023 120.644 1.82173 120.434 1.82173ZM125.985 2.99005V3.90281H122.352V2.99005H125.985ZM123.411 1.31059H124.488V7.99194C124.488 8.29619 124.532 8.52438 124.62 8.67651C124.711 8.82559 124.827 8.92599 124.967 8.97772C125.11 9.0264 125.261 9.05074 125.419 9.05074C125.537 9.05074 125.635 9.04465 125.711 9.03248C125.787 9.01727 125.848 9.0051 125.893 8.99597L126.112 9.96349C126.039 9.99087 125.937 10.0183 125.807 10.0456C125.676 10.0761 125.51 10.0913 125.309 10.0913C125.005 10.0913 124.707 10.0259 124.415 9.89503C124.126 9.76421 123.885 9.56492 123.694 9.29718C123.505 9.02944 123.411 8.69172 123.411 8.28402V1.31059ZM129.668 10.1643C129.223 10.1643 128.82 10.0806 128.458 9.91329C128.096 9.74291 127.809 9.49799 127.596 9.17852C127.383 8.85602 127.276 8.46657 127.276 8.0102C127.276 7.60859 127.355 7.28304 127.514 7.03355C127.672 6.78102 127.883 6.58326 128.148 6.44026C128.413 6.29726 128.705 6.19077 129.024 6.1208C129.347 6.04778 129.671 5.98997 129.996 5.94737C130.422 5.89261 130.767 5.85153 131.032 5.82415C131.3 5.79373 131.495 5.74353 131.616 5.67355C131.741 5.60357 131.803 5.48187 131.803 5.30845V5.27194C131.803 4.82164 131.68 4.47176 131.434 4.22227C131.19 3.97278 130.821 3.84804 130.325 3.84804C129.811 3.84804 129.407 3.96061 129.115 4.18576C128.823 4.41091 128.618 4.65126 128.499 4.90683L127.477 4.54173C127.66 4.11578 127.903 3.78415 128.207 3.54683C128.515 3.30647 128.849 3.13913 129.211 3.04482C129.576 2.94746 129.935 2.89878 130.288 2.89878C130.513 2.89878 130.772 2.92616 131.064 2.98092C131.359 3.03265 131.644 3.14066 131.918 3.30495C132.194 3.46925 132.424 3.71721 132.607 4.04885C132.789 4.38048 132.881 4.82469 132.881 5.38147V10H131.803V9.05074H131.749C131.676 9.20286 131.554 9.36564 131.384 9.53906C131.213 9.71248 130.987 9.86004 130.704 9.98174C130.421 10.1034 130.075 10.1643 129.668 10.1643ZM129.832 9.19678C130.258 9.19678 130.617 9.11311 130.909 8.94577C131.204 8.77843 131.426 8.56241 131.575 8.29771C131.727 8.03302 131.803 7.75463 131.803 7.46254V6.47677C131.758 6.53154 131.657 6.58174 131.502 6.62738C131.35 6.66997 131.174 6.708 130.973 6.74147C130.775 6.77189 130.582 6.79928 130.393 6.82362C130.208 6.84491 130.057 6.86317 129.941 6.87838C129.662 6.91489 129.4 6.97422 129.156 7.05637C128.916 7.13547 128.721 7.25565 128.572 7.41691C128.426 7.57512 128.353 7.79114 128.353 8.06496C128.353 8.43919 128.492 8.72214 128.769 8.91382C129.048 9.10246 129.403 9.19678 129.832 9.19678ZM140.524 10.1643C140.079 10.1643 139.676 10.0806 139.314 9.91329C138.952 9.74291 138.665 9.49799 138.452 9.17852C138.239 8.85602 138.132 8.46657 138.132 8.0102C138.132 7.60859 138.211 7.28304 138.37 7.03355C138.528 6.78102 138.739 6.58326 139.004 6.44026C139.269 6.29726 139.561 6.19077 139.88 6.1208C140.203 6.04778 140.527 5.98997 140.852 5.94737C141.278 5.89261 141.624 5.85153 141.888 5.82415C142.156 5.79373 142.351 5.74353 142.472 5.67355C142.597 5.60357 142.66 5.48187 142.66 5.30845V5.27194C142.66 4.82164 142.536 4.47176 142.29 4.22227C142.046 3.97278 141.677 3.84804 141.181 3.84804C140.667 3.84804 140.264 3.96061 139.971 4.18576C139.679 4.41091 139.474 4.65126 139.355 4.90683L138.333 4.54173C138.516 4.11578 138.759 3.78415 139.063 3.54683C139.371 3.30647 139.705 3.13913 140.067 3.04482C140.432 2.94746 140.791 2.89878 141.144 2.89878C141.369 2.89878 141.628 2.92616 141.92 2.98092C142.215 3.03265 142.5 3.14066 142.774 3.30495C143.05 3.46925 143.28 3.71721 143.463 4.04885C143.645 4.38048 143.737 4.82469 143.737 5.38147V10H142.66V9.05074H142.605C142.532 9.20286 142.41 9.36564 142.24 9.53906C142.069 9.71248 141.843 9.86004 141.56 9.98174C141.277 10.1034 140.931 10.1643 140.524 10.1643ZM140.688 9.19678C141.114 9.19678 141.473 9.11311 141.765 8.94577C142.06 8.77843 142.282 8.56241 142.431 8.29771C142.583 8.03302 142.66 7.75463 142.66 7.46254V6.47677C142.614 6.53154 142.513 6.58174 142.358 6.62738C142.206 6.66997 142.03 6.708 141.829 6.74147C141.631 6.77189 141.438 6.79928 141.249 6.82362C141.064 6.84491 140.913 6.86317 140.798 6.87838C140.518 6.91489 140.256 6.97422 140.013 7.05637C139.772 7.13547 139.577 7.25565 139.428 7.41691C139.282 7.57512 139.209 7.79114 139.209 8.06496C139.209 8.43919 139.348 8.72214 139.625 8.91382C139.905 9.10246 140.259 9.19678 140.688 9.19678ZM152.366 2.99005V3.90281H148.733V2.99005H152.366ZM149.792 1.31059H150.869V7.99194C150.869 8.29619 150.913 8.52438 151.001 8.67651C151.092 8.82559 151.208 8.92599 151.348 8.97772C151.491 9.0264 151.641 9.05074 151.8 9.05074C151.918 9.05074 152.016 9.04465 152.092 9.03248C152.168 9.01727 152.229 9.0051 152.274 8.99597L152.493 9.96349C152.42 9.99087 152.318 10.0183 152.188 10.0456C152.057 10.0761 151.891 10.0913 151.69 10.0913C151.386 10.0913 151.088 10.0259 150.796 9.89503C150.507 9.76421 150.266 9.56492 150.075 9.29718C149.886 9.02944 149.792 8.69172 149.792 8.28402V1.31059ZM158.403 7.13395V2.99005H159.48V10H158.403V8.81342H158.33C158.166 9.16939 157.91 9.47212 157.564 9.72161C157.217 9.96805 156.779 10.0913 156.249 10.0913C155.811 10.0913 155.422 9.99544 155.081 9.80376C154.74 9.60904 154.472 9.31696 154.278 8.92751C154.083 8.53503 153.986 8.04062 153.986 7.44429V2.99005H155.063V7.37127C155.063 7.88241 155.206 8.29011 155.492 8.59436C155.781 8.89861 156.149 9.05074 156.596 9.05074C156.864 9.05074 157.136 8.98228 157.413 8.84537C157.693 8.70845 157.927 8.49852 158.116 8.21557C158.308 7.93261 158.403 7.57208 158.403 7.13395ZM168.189 2.99005V3.90281H164.41V2.99005H168.189ZM165.542 10V2.02253C165.542 1.62092 165.637 1.28624 165.825 1.0185C166.014 0.750763 166.259 0.549957 166.56 0.416086C166.861 0.282216 167.179 0.21528 167.514 0.21528C167.779 0.21528 167.995 0.236578 168.162 0.279174C168.329 0.321769 168.454 0.361321 168.536 0.397831L168.226 1.32884C168.171 1.31059 168.095 1.28777 167.998 1.26038C167.903 1.233 167.779 1.21931 167.623 1.21931C167.267 1.21931 167.01 1.30906 166.852 1.48857C166.697 1.66808 166.619 1.93126 166.619 2.2781V10H165.542ZM171.561 10.1643C171.117 10.1643 170.713 10.0806 170.351 9.91329C169.989 9.74291 169.702 9.49799 169.489 9.17852C169.276 8.85602 169.169 8.46657 169.169 8.0102C169.169 7.60859 169.248 7.28304 169.407 7.03355C169.565 6.78102 169.776 6.58326 170.041 6.44026C170.306 6.29726 170.598 6.19077 170.917 6.1208C171.24 6.04778 171.564 5.98997 171.889 5.94737C172.315 5.89261 172.661 5.85153 172.925 5.82415C173.193 5.79373 173.388 5.74353 173.509 5.67355C173.634 5.60357 173.697 5.48187 173.697 5.30845V5.27194C173.697 4.82164 173.573 4.47176 173.327 4.22227C173.084 3.97278 172.714 3.84804 172.218 3.84804C171.704 3.84804 171.301 3.96061 171.009 4.18576C170.716 4.41091 170.511 4.65126 170.392 4.90683L169.37 4.54173C169.553 4.11578 169.796 3.78415 170.1 3.54683C170.408 3.30647 170.742 3.13913 171.104 3.04482C171.469 2.94746 171.828 2.89878 172.181 2.89878C172.407 2.89878 172.665 2.92616 172.957 2.98092C173.252 3.03265 173.537 3.14066 173.811 3.30495C174.088 3.46925 174.317 3.71721 174.5 4.04885C174.682 4.38048 174.774 4.82469 174.774 5.38147V10H173.697V9.05074H173.642C173.569 9.20286 173.447 9.36564 173.277 9.53906C173.106 9.71248 172.88 9.86004 172.597 9.98174C172.314 10.1034 171.968 10.1643 171.561 10.1643ZM171.725 9.19678C172.151 9.19678 172.51 9.11311 172.802 8.94577C173.097 8.77843 173.319 8.56241 173.468 8.29771C173.621 8.03302 173.697 7.75463 173.697 7.46254V6.47677C173.651 6.53154 173.551 6.58174 173.395 6.62738C173.243 6.66997 173.067 6.708 172.866 6.74147C172.668 6.77189 172.475 6.79928 172.286 6.82362C172.101 6.84491 171.95 6.86317 171.835 6.87838C171.555 6.91489 171.293 6.97422 171.05 7.05637C170.809 7.13547 170.615 7.25565 170.465 7.41691C170.319 7.57512 170.246 7.79114 170.246 8.06496C170.246 8.43919 170.385 8.72214 170.662 8.91382C170.942 9.10246 171.296 9.19678 171.725 9.19678ZM176.739 10V2.99005H177.78V4.08536H177.871C178.017 3.71113 178.253 3.42057 178.579 3.21368C178.904 3.00374 179.295 2.89878 179.752 2.89878C180.214 2.89878 180.599 3.00374 180.906 3.21368C181.217 3.42057 181.458 3.71113 181.632 4.08536H181.705C181.884 3.7233 182.154 3.43578 182.513 3.2228C182.872 3.00679 183.302 2.89878 183.804 2.89878C184.431 2.89878 184.944 3.09502 185.342 3.4875C185.741 3.87694 185.94 4.48393 185.94 5.30845V10H184.863V5.30845C184.863 4.79122 184.721 4.42155 184.439 4.19945C184.156 3.97735 183.822 3.8663 183.439 3.8663C182.946 3.8663 182.564 4.01538 182.294 4.31354C182.023 4.60867 181.887 4.9829 181.887 5.43623V10H180.792V5.19892C180.792 4.80035 180.663 4.47936 180.404 4.23596C180.146 3.98952 179.812 3.8663 179.405 3.8663C179.125 3.8663 178.863 3.94084 178.62 4.08992C178.379 4.239 178.185 4.44589 178.036 4.71059C177.89 4.97225 177.817 5.27498 177.817 5.61878V10H176.739ZM187.909 10V2.99005H188.986V10H187.909ZM188.457 1.82173C188.247 1.82173 188.066 1.75023 187.914 1.60723C187.765 1.46423 187.69 1.29233 187.69 1.09152C187.69 0.890719 187.765 0.718817 187.914 0.575818C188.066 0.432821 188.247 0.361322 188.457 0.361322C188.667 0.361322 188.846 0.432821 188.995 0.575818C189.148 0.718817 189.224 0.890719 189.224 1.09152C189.224 1.29233 189.148 1.46423 188.995 1.60723C188.846 1.75023 188.667 1.82173 188.457 1.82173ZM192.036 0.653403V10H190.959V0.653403H192.036ZM194.009 10V2.99005H195.086V10H194.009ZM194.556 1.82173C194.346 1.82173 194.165 1.75023 194.013 1.60723C193.864 1.46423 193.79 1.29233 193.79 1.09152C193.79 0.890719 193.864 0.718817 194.013 0.575818C194.165 0.432821 194.346 0.361322 194.556 0.361322C194.766 0.361322 194.946 0.432821 195.095 0.575818C195.247 0.718817 195.323 0.890719 195.323 1.09152C195.323 1.29233 195.247 1.46423 195.095 1.60723C194.946 1.75023 194.766 1.82173 194.556 1.82173ZM199.121 10.1643C198.677 10.1643 198.274 10.0806 197.912 9.91329C197.55 9.74291 197.262 9.49799 197.049 9.17852C196.836 8.85602 196.73 8.46657 196.73 8.0102C196.73 7.60859 196.809 7.28304 196.967 7.03355C197.125 6.78102 197.337 6.58326 197.602 6.44026C197.866 6.29726 198.158 6.19077 198.478 6.1208C198.8 6.04778 199.124 5.98997 199.45 5.94737C199.876 5.89261 200.221 5.85153 200.486 5.82415C200.754 5.79373 200.948 5.74353 201.07 5.67355C201.195 5.60357 201.257 5.48187 201.257 5.30845V5.27194C201.257 4.82164 201.134 4.47176 200.887 4.22227C200.644 3.97278 200.274 3.84804 199.779 3.84804C199.264 3.84804 198.861 3.96061 198.569 4.18576C198.277 4.41091 198.072 4.65126 197.953 4.90683L196.931 4.54173C197.113 4.11578 197.357 3.78415 197.661 3.54683C197.968 3.30647 198.303 3.13913 198.665 3.04482C199.03 2.94746 199.389 2.89878 199.742 2.89878C199.967 2.89878 200.226 2.92616 200.518 2.98092C200.813 3.03265 201.097 3.14066 201.371 3.30495C201.648 3.46925 201.878 3.71721 202.06 4.04885C202.243 4.38048 202.334 4.82469 202.334 5.38147V10H201.257V9.05074H201.202C201.129 9.20286 201.008 9.36564 200.837 9.53906C200.667 9.71248 200.44 9.86004 200.157 9.98174C199.874 10.1034 199.529 10.1643 199.121 10.1643ZM199.286 9.19678C199.712 9.19678 200.071 9.11311 200.363 8.94577C200.658 8.77843 200.88 8.56241 201.029 8.29771C201.181 8.03302 201.257 7.75463 201.257 7.46254V6.47677C201.212 6.53154 201.111 6.58174 200.956 6.62738C200.804 6.66997 200.627 6.708 200.427 6.74147C200.229 6.77189 200.036 6.79928 199.847 6.82362C199.661 6.84491 199.511 6.86317 199.395 6.87838C199.115 6.91489 198.854 6.97422 198.61 7.05637C198.37 7.13547 198.175 7.25565 198.026 7.41691C197.88 7.57512 197.807 7.79114 197.807 8.06496C197.807 8.43919 197.945 8.72214 198.222 8.91382C198.502 9.10246 198.857 9.19678 199.286 9.19678ZM113.641 26.1643C113.197 26.1643 112.793 26.0806 112.431 25.9133C112.069 25.7429 111.782 25.498 111.569 25.1785C111.356 24.856 111.249 24.4666 111.249 24.0102C111.249 23.6086 111.328 23.283 111.487 23.0336C111.645 22.781 111.856 22.5833 112.121 22.4403C112.386 22.2973 112.678 22.1908 112.997 22.1208C113.32 22.0478 113.644 21.99 113.969 21.9474C114.395 21.8926 114.741 21.8515 115.005 21.8242C115.273 21.7937 115.468 21.7435 115.59 21.6735C115.714 21.6036 115.777 21.4819 115.777 21.3084V21.2719C115.777 20.8216 115.653 20.4718 115.407 20.2223C115.164 19.9728 114.794 19.848 114.298 19.848C113.784 19.848 113.381 19.9606 113.089 20.1858C112.797 20.4109 112.591 20.6513 112.472 20.9068L111.45 20.5417C111.633 20.1158 111.876 19.7841 112.18 19.5468C112.488 19.3065 112.822 19.1391 113.184 19.0448C113.55 18.9475 113.909 18.8988 114.261 18.8988C114.487 18.8988 114.745 18.9262 115.037 18.9809C115.332 19.0326 115.617 19.1407 115.891 19.305C116.168 19.4692 116.397 19.7172 116.58 20.0488C116.762 20.3805 116.854 20.8247 116.854 21.3815V26H115.777V25.0507H115.722C115.649 25.2029 115.527 25.3656 115.357 25.5391C115.186 25.7125 114.96 25.86 114.677 25.9817C114.394 26.1034 114.048 26.1643 113.641 26.1643ZM113.805 25.1968C114.231 25.1968 114.59 25.1131 114.882 24.9458C115.177 24.7784 115.399 24.5624 115.548 24.2977C115.701 24.033 115.777 23.7546 115.777 23.4625V22.4768C115.731 22.5315 115.631 22.5817 115.475 22.6274C115.323 22.67 115.147 22.708 114.946 22.7415C114.748 22.7719 114.555 22.7993 114.366 22.8236C114.181 22.8449 114.03 22.8632 113.915 22.8784C113.635 22.9149 113.373 22.9742 113.13 23.0564C112.889 23.1355 112.695 23.2557 112.545 23.4169C112.399 23.5751 112.326 23.7911 112.326 24.065C112.326 24.4392 112.465 24.7221 112.742 24.9138C113.022 25.1025 113.376 25.1968 113.805 25.1968ZM125.556 18.9901V19.9028H121.777V18.9901H125.556ZM122.909 26V18.0225C122.909 17.6209 123.003 17.2862 123.192 17.0185C123.38 16.7508 123.625 16.55 123.926 16.4161C124.228 16.2822 124.546 16.2153 124.88 16.2153C125.145 16.2153 125.361 16.2366 125.528 16.2792C125.696 16.3218 125.82 16.3613 125.903 16.3978L125.592 17.3288C125.537 17.3106 125.461 17.2878 125.364 17.2604C125.27 17.233 125.145 17.2193 124.99 17.2193C124.634 17.2193 124.377 17.3091 124.218 17.4886C124.063 17.6681 123.986 17.9313 123.986 18.2781V26H122.909ZM129.624 26.146C128.991 26.146 128.436 25.9954 127.958 25.6942C127.484 25.393 127.113 24.9716 126.845 24.4301C126.58 23.8885 126.448 23.2557 126.448 22.5315C126.448 21.8013 126.58 21.1639 126.845 20.6193C127.113 20.0747 127.484 19.6518 127.958 19.3506C128.436 19.0494 128.991 18.8988 129.624 18.8988C130.257 18.8988 130.811 19.0494 131.285 19.3506C131.763 19.6518 132.134 20.0747 132.399 20.6193C132.667 21.1639 132.801 21.8013 132.801 22.5315C132.801 23.2557 132.667 23.8885 132.399 24.4301C132.134 24.9716 131.763 25.393 131.285 25.6942C130.811 25.9954 130.257 26.146 129.624 26.146ZM129.624 25.1785C130.105 25.1785 130.5 25.0553 130.811 24.8089C131.121 24.5624 131.351 24.2384 131.5 23.8368C131.649 23.4352 131.724 23.0001 131.724 22.5315C131.724 22.063 131.649 21.6264 131.5 21.2217C131.351 20.8171 131.121 20.49 130.811 20.2405C130.5 19.991 130.105 19.8663 129.624 19.8663C129.144 19.8663 128.748 19.991 128.438 20.2405C128.127 20.49 127.898 20.8171 127.749 21.2217C127.599 21.6264 127.525 22.063 127.525 22.5315C127.525 23.0001 127.599 23.4352 127.749 23.8368C127.898 24.2384 128.127 24.5624 128.438 24.8089C128.748 25.0553 129.144 25.1785 129.624 25.1785ZM134.445 26V18.9901H135.485V20.0488H135.558C135.686 19.702 135.917 19.4206 136.252 19.2045C136.587 18.9885 136.964 18.8805 137.384 18.8805C137.463 18.8805 137.562 18.882 137.68 18.8851C137.799 18.8881 137.889 18.8927 137.95 18.8988V19.9941C137.913 19.985 137.83 19.9713 137.699 19.953C137.571 19.9317 137.436 19.9211 137.293 19.9211C136.952 19.9211 136.648 19.9926 136.38 20.1356C136.115 20.2755 135.905 20.4702 135.75 20.7197C135.598 20.9662 135.522 21.2476 135.522 21.564V26H134.445ZM139.226 26V18.9901H140.267V20.0854H140.358C140.504 19.7111 140.74 19.4206 141.066 19.2137C141.391 19.0037 141.782 18.8988 142.239 18.8988C142.701 18.8988 143.086 19.0037 143.393 19.2137C143.703 19.4206 143.945 19.7111 144.119 20.0854H144.192C144.371 19.7233 144.641 19.4358 145 19.2228C145.359 19.0068 145.789 18.8988 146.291 18.8988C146.918 18.8988 147.431 19.095 147.829 19.4875C148.228 19.8769 148.427 20.4839 148.427 21.3084V26H147.35V21.3084C147.35 20.7912 147.208 20.4216 146.926 20.1995C146.643 19.9773 146.309 19.8663 145.926 19.8663C145.433 19.8663 145.051 20.0154 144.781 20.3135C144.51 20.6087 144.374 20.9829 144.374 21.4362V26H143.279V21.1989C143.279 20.8003 143.15 20.4794 142.891 20.236C142.633 19.9895 142.299 19.8663 141.892 19.8663C141.612 19.8663 141.35 19.9408 141.107 20.0899C140.866 20.239 140.672 20.4459 140.523 20.7106C140.376 20.9722 140.303 21.275 140.303 21.6188V26H139.226ZM152.459 26.1643C152.015 26.1643 151.612 26.0806 151.25 25.9133C150.888 25.7429 150.6 25.498 150.387 25.1785C150.174 24.856 150.068 24.4666 150.068 24.0102C150.068 23.6086 150.147 23.283 150.305 23.0336C150.463 22.781 150.675 22.5833 150.939 22.4403C151.204 22.2973 151.496 22.1908 151.816 22.1208C152.138 22.0478 152.462 21.99 152.788 21.9474C153.214 21.8926 153.559 21.8515 153.824 21.8242C154.091 21.7937 154.286 21.7435 154.408 21.6735C154.533 21.6036 154.595 21.4819 154.595 21.3084V21.2719C154.595 20.8216 154.472 20.4718 154.225 20.2223C153.982 19.9728 153.612 19.848 153.116 19.848C152.602 19.848 152.199 19.9606 151.907 20.1858C151.615 20.4109 151.409 20.6513 151.291 20.9068L150.268 20.5417C150.451 20.1158 150.694 19.7841 150.999 19.5468C151.306 19.3065 151.641 19.1391 152.003 19.0448C152.368 18.9475 152.727 18.8988 153.08 18.8988C153.305 18.8988 153.564 18.9262 153.856 18.9809C154.151 19.0326 154.435 19.1407 154.709 19.305C154.986 19.4692 155.216 19.7172 155.398 20.0488C155.581 20.3805 155.672 20.8247 155.672 21.3815V26H154.595V25.0507H154.54C154.467 25.2029 154.345 25.3656 154.175 25.5391C154.005 25.7125 153.778 25.86 153.495 25.9817C153.212 26.1034 152.867 26.1643 152.459 26.1643ZM152.623 25.1968C153.049 25.1968 153.408 25.1131 153.7 24.9458C153.996 24.7784 154.218 24.5624 154.367 24.2977C154.519 24.033 154.595 23.7546 154.595 23.4625V22.4768C154.549 22.5315 154.449 22.5817 154.294 22.6274C154.142 22.67 153.965 22.708 153.764 22.7415C153.567 22.7719 153.373 22.7993 153.185 22.8236C152.999 22.8449 152.849 22.8632 152.733 22.8784C152.453 22.9149 152.191 22.9742 151.948 23.0564C151.708 23.1355 151.513 23.2557 151.364 23.4169C151.218 23.5751 151.145 23.7911 151.145 24.065C151.145 24.4392 151.283 24.7221 151.56 24.9138C151.84 25.1025 152.194 25.1968 152.623 25.1968ZM157.638 26V18.9901H158.678V20.0488H158.751C158.879 19.702 159.11 19.4206 159.445 19.2045C159.78 18.9885 160.157 18.8805 160.577 18.8805C160.656 18.8805 160.755 18.882 160.874 18.8851C160.992 18.8881 161.082 18.8927 161.143 18.8988V19.9941C161.106 19.985 161.023 19.9713 160.892 19.953C160.764 19.9317 160.629 19.9211 160.486 19.9211C160.145 19.9211 159.841 19.9926 159.573 20.1356C159.308 20.2755 159.098 20.4702 158.943 20.7197C158.791 20.9662 158.715 21.2476 158.715 21.564V26H157.638ZM166.034 28.6287V18.9901H167.075V20.1036H167.202C167.281 19.9819 167.391 19.8267 167.531 19.6381C167.674 19.4464 167.878 19.276 168.142 19.127C168.41 18.9748 168.772 18.8988 169.229 18.8988C169.819 18.8988 170.339 19.0463 170.789 19.3415C171.24 19.6366 171.591 20.0549 171.844 20.5965C172.096 21.1381 172.222 21.777 172.222 22.5133C172.222 23.2557 172.096 23.8991 171.844 24.4438C171.591 24.9853 171.241 25.4052 170.794 25.7034C170.347 25.9985 169.831 26.146 169.247 26.146C168.797 26.146 168.436 26.0715 168.165 25.9224C167.894 25.7703 167.686 25.5984 167.54 25.4067C167.394 25.212 167.281 25.0507 167.202 24.923H167.111V28.6287H166.034ZM167.093 22.495C167.093 23.0244 167.17 23.4914 167.326 23.8961C167.481 24.2977 167.707 24.6126 168.006 24.8408C168.304 25.0659 168.669 25.1785 169.101 25.1785C169.551 25.1785 169.927 25.0599 170.228 24.8225C170.532 24.5822 170.761 24.2597 170.913 23.855C171.068 23.4473 171.145 22.994 171.145 22.495C171.145 22.0021 171.069 21.5579 170.917 21.1624C170.768 20.7638 170.541 20.4489 170.237 20.2177C169.936 19.9834 169.557 19.8663 169.101 19.8663C168.663 19.8663 168.295 19.9773 167.996 20.1995C167.698 20.4185 167.473 20.7258 167.321 21.1213C167.169 21.5138 167.093 21.9717 167.093 22.495ZM175.928 26.1643C175.484 26.1643 175.081 26.0806 174.719 25.9133C174.357 25.7429 174.069 25.498 173.856 25.1785C173.643 24.856 173.537 24.4666 173.537 24.0102C173.537 23.6086 173.616 23.283 173.774 23.0336C173.932 22.781 174.144 22.5833 174.409 22.4403C174.673 22.2973 174.965 22.1908 175.285 22.1208C175.607 22.0478 175.931 21.99 176.257 21.9474C176.683 21.8926 177.028 21.8515 177.293 21.8242C177.561 21.7937 177.755 21.7435 177.877 21.6735C178.002 21.6036 178.064 21.4819 178.064 21.3084V21.2719C178.064 20.8216 177.941 20.4718 177.694 20.2223C177.451 19.9728 177.081 19.848 176.585 19.848C176.071 19.848 175.668 19.9606 175.376 20.1858C175.084 20.4109 174.879 20.6513 174.76 20.9068L173.738 20.5417C173.92 20.1158 174.164 19.7841 174.468 19.5468C174.775 19.3065 175.11 19.1391 175.472 19.0448C175.837 18.9475 176.196 18.8988 176.549 18.8988C176.774 18.8988 177.033 18.9262 177.325 18.9809C177.62 19.0326 177.904 19.1407 178.178 19.305C178.455 19.4692 178.685 19.7172 178.867 20.0488C179.05 20.3805 179.141 20.8247 179.141 21.3815V26H178.064V25.0507H178.009C177.936 25.2029 177.815 25.3656 177.644 25.5391C177.474 25.7125 177.247 25.86 176.964 25.9817C176.681 26.1034 176.336 26.1643 175.928 26.1643ZM176.093 25.1968C176.518 25.1968 176.878 25.1131 177.17 24.9458C177.465 24.7784 177.687 24.5624 177.836 24.2977C177.988 24.033 178.064 23.7546 178.064 23.4625V22.4768C178.018 22.5315 177.918 22.5817 177.763 22.6274C177.611 22.67 177.434 22.708 177.233 22.7415C177.036 22.7719 176.843 22.7993 176.654 22.8236C176.468 22.8449 176.318 22.8632 176.202 22.8784C175.922 22.9149 175.661 22.9742 175.417 23.0564C175.177 23.1355 174.982 23.2557 174.833 23.4169C174.687 23.5751 174.614 23.7911 174.614 24.065C174.614 24.4392 174.752 24.7221 175.029 24.9138C175.309 25.1025 175.664 25.1968 176.093 25.1968ZM181.107 26V18.9901H182.148V20.0488H182.221C182.348 19.702 182.58 19.4206 182.914 19.2045C183.249 18.9885 183.626 18.8805 184.046 18.8805C184.125 18.8805 184.224 18.882 184.343 18.8851C184.461 18.8881 184.551 18.8927 184.612 18.8988V19.9941C184.575 19.985 184.492 19.9713 184.361 19.953C184.233 19.9317 184.098 19.9211 183.955 19.9211C183.614 19.9211 183.31 19.9926 183.042 20.1356C182.777 20.2755 182.567 20.4702 182.412 20.7197C182.26 20.9662 182.184 21.2476 182.184 21.564V26H181.107ZM189.377 18.9901V19.9028H185.744V18.9901H189.377ZM186.803 17.3106H187.88V23.9919C187.88 24.2962 187.924 24.5244 188.012 24.6765C188.103 24.8256 188.219 24.926 188.359 24.9777C188.502 25.0264 188.652 25.0507 188.811 25.0507C188.929 25.0507 189.027 25.0447 189.103 25.0325C189.179 25.0173 189.24 25.0051 189.285 24.996L189.504 25.9635C189.431 25.9909 189.329 26.0183 189.199 26.0456C189.068 26.0761 188.902 26.0913 188.701 26.0913C188.397 26.0913 188.099 26.0259 187.807 25.895C187.518 25.7642 187.277 25.5649 187.086 25.2972C186.897 25.0294 186.803 24.6917 186.803 24.284V17.3106ZM193.86 26.146C193.185 26.146 192.602 25.997 192.113 25.6988C191.626 25.3976 191.25 24.9777 190.985 24.4392C190.724 23.8976 190.593 23.2678 190.593 22.5498C190.593 21.8318 190.724 21.1989 190.985 20.6513C191.25 20.1006 191.618 19.6716 192.09 19.3643C192.564 19.0539 193.118 18.8988 193.751 18.8988C194.116 18.8988 194.477 18.9596 194.833 19.0813C195.188 19.203 195.513 19.4008 195.805 19.6746C196.097 19.9454 196.329 20.3044 196.503 20.7517C196.676 21.1989 196.763 21.7496 196.763 22.4038V22.8601H191.359V21.9291H195.668C195.668 21.5336 195.589 21.1807 195.43 20.8703C195.275 20.56 195.053 20.3151 194.764 20.1356C194.478 19.956 194.14 19.8663 193.751 19.8663C193.322 19.8663 192.951 19.9728 192.637 20.1858C192.327 20.3957 192.088 20.6695 191.921 21.0072C191.753 21.345 191.67 21.707 191.67 22.0934V22.7141C191.67 23.2435 191.761 23.6923 191.944 24.0604C192.129 24.4255 192.386 24.7039 192.715 24.8956C193.044 25.0842 193.425 25.1785 193.86 25.1785C194.143 25.1785 194.399 25.139 194.627 25.0599C194.858 24.9777 195.058 24.856 195.225 24.6948C195.392 24.5305 195.522 24.3266 195.613 24.0832L196.653 24.3753C196.544 24.7282 196.36 25.0386 196.101 25.3063C195.843 25.571 195.523 25.7779 195.143 25.927C194.763 26.073 194.335 26.146 193.86 26.146Z" fill="white"/>
<path d="M123.975 87.6651C125.719 85.8384 127.044 84.9281 129.498 84.1866C139.862 81.0558 141.58 98.6263 133.749 103.357C123.661 109.451 116.187 95.8028 123.29 89.5439" stroke="white" strokeWidth="4.47537" strokeLinecap="round" stroke-linejoin="round"/>
<path d="M168.024 92.1578C170.675 89.9809 175.253 88.9001 178.735 90.2937C189.978 94.7928 183.83 109.933 172.562 108.43C164.968 107.417 165.386 93.5045 171.292 91.1409" stroke="white" strokeWidth="4.47537" strokeLinecap="round" stroke-linejoin="round"/>
<path d="M146.213 116.294C148.671 114.342 152.916 113.373 156.145 114.623C166.57 118.656 160.869 132.23 150.421 130.882C143.379 129.974 143.767 117.501 149.243 115.382" stroke="white" strokeWidth="4.47537" strokeLinecap="round" stroke-linejoin="round"/>
<path d="M117.57 140.196C117.969 139.419 117.57 122.975 123.025 112.905C124.097 118.127 124.759 135.338 123.864 138.359M139.296 129.967C137.588 128.017 135.225 115.728 135.052 114.024C134.26 117.94 133.15 132.121 133.374 137.38" stroke="white" strokeWidth="4.47537" strokeLinecap="round" stroke-linejoin="round"/>
<path d="M184.216 142.713C180.811 143.252 178.562 143.583 177.468 143.707C171.791 144.347 169.845 144.311 169.25 144.311C168.098 144.311 175.516 113.087 177.468 113.087C178.769 113.087 184.216 132.345 192.393 143.707" stroke="white" strokeWidth="4.47537" strokeLinecap="round" stroke-linejoin="round"/>
<path d="M123.731 138.131C123.178 141.825 122.902 146.228 122.902 151.341C122.902 156.453 123.178 161.276 123.731 165.809L120.488 166.428" stroke="white" strokeWidth="4.47537" strokeLinecap="round" stroke-linejoin="round"/>
<path d="M133.234 138.079C134.074 140.868 134.493 144.612 134.493 149.311C134.493 154.011 134.074 159.031 133.234 164.372H135.752" stroke="white" strokeWidth="4.47537" strokeLinecap="round" stroke-linejoin="round"/>
<path d="M138 129.675C139.468 132.369 140.528 133.835 141.18 134.074C141.832 134.313 143.578 134.798 146.417 135.529M157.955 134.862C160.634 134.456 162.381 133.895 163.196 133.178C164.011 132.462 164.908 131.732 165.887 130.989" stroke="white" strokeWidth="4.47537" strokeLinecap="round" stroke-linejoin="round"/>
<path d="M146.483 136.18L148.376 147.945L146.483 161.224L141.622 153.583L139.297 152.798" stroke="white" strokeWidth="4.47537" strokeLinecap="round" stroke-linejoin="round"/>
<path d="M157.617 134.554L154.537 148.066L157.617 159.598L162.867 152.171L165.562 151.347" stroke="white" strokeWidth="4.47537" strokeLinecap="round" stroke-linejoin="round"/>
<path d="M174.641 144.311V167.301L172.047 167.729" stroke="white" strokeWidth="4.47537" strokeLinecap="round" stroke-linejoin="round"/>
<path d="M181.775 143.335V167.729H184.37" stroke="white" strokeWidth="4.47537" strokeLinecap="round" stroke-linejoin="round"/>
<path d="M177.236 113.087C170.691 124.5 166.692 130.788 165.238 131.952" stroke="white" strokeWidth="4.47537" strokeLinecap="round" stroke-linejoin="round"/>
</svg>
