<svg width="292" height="242" viewBox="0 0 292 242" fill="none" xmlns="http://www.w3.org/2000/svg">
<path d="M142.924 111.44C143.118 110.995 143.758 108.61 143.951 107.663C144.376 105.583 144.3 102.668 145.516 102.184C146.367 101.846 148.098 102.16 150.797 102.895C153.17 103.54 156.687 103.477 157.604 105.082C158.091 105.935 156.037 115.033 155.196 115.368C152.757 116.338 147.473 114.439 145.09 113.79" stroke="white" stroke-opacity="0.9" strokeWidth="3.17505" strokeLinecap="round" stroke-linejoin="round"/>
<path d="M149.132 100.517C151.602 94.1845 156.421 96.6919 154.95 102.1" stroke="white" stroke-opacity="0.9" strokeWidth="3.17505" strokeLinecap="round" stroke-linejoin="round"/>
<path d="M150.306 110.175C150.378 109.912 150.45 109.649 150.521 109.385" stroke="white" stroke-opacity="0.9" strokeWidth="3.17505" strokeLinecap="round" stroke-linejoin="round"/>
<path d="M139.741 125.907C136.065 121.189 129.961 99.8685 136.002 91.0649C136.367 90.5337 150.042 88.8735 157.796 82.4982C161.604 93.2101 171.809 100.422 171.866 100.823C173.225 110.393 153.568 128.481 145.073 130.19" stroke="white" stroke-opacity="0.9" strokeWidth="3.17505" strokeLinecap="round" stroke-linejoin="round"/>
<path d="M167.629 167.703C160.411 146.94 183.743 140.386 189.57 162.13" stroke="white" stroke-opacity="0.9" strokeWidth="3.14926" strokeLinecap="round" stroke-linejoin="round"/>
<path d="M167.081 171.407C166.82 172.595 163.19 178.696 164.629 179.829C165.851 180.79 212.279 174.862 190.726 163.854" stroke="white" stroke-opacity="0.9" strokeWidth="3.14926" strokeLinecap="round" stroke-linejoin="round"/>
<path d="M196.718 170.246C185.524 171.499 173.431 175.533 164.382 179.502" stroke="white" stroke-opacity="0.9" strokeWidth="3.14926" strokeLinecap="round" stroke-linejoin="round"/>
<path d="M179.449 174.842C191.183 165.858 186.984 190.133 178.233 181.706C176.227 179.774 176.976 176.732 177.834 174.515" stroke="white" stroke-opacity="0.9" strokeWidth="3.14926" strokeLinecap="round" stroke-linejoin="round"/>
<path d="M170.232 148.267C170.019 144.578 175.988 144.523 175.427 148.516" stroke="white" stroke-opacity="0.9" strokeWidth="3.14926" strokeLinecap="round" stroke-linejoin="round"/>
<path opacity="0.503906" d="M156.541 163.747C156.147 167.346 156.868 170.873 157.777 174.264" stroke="white" stroke-opacity="0.9" strokeWidth="3.14926" strokeLinecap="round" stroke-linejoin="round"/>
<path opacity="0.503906" d="M195.477 152.184C197.704 154.95 198.06 157.878 197.445 161.149" stroke="white" stroke-opacity="0.9" strokeWidth="3.14926" strokeLinecap="round" stroke-linejoin="round"/>
<path opacity="0.503906" d="M201.211 149.066C203.981 153.403 204.616 158.262 204.1 163.208" stroke="white" stroke-opacity="0.9" strokeWidth="3.14926" strokeLinecap="round" stroke-linejoin="round"/>
<path opacity="0.503906" d="M152.009 176.263C149.848 173.093 148.717 169.039 149.736 165.345" stroke="white" stroke-opacity="0.9" strokeWidth="3.14926" strokeLinecap="round" stroke-linejoin="round"/>
<path d="M110.335 175.705C100.728 166.599 89.1896 137.537 109.007 132.625C120.091 129.879 126.278 142.679 123.724 151.962C121.565 159.81 115.773 166.569 112.161 173.73" stroke="white" stroke-opacity="0.9" strokeWidth="3.05414" strokeLinecap="round" stroke-linejoin="round"/>
<path d="M107.16 145.438C118.192 138.799 116.933 154.649 109.382 152.674C107.16 152.092 106.695 150.92 106.695 148.862" stroke="white" stroke-opacity="0.9" strokeWidth="3.05414" strokeLinecap="round" stroke-linejoin="round"/>
<path d="M100.636 172.69C72.2649 182.973 115.37 188.459 124.75 181.144C131.774 175.666 124.095 172.69 118.629 172.69" stroke="white" stroke-opacity="0.9" strokeWidth="3.05414" strokeLinecap="round" stroke-linejoin="round"/>
<path d="M82.9352 216.757C82.8348 216.449 82.7024 216.174 82.5381 215.931C82.3769 215.684 82.1837 215.474 81.9585 215.301C81.7364 215.127 81.4839 214.995 81.201 214.904C80.918 214.812 80.6077 214.767 80.2699 214.767C79.7162 214.767 79.2127 214.91 78.7593 215.196C78.306 215.482 77.9455 215.903 77.6777 216.46C77.41 217.017 77.2761 217.7 77.2761 218.509C77.2761 219.318 77.4115 220.001 77.6823 220.558C77.9531 221.115 78.3197 221.536 78.7822 221.822C79.2446 222.108 79.7649 222.251 80.343 222.251C80.8785 222.251 81.35 222.137 81.7577 221.909C82.1685 221.678 82.4879 221.352 82.7161 220.932C82.9474 220.51 83.063 220.012 83.063 219.44L83.4098 219.513H80.5985V218.509H84.1583V219.513C84.1583 220.283 83.994 220.952 83.6654 221.521C83.3398 222.09 82.8896 222.531 82.3145 222.845C81.7425 223.155 81.0853 223.31 80.343 223.31C79.5154 223.31 78.7882 223.115 78.1615 222.726C77.5378 222.337 77.051 221.783 76.7011 221.065C76.3542 220.347 76.1808 219.495 76.1808 218.509C76.1808 217.77 76.2797 217.105 76.4775 216.515C76.6783 215.921 76.9612 215.416 77.3263 215C77.6914 214.583 78.1235 214.263 78.6224 214.041C79.1214 213.819 79.6706 213.708 80.2699 213.708C80.7628 213.708 81.2223 213.783 81.6482 213.932C82.0772 214.078 82.459 214.286 82.7937 214.557C83.1314 214.825 83.4129 215.146 83.638 215.52C83.8632 215.891 84.0183 216.303 84.1035 216.757H82.9352ZM85.9507 223.182V216.172H86.9912V217.231H87.0643C87.192 216.884 87.4233 216.603 87.758 216.387C88.0926 216.171 88.4699 216.063 88.8898 216.063C88.9689 216.063 89.0678 216.064 89.1864 216.067C89.3051 216.071 89.3948 216.075 89.4557 216.081V217.176C89.4192 217.167 89.3355 217.154 89.2047 217.135C89.0769 217.114 88.9415 217.103 88.7985 217.103C88.4577 217.103 88.1535 217.175 87.8857 217.318C87.621 217.458 87.4111 217.653 87.2559 217.902C87.1038 218.149 87.0278 218.43 87.0278 218.746V223.182H85.9507ZM92.7952 223.347C92.351 223.347 91.9479 223.263 91.5858 223.096C91.2238 222.925 90.9362 222.68 90.7233 222.361C90.5103 222.038 90.4038 221.649 90.4038 221.193C90.4038 220.791 90.4829 220.465 90.6411 220.216C90.7993 219.963 91.0108 219.766 91.2755 219.623C91.5402 219.48 91.8323 219.373 92.1517 219.303C92.4742 219.23 92.7983 219.172 93.1238 219.13C93.5498 219.075 93.8951 219.034 94.1598 219.007C94.4275 218.976 94.6222 218.926 94.7439 218.856C94.8687 218.786 94.9311 218.664 94.9311 218.491V218.454C94.9311 218.004 94.8078 217.654 94.5614 217.405C94.318 217.155 93.9483 217.03 93.4524 217.03C92.9382 217.03 92.5351 217.143 92.243 217.368C91.9509 217.593 91.7455 217.834 91.6269 218.089L90.6046 217.724C90.7872 217.298 91.0306 216.967 91.3348 216.729C91.6421 216.489 91.9768 216.322 92.3388 216.227C92.7039 216.13 93.063 216.081 93.4159 216.081C93.641 216.081 93.8996 216.109 94.1917 216.163C94.4868 216.215 94.7713 216.323 95.0451 216.487C95.322 216.652 95.5517 216.9 95.7343 217.231C95.9168 217.563 96.0081 218.007 96.0081 218.564V223.182H94.9311V222.233H94.8763C94.8033 222.385 94.6816 222.548 94.5112 222.721C94.3408 222.895 94.1141 223.042 93.8312 223.164C93.5482 223.286 93.2029 223.347 92.7952 223.347ZM92.9595 222.379C93.3855 222.379 93.7445 222.295 94.0366 222.128C94.3317 221.961 94.5538 221.745 94.7029 221.48C94.855 221.215 94.9311 220.937 94.9311 220.645V219.659C94.8854 219.714 94.785 219.764 94.6298 219.81C94.4777 219.852 94.3013 219.89 94.1004 219.924C93.9027 219.954 93.7095 219.982 93.5209 220.006C93.3353 220.027 93.1847 220.046 93.069 220.061C92.7891 220.097 92.5275 220.157 92.2841 220.239C92.0437 220.318 91.849 220.438 91.6999 220.599C91.5539 220.757 91.4808 220.974 91.4808 221.247C91.4808 221.622 91.6193 221.905 91.8961 222.096C92.1761 222.285 92.5305 222.379 92.9595 222.379ZM100.822 223.328C100.165 223.328 99.5986 223.173 99.124 222.863C98.6494 222.553 98.2843 222.125 98.0287 221.58C97.7731 221.036 97.6454 220.414 97.6454 219.714C97.6454 219.002 97.7762 218.374 98.0378 217.829C98.3025 217.281 98.6707 216.854 99.1423 216.547C99.6169 216.236 100.171 216.081 100.803 216.081C101.296 216.081 101.741 216.172 102.136 216.355C102.532 216.538 102.856 216.793 103.108 217.122C103.361 217.45 103.517 217.834 103.578 218.272H102.501C102.419 217.952 102.237 217.669 101.954 217.423C101.674 217.173 101.296 217.049 100.822 217.049C100.402 217.049 100.034 217.158 99.7173 217.377C99.4039 217.593 99.159 217.899 98.9825 218.295C98.8091 218.687 98.7224 219.148 98.7224 219.677C98.7224 220.219 98.8076 220.691 98.978 221.092C99.1514 221.494 99.3948 221.806 99.7082 222.028C100.025 222.25 100.396 222.361 100.822 222.361C101.102 222.361 101.356 222.312 101.584 222.215C101.812 222.117 102.005 221.978 102.163 221.795C102.322 221.612 102.434 221.393 102.501 221.138H103.578C103.517 221.552 103.367 221.924 103.126 222.256C102.889 222.585 102.574 222.846 102.182 223.041C101.792 223.233 101.339 223.328 100.822 223.328ZM105.153 223.182V216.172H106.23V223.182H105.153ZM105.7 215.004C105.49 215.004 105.309 214.933 105.157 214.79C105.008 214.647 104.934 214.475 104.934 214.274C104.934 214.073 105.008 213.901 105.157 213.758C105.309 213.615 105.49 213.544 105.7 213.544C105.91 213.544 106.09 213.615 106.239 213.758C106.391 213.901 106.467 214.073 106.467 214.274C106.467 214.475 106.391 214.647 106.239 214.79C106.09 214.933 105.91 215.004 105.7 215.004ZM110.265 223.347C109.821 223.347 109.418 223.263 109.056 223.096C108.694 222.925 108.406 222.68 108.193 222.361C107.98 222.038 107.874 221.649 107.874 221.193C107.874 220.791 107.953 220.465 108.111 220.216C108.269 219.963 108.481 219.766 108.746 219.623C109.01 219.48 109.302 219.373 109.622 219.303C109.944 219.23 110.268 219.172 110.594 219.13C111.02 219.075 111.365 219.034 111.63 219.007C111.898 218.976 112.092 218.926 112.214 218.856C112.339 218.786 112.401 218.664 112.401 218.491V218.454C112.401 218.004 112.278 217.654 112.031 217.405C111.788 217.155 111.418 217.03 110.922 217.03C110.408 217.03 110.005 217.143 109.713 217.368C109.421 217.593 109.216 217.834 109.097 218.089L108.075 217.724C108.257 217.298 108.501 216.967 108.805 216.729C109.112 216.489 109.447 216.322 109.809 216.227C110.174 216.13 110.533 216.081 110.886 216.081C111.111 216.081 111.37 216.109 111.662 216.163C111.957 216.215 112.241 216.323 112.515 216.487C112.792 216.652 113.022 216.9 113.204 217.231C113.387 217.563 113.478 218.007 113.478 218.564V223.182H112.401V222.233H112.346C112.273 222.385 112.152 222.548 111.981 222.721C111.811 222.895 111.584 223.042 111.301 223.164C111.018 223.286 110.673 223.347 110.265 223.347ZM110.43 222.379C110.856 222.379 111.215 222.295 111.507 222.128C111.802 221.961 112.024 221.745 112.173 221.48C112.325 221.215 112.401 220.937 112.401 220.645V219.659C112.356 219.714 112.255 219.764 112.1 219.81C111.948 219.852 111.771 219.89 111.571 219.924C111.373 219.954 111.18 219.982 110.991 220.006C110.805 220.027 110.655 220.046 110.539 220.061C110.259 220.097 109.998 220.157 109.754 220.239C109.514 220.318 109.319 220.438 109.17 220.599C109.024 220.757 108.951 220.974 108.951 221.247C108.951 221.622 109.089 221.905 109.366 222.096C109.646 222.285 110.001 222.379 110.43 222.379ZM120.409 217.742L119.442 218.016C119.381 217.855 119.291 217.698 119.173 217.546C119.057 217.391 118.899 217.263 118.698 217.163C118.497 217.062 118.24 217.012 117.927 217.012C117.498 217.012 117.14 217.111 116.854 217.309C116.571 217.504 116.43 217.751 116.43 218.053C116.43 218.32 116.527 218.532 116.722 218.687C116.917 218.842 117.221 218.972 117.635 219.075L118.675 219.331C119.302 219.483 119.769 219.715 120.076 220.029C120.384 220.339 120.537 220.739 120.537 221.229C120.537 221.631 120.422 221.99 120.19 222.306C119.962 222.623 119.643 222.872 119.232 223.055C118.821 223.237 118.344 223.328 117.799 223.328C117.084 223.328 116.492 223.173 116.024 222.863C115.555 222.553 115.258 222.099 115.134 221.503L116.156 221.247C116.253 221.625 116.437 221.908 116.708 222.096C116.982 222.285 117.34 222.379 117.781 222.379C118.283 222.379 118.681 222.273 118.976 222.06C119.275 221.844 119.424 221.585 119.424 221.284C119.424 221.04 119.338 220.837 119.168 220.672C118.998 220.505 118.736 220.38 118.383 220.298L117.215 220.024C116.573 219.872 116.101 219.636 115.8 219.317C115.502 218.994 115.353 218.591 115.353 218.107C115.353 217.712 115.464 217.362 115.686 217.058C115.911 216.754 116.217 216.515 116.603 216.341C116.993 216.168 117.434 216.081 117.927 216.081C118.62 216.081 119.165 216.233 119.561 216.538C119.959 216.842 120.242 217.243 120.409 217.742ZM127.836 223.347C127.392 223.347 126.988 223.263 126.626 223.096C126.264 222.925 125.977 222.68 125.764 222.361C125.551 222.038 125.444 221.649 125.444 221.193C125.444 220.791 125.524 220.465 125.682 220.216C125.84 219.963 126.051 219.766 126.316 219.623C126.581 219.48 126.873 219.373 127.192 219.303C127.515 219.23 127.839 219.172 128.164 219.13C128.59 219.075 128.936 219.034 129.2 219.007C129.468 218.976 129.663 218.926 129.785 218.856C129.909 218.786 129.972 218.664 129.972 218.491V218.454C129.972 218.004 129.848 217.654 129.602 217.405C129.359 217.155 128.989 217.03 128.493 217.03C127.979 217.03 127.576 217.143 127.284 217.368C126.992 217.593 126.786 217.834 126.668 218.089L125.645 217.724C125.828 217.298 126.071 216.967 126.375 216.729C126.683 216.489 127.017 216.322 127.379 216.227C127.745 216.13 128.104 216.081 128.456 216.081C128.682 216.081 128.94 216.109 129.232 216.163C129.527 216.215 129.812 216.323 130.086 216.487C130.363 216.652 130.592 216.9 130.775 217.231C130.957 217.563 131.049 218.007 131.049 218.564V223.182H129.972V222.233H129.917C129.844 222.385 129.722 222.548 129.552 222.721C129.381 222.895 129.155 223.042 128.872 223.164C128.589 223.286 128.244 223.347 127.836 223.347ZM128 222.379C128.426 222.379 128.785 222.295 129.077 222.128C129.372 221.961 129.594 221.745 129.743 221.48C129.896 221.215 129.972 220.937 129.972 220.645V219.659C129.926 219.714 129.826 219.764 129.67 219.81C129.518 219.852 129.342 219.89 129.141 219.924C128.943 219.954 128.75 219.982 128.561 220.006C128.376 220.027 128.225 220.046 128.11 220.061C127.83 220.097 127.568 220.157 127.325 220.239C127.084 220.318 126.89 220.438 126.741 220.599C126.594 220.757 126.521 220.974 126.521 221.247C126.521 221.622 126.66 221.905 126.937 222.096C127.217 222.285 127.571 222.379 128 222.379ZM137.706 213.836V223.182H136.629V213.836H137.706ZM141.742 223.347C141.297 223.347 140.894 223.263 140.532 223.096C140.17 222.925 139.883 222.68 139.67 222.361C139.457 222.038 139.35 221.649 139.35 221.193C139.35 220.791 139.429 220.465 139.588 220.216C139.746 219.963 139.957 219.766 140.222 219.623C140.487 219.48 140.779 219.373 141.098 219.303C141.421 219.23 141.745 219.172 142.07 219.13C142.496 219.075 142.841 219.034 143.106 219.007C143.374 218.976 143.569 218.926 143.69 218.856C143.815 218.786 143.877 218.664 143.877 218.491V218.454C143.877 218.004 143.754 217.654 143.508 217.405C143.264 217.155 142.895 217.03 142.399 217.03C141.885 217.03 141.481 217.143 141.189 217.368C140.897 217.593 140.692 217.834 140.573 218.089L139.551 217.724C139.734 217.298 139.977 216.967 140.281 216.729C140.589 216.489 140.923 216.322 141.285 216.227C141.65 216.13 142.009 216.081 142.362 216.081C142.587 216.081 142.846 216.109 143.138 216.163C143.433 216.215 143.718 216.323 143.992 216.487C144.268 216.652 144.498 216.9 144.681 217.231C144.863 217.563 144.955 218.007 144.955 218.564V223.182H143.877V222.233H143.823C143.75 222.385 143.628 222.548 143.458 222.721C143.287 222.895 143.061 223.042 142.778 223.164C142.495 223.286 142.149 223.347 141.742 223.347ZM141.906 222.379C142.332 222.379 142.691 222.295 142.983 222.128C143.278 221.961 143.5 221.745 143.649 221.48C143.801 221.215 143.877 220.937 143.877 220.645V219.659C143.832 219.714 143.731 219.764 143.576 219.81C143.424 219.852 143.248 219.89 143.047 219.924C142.849 219.954 142.656 219.982 142.467 220.006C142.282 220.027 142.131 220.046 142.015 220.061C141.736 220.097 141.474 220.157 141.23 220.239C140.99 220.318 140.795 220.438 140.646 220.599C140.5 220.757 140.427 220.974 140.427 221.247C140.427 221.622 140.566 221.905 140.843 222.096C141.122 222.285 141.477 222.379 141.906 222.379ZM152.598 223.347C152.153 223.347 151.75 223.263 151.388 223.096C151.026 222.925 150.739 222.68 150.526 222.361C150.313 222.038 150.206 221.649 150.206 221.193C150.206 220.791 150.285 220.465 150.444 220.216C150.602 219.963 150.813 219.766 151.078 219.623C151.343 219.48 151.635 219.373 151.954 219.303C152.277 219.23 152.601 219.172 152.926 219.13C153.352 219.075 153.698 219.034 153.962 219.007C154.23 218.976 154.425 218.926 154.546 218.856C154.671 218.786 154.734 218.664 154.734 218.491V218.454C154.734 218.004 154.61 217.654 154.364 217.405C154.12 217.155 153.751 217.03 153.255 217.03C152.741 217.03 152.338 217.143 152.045 217.368C151.753 217.593 151.548 217.834 151.429 218.089L150.407 217.724C150.59 217.298 150.833 216.967 151.137 216.729C151.445 216.489 151.779 216.322 152.141 216.227C152.506 216.13 152.865 216.081 153.218 216.081C153.444 216.081 153.702 216.109 153.994 216.163C154.289 216.215 154.574 216.323 154.848 216.487C155.124 216.652 155.354 216.9 155.537 217.231C155.719 217.563 155.811 218.007 155.811 218.564V223.182H154.734V222.233H154.679C154.606 222.385 154.484 222.548 154.314 222.721C154.143 222.895 153.917 223.042 153.634 223.164C153.351 223.286 153.005 223.347 152.598 223.347ZM152.762 222.379C153.188 222.379 153.547 222.295 153.839 222.128C154.134 221.961 154.356 221.745 154.505 221.48C154.657 221.215 154.734 220.937 154.734 220.645V219.659C154.688 219.714 154.587 219.764 154.432 219.81C154.28 219.852 154.104 219.89 153.903 219.924C153.705 219.954 153.512 219.982 153.323 220.006C153.138 220.027 152.987 220.046 152.872 220.061C152.592 220.097 152.33 220.157 152.087 220.239C151.846 220.318 151.651 220.438 151.502 220.599C151.356 220.757 151.283 220.974 151.283 221.247C151.283 221.622 151.422 221.905 151.699 222.096C151.979 222.285 152.333 222.379 152.762 222.379ZM157.776 225.811V216.172H158.817V217.286H158.945C159.024 217.164 159.133 217.009 159.273 216.82C159.416 216.629 159.62 216.458 159.885 216.309C160.153 216.157 160.515 216.081 160.971 216.081C161.561 216.081 162.082 216.229 162.532 216.524C162.982 216.819 163.334 217.237 163.586 217.779C163.839 218.32 163.965 218.959 163.965 219.696C163.965 220.438 163.839 221.082 163.586 221.626C163.334 222.168 162.984 222.588 162.536 222.886C162.089 223.181 161.573 223.328 160.989 223.328C160.539 223.328 160.178 223.254 159.908 223.105C159.637 222.953 159.429 222.781 159.282 222.589C159.136 222.394 159.024 222.233 158.945 222.105H158.853V225.811H157.776ZM158.835 219.677C158.835 220.207 158.913 220.674 159.068 221.078C159.223 221.48 159.45 221.795 159.748 222.023C160.046 222.248 160.411 222.361 160.843 222.361C161.294 222.361 161.669 222.242 161.971 222.005C162.275 221.765 162.503 221.442 162.655 221.037C162.81 220.63 162.888 220.176 162.888 219.677C162.888 219.185 162.812 218.74 162.66 218.345C162.511 217.946 162.284 217.631 161.98 217.4C161.678 217.166 161.3 217.049 160.843 217.049C160.405 217.049 160.037 217.16 159.739 217.382C159.441 217.601 159.216 217.908 159.063 218.304C158.911 218.696 158.835 219.154 158.835 219.677ZM165.608 225.811V216.172H166.648V217.286H166.776C166.855 217.164 166.965 217.009 167.105 216.82C167.248 216.629 167.452 216.458 167.716 216.309C167.984 216.157 168.346 216.081 168.802 216.081C169.393 216.081 169.913 216.229 170.363 216.524C170.814 216.819 171.165 217.237 171.418 217.779C171.67 218.32 171.796 218.959 171.796 219.696C171.796 220.438 171.67 221.082 171.418 221.626C171.165 222.168 170.815 222.588 170.368 222.886C169.921 223.181 169.405 223.328 168.821 223.328C168.37 223.328 168.01 223.254 167.739 223.105C167.468 222.953 167.26 222.781 167.114 222.589C166.968 222.394 166.855 222.233 166.776 222.105H166.685V225.811H165.608ZM166.667 219.677C166.667 220.207 166.744 220.674 166.899 221.078C167.055 221.48 167.281 221.795 167.579 222.023C167.878 222.248 168.243 222.361 168.675 222.361C169.125 222.361 169.501 222.242 169.802 222.005C170.106 221.765 170.334 221.442 170.487 221.037C170.642 220.63 170.719 220.176 170.719 219.677C170.719 219.185 170.643 218.74 170.491 218.345C170.342 217.946 170.115 217.631 169.811 217.4C169.51 217.166 169.131 217.049 168.675 217.049C168.237 217.049 167.868 217.16 167.57 217.382C167.272 217.601 167.047 217.908 166.895 218.304C166.743 218.696 166.667 219.154 166.667 219.677ZM177.054 225.811V216.172H178.094V217.286H178.222C178.301 217.164 178.411 217.009 178.551 216.82C178.694 216.629 178.898 216.458 179.162 216.309C179.43 216.157 179.792 216.081 180.248 216.081C180.839 216.081 181.359 216.229 181.809 216.524C182.26 216.819 182.611 217.237 182.863 217.779C183.116 218.32 183.242 218.959 183.242 219.696C183.242 220.438 183.116 221.082 182.863 221.626C182.611 222.168 182.261 222.588 181.814 222.886C181.367 223.181 180.851 223.328 180.267 223.328C179.816 223.328 179.456 223.254 179.185 223.105C178.914 222.953 178.706 222.781 178.56 222.589C178.414 222.394 178.301 222.233 178.222 222.105H178.131V225.811H177.054ZM178.113 219.677C178.113 220.207 178.19 220.674 178.345 221.078C178.5 221.48 178.727 221.795 179.025 222.023C179.323 222.248 179.689 222.361 180.121 222.361C180.571 222.361 180.947 222.242 181.248 222.005C181.552 221.765 181.78 221.442 181.932 221.037C182.088 220.63 182.165 220.176 182.165 219.677C182.165 219.185 182.089 218.74 181.937 218.345C181.788 217.946 181.561 217.631 181.257 217.4C180.956 217.166 180.577 217.049 180.121 217.049C179.683 217.049 179.314 217.16 179.016 217.382C178.718 217.601 178.493 217.908 178.341 218.304C178.189 218.696 178.113 219.154 178.113 219.677ZM189.303 220.316V216.172H190.38V223.182H189.303V221.996H189.23C189.066 222.352 188.81 222.654 188.463 222.904C188.116 223.15 187.678 223.274 187.149 223.274C186.711 223.274 186.321 223.178 185.981 222.986C185.64 222.791 185.372 222.499 185.177 222.11C184.983 221.717 184.885 221.223 184.885 220.627V216.172H185.962V220.554C185.962 221.065 186.105 221.472 186.391 221.777C186.68 222.081 187.048 222.233 187.496 222.233C187.763 222.233 188.036 222.165 188.313 222.028C188.593 221.891 188.827 221.681 189.015 221.398C189.207 221.115 189.303 220.754 189.303 220.316ZM195.292 223.328C194.616 223.328 194.034 223.179 193.544 222.881C193.057 222.58 192.681 222.16 192.417 221.622C192.155 221.08 192.024 220.45 192.024 219.732C192.024 219.014 192.155 218.381 192.417 217.834C192.681 217.283 193.049 216.854 193.521 216.547C193.996 216.236 194.549 216.081 195.182 216.081C195.547 216.081 195.908 216.142 196.264 216.264C196.62 216.385 196.944 216.583 197.236 216.857C197.528 217.128 197.761 217.487 197.934 217.934C198.108 218.381 198.194 218.932 198.194 219.586V220.043H192.791V219.111H197.099C197.099 218.716 197.02 218.363 196.862 218.053C196.707 217.742 196.484 217.497 196.195 217.318C195.909 217.138 195.572 217.049 195.182 217.049C194.753 217.049 194.382 217.155 194.069 217.368C193.758 217.578 193.519 217.852 193.352 218.19C193.185 218.527 193.101 218.889 193.101 219.276V219.896C193.101 220.426 193.192 220.875 193.375 221.243C193.561 221.608 193.818 221.886 194.146 222.078C194.475 222.267 194.857 222.361 195.292 222.361C195.575 222.361 195.83 222.321 196.058 222.242C196.29 222.16 196.489 222.038 196.656 221.877C196.824 221.713 196.953 221.509 197.044 221.266L198.085 221.558C197.975 221.911 197.791 222.221 197.533 222.489C197.274 222.753 196.954 222.96 196.574 223.109C196.194 223.255 195.766 223.328 195.292 223.328ZM202.48 223.328C201.896 223.328 201.38 223.181 200.933 222.886C200.485 222.588 200.135 222.168 199.883 221.626C199.63 221.082 199.504 220.438 199.504 219.696C199.504 218.959 199.63 218.32 199.883 217.779C200.135 217.237 200.487 216.819 200.937 216.524C201.387 216.229 201.908 216.081 202.498 216.081C202.954 216.081 203.315 216.157 203.58 216.309C203.847 216.458 204.051 216.629 204.191 216.82C204.334 217.009 204.445 217.164 204.524 217.286H204.616V213.836H205.693V223.182H204.652V222.105H204.524C204.445 222.233 204.333 222.394 204.187 222.589C204.04 222.781 203.832 222.953 203.561 223.105C203.291 223.254 202.93 223.328 202.48 223.328ZM202.626 222.361C203.058 222.361 203.423 222.248 203.721 222.023C204.019 221.795 204.246 221.48 204.401 221.078C204.556 220.674 204.634 220.207 204.634 219.677C204.634 219.154 204.558 218.696 204.406 218.304C204.253 217.908 204.028 217.601 203.73 217.382C203.432 217.16 203.064 217.049 202.626 217.049C202.169 217.049 201.789 217.166 201.485 217.4C201.184 217.631 200.957 217.946 200.805 218.345C200.656 218.74 200.581 219.185 200.581 219.677C200.581 220.176 200.657 220.63 200.809 221.037C200.965 221.442 201.193 221.765 201.494 222.005C201.798 222.242 202.175 222.361 202.626 222.361ZM210.754 223.328C210.078 223.328 209.496 223.179 209.006 222.881C208.519 222.58 208.143 222.16 207.879 221.622C207.617 221.08 207.486 220.45 207.486 219.732C207.486 219.014 207.617 218.381 207.879 217.834C208.143 217.283 208.511 216.854 208.983 216.547C209.458 216.236 210.011 216.081 210.644 216.081C211.009 216.081 211.37 216.142 211.726 216.264C212.082 216.385 212.406 216.583 212.698 216.857C212.99 217.128 213.223 217.487 213.396 217.934C213.57 218.381 213.656 218.932 213.656 219.586V220.043H208.253V219.111H212.561C212.561 218.716 212.482 218.363 212.324 218.053C212.169 217.742 211.946 217.497 211.657 217.318C211.371 217.138 211.034 217.049 210.644 217.049C210.215 217.049 209.844 217.155 209.531 217.368C209.22 217.578 208.982 217.852 208.814 218.19C208.647 218.527 208.563 218.889 208.563 219.276V219.896C208.563 220.426 208.654 220.875 208.837 221.243C209.023 221.608 209.28 221.886 209.608 222.078C209.937 222.267 210.319 222.361 210.754 222.361C211.037 222.361 211.292 222.321 211.521 222.242C211.752 222.16 211.951 222.038 212.118 221.877C212.286 221.713 212.415 221.509 212.506 221.266L213.547 221.558C213.437 221.911 213.253 222.221 212.995 222.489C212.736 222.753 212.417 222.96 212.036 223.109C211.656 223.255 211.228 223.328 210.754 223.328ZM220.26 217.742L219.293 218.016C219.232 217.855 219.142 217.698 219.023 217.546C218.908 217.391 218.75 217.263 218.549 217.163C218.348 217.062 218.091 217.012 217.777 217.012C217.348 217.012 216.991 217.111 216.705 217.309C216.422 217.504 216.281 217.751 216.281 218.053C216.281 218.32 216.378 218.532 216.573 218.687C216.767 218.842 217.072 218.972 217.485 219.075L218.526 219.331C219.153 219.483 219.62 219.715 219.927 220.029C220.234 220.339 220.388 220.739 220.388 221.229C220.388 221.631 220.272 221.99 220.041 222.306C219.813 222.623 219.493 222.872 219.083 223.055C218.672 223.237 218.194 223.328 217.65 223.328C216.935 223.328 216.343 223.173 215.874 222.863C215.406 222.553 215.109 222.099 214.984 221.503L216.007 221.247C216.104 221.625 216.288 221.908 216.559 222.096C216.833 222.285 217.19 222.379 217.631 222.379C218.133 222.379 218.532 222.273 218.827 222.06C219.125 221.844 219.274 221.585 219.274 221.284C219.274 221.04 219.189 220.837 219.019 220.672C218.848 220.505 218.587 220.38 218.234 220.298L217.065 220.024C216.424 219.872 215.952 219.636 215.651 219.317C215.353 218.994 215.203 218.591 215.203 218.107C215.203 217.712 215.315 217.362 215.537 217.058C215.762 216.754 216.068 216.515 216.454 216.341C216.843 216.168 217.285 216.081 217.777 216.081C218.471 216.081 219.016 216.233 219.411 216.538C219.81 216.842 220.093 217.243 220.26 217.742ZM91.9857 239.347C91.5415 239.347 91.1384 239.263 90.7763 239.096C90.4143 238.925 90.1267 238.68 89.9138 238.361C89.7008 238.038 89.5943 237.649 89.5943 237.193C89.5943 236.791 89.6734 236.465 89.8316 236.216C89.9898 235.963 90.2013 235.766 90.466 235.623C90.7307 235.48 91.0228 235.373 91.3422 235.303C91.6647 235.23 91.9888 235.172 92.3143 235.13C92.7403 235.075 93.0856 235.034 93.3503 235.007C93.618 234.976 93.8127 234.926 93.9344 234.856C94.0592 234.786 94.1216 234.664 94.1216 234.491V234.454C94.1216 234.004 93.9983 233.654 93.7519 233.405C93.5085 233.155 93.1388 233.03 92.6429 233.03C92.1287 233.03 91.7256 233.143 91.4335 233.368C91.1414 233.593 90.936 233.834 90.8174 234.089L89.7951 233.724C89.9777 233.298 90.2211 232.967 90.5253 232.729C90.8326 232.489 91.1673 232.322 91.5293 232.227C91.8944 232.13 92.2535 232.081 92.6064 232.081C92.8315 232.081 93.0901 232.109 93.3822 232.163C93.6773 232.215 93.9618 232.323 94.2356 232.487C94.5125 232.652 94.7422 232.9 94.9248 233.231C95.1073 233.563 95.1986 234.007 95.1986 234.564V239.182H94.1216V238.233H94.0668C93.9938 238.385 93.8721 238.548 93.7017 238.721C93.5313 238.895 93.3046 239.042 93.0217 239.164C92.7387 239.286 92.3934 239.347 91.9857 239.347ZM92.15 238.379C92.576 238.379 92.935 238.295 93.2271 238.128C93.5222 237.961 93.7443 237.745 93.8934 237.48C94.0455 237.215 94.1216 236.937 94.1216 236.645V235.659C94.0759 235.714 93.9755 235.764 93.8203 235.81C93.6682 235.852 93.4918 235.89 93.2909 235.924C93.0932 235.954 92.9 235.982 92.7114 236.006C92.5258 236.027 92.3752 236.046 92.2595 236.061C91.9796 236.097 91.718 236.157 91.4746 236.239C91.2342 236.318 91.0395 236.438 90.8904 236.599C90.7444 236.757 90.6713 236.974 90.6713 237.247C90.6713 237.622 90.8098 237.905 91.0866 238.096C91.3666 238.285 91.721 238.379 92.15 238.379ZM100.012 239.328C99.3551 239.328 98.7891 239.173 98.3145 238.863C97.8399 238.553 97.4748 238.125 97.2192 237.58C96.9636 237.036 96.8359 236.414 96.8359 235.714C96.8359 235.002 96.9667 234.374 97.2283 233.829C97.493 233.281 97.8612 232.854 98.3328 232.547C98.8074 232.236 99.3611 232.081 99.994 232.081C100.487 232.081 100.931 232.172 101.327 232.355C101.722 232.538 102.046 232.793 102.299 233.122C102.551 233.45 102.708 233.834 102.769 234.272H101.692C101.61 233.952 101.427 233.669 101.144 233.423C100.864 233.173 100.487 233.049 100.012 233.049C99.5924 233.049 99.2242 233.158 98.9078 233.377C98.5944 233.593 98.3495 233.899 98.173 234.295C97.9996 234.687 97.9129 235.148 97.9129 235.677C97.9129 236.219 97.9981 236.691 98.1685 237.092C98.3419 237.494 98.5853 237.806 98.8987 238.028C99.2151 238.25 99.5863 238.361 100.012 238.361C100.292 238.361 100.546 238.312 100.774 238.215C101.003 238.117 101.196 237.978 101.354 237.795C101.512 237.612 101.625 237.393 101.692 237.138H102.769C102.708 237.552 102.557 237.924 102.317 238.256C102.08 238.585 101.765 238.846 101.372 239.041C100.983 239.233 100.529 239.328 100.012 239.328ZM107.392 232.172V233.085H103.759V232.172H107.392ZM104.818 230.493H105.895V237.174C105.895 237.479 105.939 237.707 106.027 237.859C106.119 238.008 106.234 238.108 106.374 238.16C106.517 238.209 106.668 238.233 106.826 238.233C106.945 238.233 107.042 238.227 107.118 238.215C107.194 238.2 107.255 238.187 107.301 238.178L107.52 239.146C107.447 239.173 107.345 239.201 107.214 239.228C107.083 239.258 106.917 239.274 106.716 239.274C106.412 239.274 106.114 239.208 105.822 239.077C105.533 238.947 105.293 238.747 105.101 238.48C104.912 238.212 104.818 237.874 104.818 237.466V230.493ZM113.43 236.316V232.172H114.507V239.182H113.43V237.996H113.357C113.192 238.352 112.937 238.654 112.59 238.904C112.243 239.15 111.805 239.274 111.276 239.274C110.837 239.274 110.448 239.178 110.107 238.986C109.767 238.791 109.499 238.499 109.304 238.11C109.109 237.717 109.012 237.223 109.012 236.627V232.172H110.089V236.554C110.089 237.065 110.232 237.472 110.518 237.777C110.807 238.081 111.175 238.233 111.622 238.233C111.89 238.233 112.163 238.165 112.439 238.028C112.719 237.891 112.954 237.681 113.142 237.398C113.334 237.115 113.43 236.754 113.43 236.316ZM118.542 239.347C118.098 239.347 117.695 239.263 117.333 239.096C116.971 238.925 116.683 238.68 116.47 238.361C116.257 238.038 116.151 237.649 116.151 237.193C116.151 236.791 116.23 236.465 116.388 236.216C116.546 235.963 116.758 235.766 117.023 235.623C117.287 235.48 117.579 235.373 117.899 235.303C118.221 235.23 118.545 235.172 118.871 235.13C119.297 235.075 119.642 235.034 119.907 235.007C120.175 234.976 120.369 234.926 120.491 234.856C120.616 234.786 120.678 234.664 120.678 234.491V234.454C120.678 234.004 120.555 233.654 120.308 233.405C120.065 233.155 119.695 233.03 119.199 233.03C118.685 233.03 118.282 233.143 117.99 233.368C117.698 233.593 117.493 233.834 117.374 234.089L116.352 233.724C116.534 233.298 116.778 232.967 117.082 232.729C117.389 232.489 117.724 232.322 118.086 232.227C118.451 232.13 118.81 232.081 119.163 232.081C119.388 232.081 119.647 232.109 119.939 232.163C120.234 232.215 120.518 232.323 120.792 232.487C121.069 232.652 121.299 232.9 121.481 233.231C121.664 233.563 121.755 234.007 121.755 234.564V239.182H120.678V238.233H120.623C120.55 238.385 120.429 238.548 120.258 238.721C120.088 238.895 119.861 239.042 119.578 239.164C119.295 239.286 118.95 239.347 118.542 239.347ZM118.707 238.379C119.133 238.379 119.492 238.295 119.784 238.128C120.079 237.961 120.301 237.745 120.45 237.48C120.602 237.215 120.678 236.937 120.678 236.645V235.659C120.632 235.714 120.532 235.764 120.377 235.81C120.225 235.852 120.048 235.89 119.848 235.924C119.65 235.954 119.457 235.982 119.268 236.006C119.082 236.027 118.932 236.046 118.816 236.061C118.536 236.097 118.275 236.157 118.031 236.239C117.791 236.318 117.596 236.438 117.447 236.599C117.301 236.757 117.228 236.974 117.228 237.247C117.228 237.622 117.366 237.905 117.643 238.096C117.923 238.285 118.278 238.379 118.707 238.379ZM123.721 239.182V232.172H124.762V233.231H124.835C124.962 232.884 125.194 232.603 125.528 232.387C125.863 232.171 126.24 232.063 126.66 232.063C126.739 232.063 126.838 232.064 126.957 232.067C127.075 232.071 127.165 232.075 127.226 232.081V233.176C127.189 233.167 127.106 233.154 126.975 233.135C126.847 233.114 126.712 233.103 126.569 233.103C126.228 233.103 125.924 233.175 125.656 233.318C125.391 233.458 125.181 233.653 125.026 233.902C124.874 234.149 124.798 234.43 124.798 234.746V239.182H123.721ZM132.117 239.182V232.172H133.158V233.231H133.231C133.359 232.884 133.59 232.603 133.924 232.387C134.259 232.171 134.636 232.063 135.056 232.063C135.135 232.063 135.234 232.064 135.353 232.067C135.472 232.071 135.561 232.075 135.622 232.081V233.176C135.586 233.167 135.502 233.154 135.371 233.135C135.243 233.114 135.108 233.103 134.965 233.103C134.624 233.103 134.32 233.175 134.052 233.318C133.788 233.458 133.578 233.653 133.422 233.902C133.27 234.149 133.194 234.43 133.194 234.746V239.182H132.117ZM138.962 239.347C138.518 239.347 138.114 239.263 137.752 239.096C137.39 238.925 137.103 238.68 136.89 238.361C136.677 238.038 136.57 237.649 136.57 237.193C136.57 236.791 136.649 236.465 136.808 236.216C136.966 235.963 137.177 235.766 137.442 235.623C137.707 235.48 137.999 235.373 138.318 235.303C138.641 235.23 138.965 235.172 139.29 235.13C139.716 235.075 140.062 235.034 140.326 235.007C140.594 234.976 140.789 234.926 140.91 234.856C141.035 234.786 141.098 234.664 141.098 234.491V234.454C141.098 234.004 140.974 233.654 140.728 233.405C140.484 233.155 140.115 233.03 139.619 233.03C139.105 233.03 138.702 233.143 138.41 233.368C138.117 233.593 137.912 233.834 137.793 234.089L136.771 233.724C136.954 233.298 137.197 232.967 137.501 232.729C137.809 232.489 138.143 232.322 138.505 232.227C138.87 232.13 139.229 232.081 139.582 232.081C139.808 232.081 140.066 232.109 140.358 232.163C140.653 232.215 140.938 232.323 141.212 232.487C141.489 232.652 141.718 232.9 141.901 233.231C142.083 233.563 142.175 234.007 142.175 234.564V239.182H141.098V238.233H141.043C140.97 238.385 140.848 238.548 140.678 238.721C140.507 238.895 140.281 239.042 139.998 239.164C139.715 239.286 139.369 239.347 138.962 239.347ZM139.126 238.379C139.552 238.379 139.911 238.295 140.203 238.128C140.498 237.961 140.72 237.745 140.869 237.48C141.021 237.215 141.098 236.937 141.098 236.645V235.659C141.052 235.714 140.952 235.764 140.796 235.81C140.644 235.852 140.468 235.89 140.267 235.924C140.069 235.954 139.876 235.982 139.687 236.006C139.502 236.027 139.351 236.046 139.236 236.061C138.956 236.097 138.694 236.157 138.451 236.239C138.21 236.318 138.015 236.438 137.866 236.599C137.72 236.757 137.647 236.974 137.647 237.247C137.647 237.622 137.786 237.905 138.063 238.096C138.343 238.285 138.697 238.379 139.126 238.379ZM144.14 241.811V232.172H145.181V233.286H145.309C145.388 233.164 145.497 233.009 145.637 232.82C145.78 232.629 145.984 232.458 146.249 232.309C146.517 232.157 146.879 232.081 147.335 232.081C147.925 232.081 148.446 232.229 148.896 232.524C149.346 232.819 149.698 233.237 149.95 233.779C150.203 234.32 150.329 234.959 150.329 235.696C150.329 236.438 150.203 237.082 149.95 237.626C149.698 238.168 149.348 238.588 148.9 238.886C148.453 239.181 147.938 239.328 147.353 239.328C146.903 239.328 146.543 239.254 146.272 239.105C146.001 238.953 145.793 238.781 145.646 238.589C145.5 238.394 145.388 238.233 145.309 238.105H145.218V241.811H144.14ZM145.199 235.677C145.199 236.207 145.277 236.674 145.432 237.078C145.587 237.48 145.814 237.795 146.112 238.023C146.41 238.248 146.775 238.361 147.207 238.361C147.658 238.361 148.033 238.242 148.335 238.005C148.639 237.765 148.867 237.442 149.019 237.037C149.174 236.63 149.252 236.176 149.252 235.677C149.252 235.185 149.176 234.74 149.024 234.345C148.875 233.946 148.648 233.631 148.344 233.4C148.042 233.166 147.664 233.049 147.207 233.049C146.769 233.049 146.401 233.16 146.103 233.382C145.805 233.601 145.58 233.908 145.427 234.304C145.275 234.696 145.199 235.154 145.199 235.677ZM151.972 239.182V232.172H153.049V239.182H151.972ZM152.52 231.004C152.31 231.004 152.129 230.933 151.976 230.79C151.827 230.647 151.753 230.475 151.753 230.274C151.753 230.073 151.827 229.901 151.976 229.758C152.129 229.615 152.31 229.544 152.52 229.544C152.729 229.544 152.909 229.615 153.058 229.758C153.21 229.901 153.286 230.073 153.286 230.274C153.286 230.475 153.21 230.647 153.058 230.79C152.909 230.933 152.729 231.004 152.52 231.004ZM157.669 239.328C157.084 239.328 156.569 239.181 156.121 238.886C155.674 238.588 155.324 238.168 155.072 237.626C154.819 237.082 154.693 236.438 154.693 235.696C154.693 234.959 154.819 234.32 155.072 233.779C155.324 233.237 155.676 232.819 156.126 232.524C156.576 232.229 157.097 232.081 157.687 232.081C158.143 232.081 158.504 232.157 158.768 232.309C159.036 232.458 159.24 232.629 159.38 232.82C159.523 233.009 159.634 233.164 159.713 233.286H159.804V229.836H160.881V239.182H159.841V238.105H159.713C159.634 238.233 159.521 238.394 159.375 238.589C159.229 238.781 159.021 238.953 158.75 239.105C158.479 239.254 158.119 239.328 157.669 239.328ZM157.815 238.361C158.247 238.361 158.612 238.248 158.91 238.023C159.208 237.795 159.435 237.48 159.59 237.078C159.745 236.674 159.823 236.207 159.823 235.677C159.823 235.154 159.747 234.696 159.595 234.304C159.442 233.908 159.217 233.601 158.919 233.382C158.621 233.16 158.253 233.049 157.815 233.049C157.358 233.049 156.978 233.166 156.674 233.4C156.372 233.631 156.146 233.946 155.994 234.345C155.845 234.74 155.77 235.185 155.77 235.677C155.77 236.176 155.846 236.63 155.998 237.037C156.153 237.442 156.382 237.765 156.683 238.005C156.987 238.242 157.364 238.361 157.815 238.361ZM165.066 239.347C164.622 239.347 164.219 239.263 163.857 239.096C163.495 238.925 163.207 238.68 162.995 238.361C162.782 238.038 162.675 237.649 162.675 237.193C162.675 236.791 162.754 236.465 162.912 236.216C163.071 235.963 163.282 235.766 163.547 235.623C163.811 235.48 164.104 235.373 164.423 235.303C164.745 235.23 165.07 235.172 165.395 235.13C165.821 235.075 166.166 235.034 166.431 235.007C166.699 234.976 166.893 234.926 167.015 234.856C167.14 234.786 167.202 234.664 167.202 234.491V234.454C167.202 234.004 167.079 233.654 166.833 233.405C166.589 233.155 166.22 233.03 165.724 233.03C165.209 233.03 164.806 233.143 164.514 233.368C164.222 233.593 164.017 233.834 163.898 234.089L162.876 233.724C163.058 233.298 163.302 232.967 163.606 232.729C163.913 232.489 164.248 232.322 164.61 232.227C164.975 232.13 165.334 232.081 165.687 232.081C165.912 232.081 166.171 232.109 166.463 232.163C166.758 232.215 167.043 232.323 167.316 232.487C167.593 232.652 167.823 232.9 168.006 233.231C168.188 233.563 168.279 234.007 168.279 234.564V239.182H167.202V238.233H167.148C167.075 238.385 166.953 238.548 166.782 238.721C166.612 238.895 166.385 239.042 166.102 239.164C165.819 239.286 165.474 239.347 165.066 239.347ZM165.231 238.379C165.657 238.379 166.016 238.295 166.308 238.128C166.603 237.961 166.825 237.745 166.974 237.48C167.126 237.215 167.202 236.937 167.202 236.645V235.659C167.157 235.714 167.056 235.764 166.901 235.81C166.749 235.852 166.573 235.89 166.372 235.924C166.174 235.954 165.981 235.982 165.792 236.006C165.607 236.027 165.456 236.046 165.34 236.061C165.06 236.097 164.799 236.157 164.555 236.239C164.315 236.318 164.12 236.438 163.971 236.599C163.825 236.757 163.752 236.974 163.752 237.247C163.752 237.622 163.891 237.905 164.167 238.096C164.447 238.285 164.802 238.379 165.231 238.379ZM170.245 239.182V232.172H171.286V233.268H171.377C171.523 232.894 171.759 232.603 172.084 232.396C172.41 232.186 172.801 232.081 173.257 232.081C173.72 232.081 174.105 232.186 174.412 232.396C174.722 232.603 174.964 232.894 175.138 233.268H175.211C175.39 232.906 175.659 232.618 176.018 232.405C176.377 232.189 176.808 232.081 177.31 232.081C177.937 232.081 178.449 232.277 178.848 232.67C179.246 233.059 179.446 233.666 179.446 234.491V239.182H178.369V234.491C178.369 233.974 178.227 233.604 177.944 233.382C177.661 233.16 177.328 233.049 176.945 233.049C176.452 233.049 176.07 233.198 175.799 233.496C175.529 233.791 175.393 234.165 175.393 234.619V239.182H174.298V234.381C174.298 233.983 174.169 233.662 173.91 233.418C173.651 233.172 173.318 233.049 172.91 233.049C172.631 233.049 172.369 233.123 172.125 233.272C171.885 233.421 171.69 233.628 171.541 233.893C171.395 234.155 171.322 234.457 171.322 234.801V239.182H170.245ZM184.354 239.328C183.679 239.328 183.096 239.179 182.606 238.881C182.119 238.58 181.744 238.16 181.479 237.622C181.217 237.08 181.086 236.45 181.086 235.732C181.086 235.014 181.217 234.381 181.479 233.834C181.744 233.283 182.112 232.854 182.583 232.547C183.058 232.236 183.612 232.081 184.245 232.081C184.61 232.081 184.97 232.142 185.326 232.264C185.682 232.385 186.006 232.583 186.298 232.857C186.59 233.128 186.823 233.487 186.997 233.934C187.17 234.381 187.257 234.932 187.257 235.586V236.043H181.853V235.111H186.161C186.161 234.716 186.082 234.363 185.924 234.053C185.769 233.742 185.547 233.497 185.258 233.318C184.972 233.138 184.634 233.049 184.245 233.049C183.816 233.049 183.444 233.155 183.131 233.368C182.821 233.578 182.582 233.852 182.414 234.19C182.247 234.527 182.163 234.889 182.163 235.276V235.896C182.163 236.426 182.255 236.875 182.437 237.243C182.623 237.608 182.88 237.886 183.209 238.078C183.537 238.267 183.919 238.361 184.354 238.361C184.637 238.361 184.893 238.321 185.121 238.242C185.352 238.16 185.551 238.038 185.719 237.877C185.886 237.713 186.015 237.509 186.107 237.266L187.147 237.558C187.038 237.911 186.854 238.221 186.595 238.489C186.336 238.753 186.017 238.96 185.637 239.109C185.256 239.255 184.829 239.328 184.354 239.328ZM189.972 234.965V239.182H188.895V232.172H189.936V233.268H190.027C190.191 232.912 190.441 232.626 190.775 232.41C191.11 232.191 191.542 232.081 192.071 232.081C192.546 232.081 192.961 232.179 193.317 232.373C193.673 232.565 193.95 232.857 194.148 233.249C194.346 233.639 194.445 234.132 194.445 234.728V239.182H193.368V234.801C193.368 234.25 193.225 233.821 192.939 233.514C192.653 233.204 192.26 233.049 191.761 233.049C191.417 233.049 191.11 233.123 190.839 233.272C190.571 233.421 190.36 233.639 190.205 233.925C190.05 234.211 189.972 234.558 189.972 234.965ZM199.461 232.172V233.085H195.829V232.172H199.461ZM196.887 230.493H197.964V237.174C197.964 237.479 198.009 237.707 198.097 237.859C198.188 238.008 198.304 238.108 198.444 238.16C198.587 238.209 198.737 238.233 198.895 238.233C199.014 238.233 199.111 238.227 199.187 238.215C199.264 238.2 199.324 238.187 199.37 238.178L199.589 239.146C199.516 239.173 199.414 239.201 199.283 239.228C199.152 239.258 198.987 239.274 198.786 239.274C198.482 239.274 198.183 239.208 197.891 239.077C197.602 238.947 197.362 238.747 197.17 238.48C196.982 238.212 196.887 237.874 196.887 237.466V230.493ZM203.945 239.328C203.27 239.328 202.687 239.179 202.197 238.881C201.71 238.58 201.335 238.16 201.07 237.622C200.808 237.08 200.678 236.45 200.678 235.732C200.678 235.014 200.808 234.381 201.07 233.834C201.335 233.283 201.703 232.854 202.174 232.547C202.649 232.236 203.203 232.081 203.836 232.081C204.201 232.081 204.561 232.142 204.917 232.264C205.273 232.385 205.597 232.583 205.889 232.857C206.181 233.128 206.414 233.487 206.588 233.934C206.761 234.381 206.848 234.932 206.848 235.586V236.043H201.444V235.111H205.752C205.752 234.716 205.673 234.363 205.515 234.053C205.36 233.742 205.138 233.497 204.849 233.318C204.563 233.138 204.225 233.049 203.836 233.049C203.407 233.049 203.036 233.155 202.722 233.368C202.412 233.578 202.173 233.852 202.006 234.19C201.838 234.527 201.755 234.889 201.755 235.276V235.896C201.755 236.426 201.846 236.875 202.028 237.243C202.214 237.608 202.471 237.886 202.8 238.078C203.128 238.267 203.51 238.361 203.945 238.361C204.228 238.361 204.484 238.321 204.712 238.242C204.943 238.16 205.142 238.038 205.31 237.877C205.477 237.713 205.606 237.509 205.698 237.266L206.738 237.558C206.629 237.911 206.445 238.221 206.186 238.489C205.927 238.753 205.608 238.96 205.228 239.109C204.847 239.255 204.42 239.328 203.945 239.328Z" fill="white"/>
<path d="M65.0225 19.5161C45.6617 58.5332 74.087 93.408 78.5349 100.643" stroke="white" stroke-opacity="0.9" strokeWidth="3.99614" strokeLinecap="round" stroke-linejoin="round"/>
<path d="M59.9636 101.99C72.0935 101.172 78.3365 100.707 78.6927 100.594C79.227 100.425 80.4405 91.2609 84.9564 85.7732" stroke="white" stroke-opacity="0.9" strokeWidth="3.99614" strokeLinecap="round" stroke-linejoin="round"/>
</svg>
